<ttFont>
    <TTGlyph name=".notdef" xMin="102" yMin="-220" xMax="592" yMax="1030">
      <contour>
        <pt x="102" y="1030" on="1"/>
        <pt x="592" y="1030" on="1"/>
        <pt x="592" y="-220" on="1"/>
        <pt x="102" y="-220" on="1"/>
      </contour>
      <contour>
        <pt x="551" y="-179" on="1"/>
        <pt x="551" y="990" on="1"/>
        <pt x="143" y="990" on="1"/>
        <pt x="143" y="-179" on="1"/>
      </contour>
    </TTGlyph>
    <TTGlyph name="A" xMin="11" yMin="0" xMax="592" yMax="740">
      <contour>
        <pt x="11" y="6" on="1"/>
        <pt x="273" y="740" on="1"/>
        <pt x="329" y="740" on="1"/>
        <pt x="592" y="6" on="1"/>
        <pt x="592" y="0" on="1"/>
        <pt x="554" y="0" on="1"/>
        <pt x="465" y="247" on="1"/>
        <pt x="137" y="247" on="1"/>
        <pt x="49" y="0" on="1"/>
        <pt x="11" y="0" on="1"/>
      </contour>
      <contour>
        <pt x="452" y="284" on="1"/>
        <pt x="344" y="587" on="1"/>
        <pt x="303" y="703" on="1"/>
        <pt x="299" y="703" on="1"/>
        <pt x="259" y="587" on="1"/>
        <pt x="150" y="284" on="1"/>
      </contour>
    </TTGlyph>
    <TTGlyph name="A.sc" xMin="17" yMin="0" xMax="523" yMax="577">
      <contour>
        <pt x="17" y="5" on="1"/>
        <pt x="242" y="577" on="1"/>
        <pt x="298" y="577" on="1"/>
        <pt x="523" y="5" on="1"/>
        <pt x="523" y="0" on="1"/>
        <pt x="485" y="0" on="1"/>
        <pt x="411" y="188" on="1"/>
        <pt x="130" y="188" on="1"/>
        <pt x="55" y="0" on="1"/>
        <pt x="17" y="0" on="1"/>
      </contour>
      <contour>
        <pt x="398" y="222" on="1"/>
        <pt x="307" y="452" on="1"/>
        <pt x="272" y="544" on="1"/>
        <pt x="268" y="544" on="1"/>
        <pt x="233" y="452" on="1"/>
        <pt x="141" y="222" on="1"/>
      </contour>
    </TTGlyph>
    <TTGlyph name="AE" xMin="11" yMin="0" xMax="745" yMax="740">
      <contour>
        <pt x="11" y="6" on="1"/>
        <pt x="294" y="740" on="1"/>
        <pt x="736" y="740" on="1"/>
        <pt x="736" y="703" on="1"/>
        <pt x="408" y="703" on="1"/>
        <pt x="422" y="394" on="1"/>
        <pt x="703" y="394" on="1"/>
        <pt x="703" y="357" on="1"/>
        <pt x="423" y="357" on="1"/>
        <pt x="438" y="37" on="1"/>
        <pt x="745" y="37" on="1"/>
        <pt x="745" y="0" on="1"/>
        <pt x="400" y="0" on="1"/>
        <pt x="390" y="247" on="1"/>
        <pt x="144" y="247" on="1"/>
        <pt x="48" y="0" on="1"/>
        <pt x="11" y="0" on="1"/>
      </contour>
      <contour>
        <pt x="158" y="284" on="1"/>
        <pt x="388" y="284" on="1"/>
        <pt x="371" y="702" on="1"/>
        <pt x="321" y="702" on="1"/>
      </contour>
    </TTGlyph>
    <TTGlyph name="AE.sc" xMin="21" yMin="0" xMax="657" yMax="577">
      <contour>
        <pt x="21" y="5" on="1"/>
        <pt x="264" y="577" on="1"/>
        <pt x="650" y="577" on="1"/>
        <pt x="650" y="542" on="1"/>
        <pt x="370" y="542" on="1"/>
        <pt x="381" y="310" on="1"/>
        <pt x="622" y="310" on="1"/>
        <pt x="622" y="276" on="1"/>
        <pt x="383" y="276" on="1"/>
        <pt x="395" y="35" on="1"/>
        <pt x="657" y="35" on="1"/>
        <pt x="657" y="0" on="1"/>
        <pt x="357" y="0" on="1"/>
        <pt x="349" y="188" on="1"/>
        <pt x="139" y="188" on="1"/>
        <pt x="58" y="0" on="1"/>
        <pt x="21" y="0" on="1"/>
      </contour>
      <contour>
        <pt x="154" y="222" on="1"/>
        <pt x="347" y="222" on="1"/>
        <pt x="333" y="543" on="1"/>
        <pt x="292" y="543" on="1"/>
      </contour>
    </TTGlyph>
    <TTGlyph name="AEacute" xMin="11" yMin="0" xMax="745" yMax="922">
      <contour>
        <pt x="461" y="799" on="1"/>
        <pt x="540" y="922" on="1"/>
        <pt x="582" y="922" on="1"/>
        <pt x="496" y="794" on="1"/>
      </contour>
      <contour>
        <pt x="11" y="6" on="1"/>
        <pt x="294" y="740" on="1"/>
        <pt x="736" y="740" on="1"/>
        <pt x="736" y="703" on="1"/>
        <pt x="408" y="703" on="1"/>
        <pt x="422" y="394" on="1"/>
        <pt x="703" y="394" on="1"/>
        <pt x="703" y="357" on="1"/>
        <pt x="423" y="357" on="1"/>
        <pt x="438" y="37" on="1"/>
        <pt x="745" y="37" on="1"/>
        <pt x="745" y="0" on="1"/>
        <pt x="400" y="0" on="1"/>
        <pt x="390" y="247" on="1"/>
        <pt x="144" y="247" on="1"/>
        <pt x="48" y="0" on="1"/>
        <pt x="11" y="0" on="1"/>
      </contour>
      <contour>
        <pt x="158" y="284" on="1"/>
        <pt x="388" y="284" on="1"/>
        <pt x="371" y="702" on="1"/>
        <pt x="321" y="702" on="1"/>
      </contour>
    </TTGlyph>
    <TTGlyph name="AEacute.sc" xMin="21" yMin="0" xMax="657" yMax="723">
      <contour>
        <pt x="21" y="5" on="1"/>
        <pt x="264" y="577" on="1"/>
        <pt x="650" y="577" on="1"/>
        <pt x="650" y="542" on="1"/>
        <pt x="370" y="542" on="1"/>
        <pt x="381" y="310" on="1"/>
        <pt x="622" y="310" on="1"/>
        <pt x="622" y="276" on="1"/>
        <pt x="383" y="276" on="1"/>
        <pt x="395" y="35" on="1"/>
        <pt x="657" y="35" on="1"/>
        <pt x="657" y="0" on="1"/>
        <pt x="357" y="0" on="1"/>
        <pt x="349" y="188" on="1"/>
        <pt x="139" y="188" on="1"/>
        <pt x="58" y="0" on="1"/>
        <pt x="21" y="0" on="1"/>
      </contour>
      <contour>
        <pt x="347" y="222" on="1"/>
        <pt x="333" y="543" on="1"/>
        <pt x="292" y="543" on="1"/>
        <pt x="154" y="222" on="1"/>
      </contour>
      <contour>
        <pt x="407" y="624" on="1"/>
        <pt x="474" y="723" on="1"/>
        <pt x="516" y="723" on="1"/>
        <pt x="441" y="621" on="1"/>
      </contour>
    </TTGlyph>
    <TTGlyph name="Aacute" xMin="11" yMin="0" xMax="592" yMax="922">
      <contour>
        <pt x="11" y="6" on="1"/>
        <pt x="273" y="740" on="1"/>
        <pt x="329" y="740" on="1"/>
        <pt x="592" y="6" on="1"/>
        <pt x="592" y="0" on="1"/>
        <pt x="554" y="0" on="1"/>
        <pt x="465" y="247" on="1"/>
        <pt x="137" y="247" on="1"/>
        <pt x="49" y="0" on="1"/>
        <pt x="11" y="0" on="1"/>
      </contour>
      <contour>
        <pt x="452" y="284" on="1"/>
        <pt x="344" y="587" on="1"/>
        <pt x="303" y="703" on="1"/>
        <pt x="299" y="703" on="1"/>
        <pt x="259" y="587" on="1"/>
        <pt x="150" y="284" on="1"/>
      </contour>
      <contour>
        <pt x="280" y="799" on="1"/>
        <pt x="359" y="922" on="1"/>
        <pt x="401" y="922" on="1"/>
        <pt x="315" y="794" on="1"/>
      </contour>
    </TTGlyph>
    <TTGlyph name="Aacute.sc" xMin="17" yMin="0" xMax="523" yMax="723">
      <contour>
        <pt x="17" y="5" on="1"/>
        <pt x="242" y="577" on="1"/>
        <pt x="298" y="577" on="1"/>
        <pt x="523" y="5" on="1"/>
        <pt x="523" y="0" on="1"/>
        <pt x="485" y="0" on="1"/>
        <pt x="411" y="188" on="1"/>
        <pt x="130" y="188" on="1"/>
        <pt x="55" y="0" on="1"/>
        <pt x="17" y="0" on="1"/>
      </contour>
      <contour>
        <pt x="398" y="222" on="1"/>
        <pt x="307" y="452" on="1"/>
        <pt x="272" y="544" on="1"/>
        <pt x="268" y="544" on="1"/>
        <pt x="233" y="452" on="1"/>
        <pt x="141" y="222" on="1"/>
      </contour>
      <contour>
        <pt x="250" y="624" on="1"/>
        <pt x="316" y="723" on="1"/>
        <pt x="357" y="723" on="1"/>
        <pt x="283" y="621" on="1"/>
      </contour>
    </TTGlyph>
    <TTGlyph name="Abreve" xMin="11" yMin="0" xMax="592" yMax="949">
      <contour>
        <pt x="11" y="6" on="1"/>
        <pt x="273" y="740" on="1"/>
        <pt x="329" y="740" on="1"/>
        <pt x="592" y="6" on="1"/>
        <pt x="592" y="0" on="1"/>
        <pt x="554" y="0" on="1"/>
        <pt x="465" y="247" on="1"/>
        <pt x="137" y="247" on="1"/>
        <pt x="49" y="0" on="1"/>
        <pt x="11" y="0" on="1"/>
      </contour>
      <contour>
        <pt x="452" y="284" on="1"/>
        <pt x="344" y="587" on="1"/>
        <pt x="303" y="703" on="1"/>
        <pt x="299" y="703" on="1"/>
        <pt x="259" y="587" on="1"/>
        <pt x="150" y="284" on="1"/>
      </contour>
      <contour>
        <pt x="303" y="816" on="1"/>
        <pt x="231" y="816" on="0"/>
        <pt x="151" y="886" on="0"/>
        <pt x="151" y="949" on="1"/>
        <pt x="188" y="949" on="1"/>
        <pt x="188" y="903" on="0"/>
        <pt x="249" y="851" on="0"/>
        <pt x="303" y="851" on="1"/>
        <pt x="357" y="851" on="0"/>
        <pt x="418" y="903" on="0"/>
        <pt x="418" y="949" on="1"/>
        <pt x="455" y="949" on="1"/>
        <pt x="455" y="886" on="0"/>
        <pt x="374" y="816" on="0"/>
      </contour>
    </TTGlyph>
    <TTGlyph name="Abreve.sc" xMin="17" yMin="0" xMax="523" yMax="742">
      <contour>
        <pt x="271" y="635" on="1"/>
        <pt x="208" y="635" on="0"/>
        <pt x="138" y="692" on="0"/>
        <pt x="138" y="742" on="1"/>
        <pt x="173" y="742" on="1"/>
        <pt x="173" y="706" on="0"/>
        <pt x="224" y="666" on="0"/>
        <pt x="271" y="666" on="1"/>
        <pt x="318" y="666" on="0"/>
        <pt x="370" y="706" on="0"/>
        <pt x="370" y="742" on="1"/>
        <pt x="404" y="742" on="1"/>
        <pt x="404" y="692" on="0"/>
        <pt x="334" y="635" on="0"/>
      </contour>
      <contour>
        <pt x="17" y="5" on="1"/>
        <pt x="242" y="577" on="1"/>
        <pt x="298" y="577" on="1"/>
        <pt x="523" y="5" on="1"/>
        <pt x="523" y="0" on="1"/>
        <pt x="485" y="0" on="1"/>
        <pt x="411" y="188" on="1"/>
        <pt x="130" y="188" on="1"/>
        <pt x="55" y="0" on="1"/>
        <pt x="17" y="0" on="1"/>
      </contour>
      <contour>
        <pt x="398" y="222" on="1"/>
        <pt x="307" y="452" on="1"/>
        <pt x="272" y="544" on="1"/>
        <pt x="268" y="544" on="1"/>
        <pt x="233" y="452" on="1"/>
        <pt x="141" y="222" on="1"/>
      </contour>
    </TTGlyph>
    <TTGlyph name="Acircumflex" xMin="11" yMin="0" xMax="592" yMax="934">
      <contour>
        <pt x="11" y="6" on="1"/>
        <pt x="273" y="740" on="1"/>
        <pt x="329" y="740" on="1"/>
        <pt x="592" y="6" on="1"/>
        <pt x="592" y="0" on="1"/>
        <pt x="554" y="0" on="1"/>
        <pt x="465" y="247" on="1"/>
        <pt x="137" y="247" on="1"/>
        <pt x="49" y="0" on="1"/>
        <pt x="11" y="0" on="1"/>
      </contour>
      <contour>
        <pt x="452" y="284" on="1"/>
        <pt x="344" y="587" on="1"/>
        <pt x="303" y="703" on="1"/>
        <pt x="299" y="703" on="1"/>
        <pt x="259" y="587" on="1"/>
        <pt x="150" y="284" on="1"/>
      </contour>
      <contour>
        <pt x="164" y="862" on="1"/>
        <pt x="302" y="934" on="1"/>
        <pt x="439" y="862" on="1"/>
        <pt x="439" y="818" on="1"/>
        <pt x="302" y="890" on="1"/>
        <pt x="164" y="818" on="1"/>
      </contour>
    </TTGlyph>
    <TTGlyph name="Acircumflex.sc" xMin="17" yMin="0" xMax="523" yMax="732">
      <contour>
        <pt x="17" y="5" on="1"/>
        <pt x="242" y="577" on="1"/>
        <pt x="298" y="577" on="1"/>
        <pt x="523" y="5" on="1"/>
        <pt x="523" y="0" on="1"/>
        <pt x="485" y="0" on="1"/>
        <pt x="411" y="188" on="1"/>
        <pt x="130" y="188" on="1"/>
        <pt x="55" y="0" on="1"/>
        <pt x="17" y="0" on="1"/>
      </contour>
      <contour>
        <pt x="398" y="222" on="1"/>
        <pt x="307" y="452" on="1"/>
        <pt x="272" y="544" on="1"/>
        <pt x="268" y="544" on="1"/>
        <pt x="233" y="452" on="1"/>
        <pt x="141" y="222" on="1"/>
      </contour>
      <contour>
        <pt x="151" y="675" on="1"/>
        <pt x="271" y="732" on="1"/>
        <pt x="391" y="675" on="1"/>
        <pt x="391" y="637" on="1"/>
        <pt x="271" y="693" on="1"/>
        <pt x="151" y="637" on="1"/>
      </contour>
    </TTGlyph>
    <TTGlyph name="Adblgrave" xMin="11" yMin="0" xMax="592" yMax="917">
      <contour>
        <pt x="11" y="6" on="1"/>
        <pt x="273" y="740" on="1"/>
        <pt x="329" y="740" on="1"/>
        <pt x="592" y="6" on="1"/>
        <pt x="592" y="0" on="1"/>
        <pt x="554" y="0" on="1"/>
        <pt x="465" y="247" on="1"/>
        <pt x="137" y="247" on="1"/>
        <pt x="49" y="0" on="1"/>
        <pt x="11" y="0" on="1"/>
      </contour>
      <contour>
        <pt x="452" y="284" on="1"/>
        <pt x="344" y="587" on="1"/>
        <pt x="303" y="703" on="1"/>
        <pt x="299" y="703" on="1"/>
        <pt x="259" y="587" on="1"/>
        <pt x="150" y="284" on="1"/>
      </contour>
      <contour>
        <pt x="222" y="789" on="1"/>
        <pt x="136" y="917" on="1"/>
        <pt x="178" y="917" on="1"/>
        <pt x="256" y="803" on="1"/>
      </contour>
      <contour>
        <pt x="351" y="789" on="1"/>
        <pt x="265" y="917" on="1"/>
        <pt x="307" y="917" on="1"/>
        <pt x="386" y="803" on="1"/>
      </contour>
    </TTGlyph>
    <TTGlyph name="Adblgrave.sc" xMin="17" yMin="0" xMax="523" yMax="719">
      <contour>
        <pt x="17" y="5" on="1"/>
        <pt x="242" y="577" on="1"/>
        <pt x="298" y="577" on="1"/>
        <pt x="523" y="5" on="1"/>
        <pt x="523" y="0" on="1"/>
        <pt x="485" y="0" on="1"/>
        <pt x="411" y="188" on="1"/>
        <pt x="130" y="188" on="1"/>
        <pt x="55" y="0" on="1"/>
        <pt x="17" y="0" on="1"/>
      </contour>
      <contour>
        <pt x="398" y="222" on="1"/>
        <pt x="307" y="452" on="1"/>
        <pt x="272" y="544" on="1"/>
        <pt x="268" y="544" on="1"/>
        <pt x="233" y="452" on="1"/>
        <pt x="141" y="222" on="1"/>
      </contour>
      <contour>
        <pt x="125" y="719" on="1"/>
        <pt x="165" y="719" on="1"/>
        <pt x="231" y="627" on="1"/>
        <pt x="199" y="616" on="1"/>
      </contour>
      <contour>
        <pt x="238" y="719" on="1"/>
        <pt x="278" y="719" on="1"/>
        <pt x="345" y="627" on="1"/>
        <pt x="313" y="616" on="1"/>
      </contour>
    </TTGlyph>
    <TTGlyph name="Adieresis" xMin="11" yMin="0" xMax="592" yMax="889">
      <contour>
        <pt x="11" y="6" on="1"/>
        <pt x="273" y="740" on="1"/>
        <pt x="329" y="740" on="1"/>
        <pt x="592" y="6" on="1"/>
        <pt x="592" y="0" on="1"/>
        <pt x="554" y="0" on="1"/>
        <pt x="465" y="247" on="1"/>
        <pt x="137" y="247" on="1"/>
        <pt x="49" y="0" on="1"/>
        <pt x="11" y="0" on="1"/>
      </contour>
      <contour>
        <pt x="452" y="284" on="1"/>
        <pt x="344" y="587" on="1"/>
        <pt x="303" y="703" on="1"/>
        <pt x="299" y="703" on="1"/>
        <pt x="259" y="587" on="1"/>
        <pt x="150" y="284" on="1"/>
      </contour>
      <contour>
        <pt x="193" y="823" on="1"/>
        <pt x="179" y="823" on="0"/>
        <pt x="160" y="839" on="0"/>
        <pt x="160" y="856" on="1"/>
        <pt x="160" y="873" on="0"/>
        <pt x="179" y="889" on="0"/>
        <pt x="193" y="889" on="1"/>
        <pt x="207" y="889" on="0"/>
        <pt x="227" y="873" on="0"/>
        <pt x="227" y="856" on="1"/>
        <pt x="227" y="839" on="0"/>
        <pt x="207" y="823" on="0"/>
      </contour>
      <contour>
        <pt x="411" y="823" on="1"/>
        <pt x="397" y="823" on="0"/>
        <pt x="378" y="839" on="0"/>
        <pt x="378" y="856" on="1"/>
        <pt x="378" y="873" on="0"/>
        <pt x="397" y="889" on="0"/>
        <pt x="411" y="889" on="1"/>
        <pt x="424" y="889" on="0"/>
        <pt x="445" y="873" on="0"/>
        <pt x="445" y="856" on="1"/>
        <pt x="445" y="839" on="0"/>
        <pt x="424" y="823" on="0"/>
      </contour>
    </TTGlyph>
    <TTGlyph name="Adieresis.sc" xMin="17" yMin="0" xMax="523" yMax="701">
      <contour>
        <pt x="174" y="642" on="1"/>
        <pt x="160" y="642" on="0"/>
        <pt x="144" y="656" on="0"/>
        <pt x="144" y="671" on="1"/>
        <pt x="144" y="687" on="0"/>
        <pt x="160" y="701" on="0"/>
        <pt x="174" y="701" on="1"/>
        <pt x="188" y="701" on="0"/>
        <pt x="206" y="687" on="0"/>
        <pt x="206" y="671" on="1"/>
        <pt x="206" y="655" on="0"/>
        <pt x="188" y="642" on="0"/>
      </contour>
      <contour>
        <pt x="367" y="642" on="1"/>
        <pt x="353" y="642" on="0"/>
        <pt x="335" y="656" on="0"/>
        <pt x="335" y="671" on="1"/>
        <pt x="335" y="687" on="0"/>
        <pt x="353" y="701" on="0"/>
        <pt x="367" y="701" on="1"/>
        <pt x="379" y="701" on="0"/>
        <pt x="398" y="687" on="0"/>
        <pt x="398" y="671" on="1"/>
        <pt x="398" y="655" on="0"/>
        <pt x="379" y="642" on="0"/>
      </contour>
      <contour>
        <pt x="17" y="5" on="1"/>
        <pt x="242" y="577" on="1"/>
        <pt x="298" y="577" on="1"/>
        <pt x="523" y="5" on="1"/>
        <pt x="523" y="0" on="1"/>
        <pt x="485" y="0" on="1"/>
        <pt x="411" y="188" on="1"/>
        <pt x="130" y="188" on="1"/>
        <pt x="55" y="0" on="1"/>
        <pt x="17" y="0" on="1"/>
      </contour>
      <contour>
        <pt x="398" y="222" on="1"/>
        <pt x="307" y="452" on="1"/>
        <pt x="272" y="544" on="1"/>
        <pt x="268" y="544" on="1"/>
        <pt x="233" y="452" on="1"/>
        <pt x="141" y="222" on="1"/>
      </contour>
    </TTGlyph>
    <TTGlyph name="Agrave" xMin="11" yMin="0" xMax="592" yMax="922">
      <contour>
        <pt x="11" y="6" on="1"/>
        <pt x="273" y="740" on="1"/>
        <pt x="329" y="740" on="1"/>
        <pt x="592" y="6" on="1"/>
        <pt x="592" y="0" on="1"/>
        <pt x="554" y="0" on="1"/>
        <pt x="465" y="247" on="1"/>
        <pt x="137" y="247" on="1"/>
        <pt x="49" y="0" on="1"/>
        <pt x="11" y="0" on="1"/>
      </contour>
      <contour>
        <pt x="452" y="284" on="1"/>
        <pt x="344" y="587" on="1"/>
        <pt x="303" y="703" on="1"/>
        <pt x="299" y="703" on="1"/>
        <pt x="259" y="587" on="1"/>
        <pt x="150" y="284" on="1"/>
      </contour>
      <contour>
        <pt x="284" y="794" on="1"/>
        <pt x="198" y="922" on="1"/>
        <pt x="240" y="922" on="1"/>
        <pt x="319" y="808" on="1"/>
      </contour>
    </TTGlyph>
    <TTGlyph name="Agrave.sc" xMin="17" yMin="0" xMax="523" yMax="723">
      <contour>
        <pt x="17" y="5" on="1"/>
        <pt x="242" y="577" on="1"/>
        <pt x="298" y="577" on="1"/>
        <pt x="523" y="5" on="1"/>
        <pt x="523" y="0" on="1"/>
        <pt x="485" y="0" on="1"/>
        <pt x="411" y="188" on="1"/>
        <pt x="130" y="188" on="1"/>
        <pt x="55" y="0" on="1"/>
        <pt x="17" y="0" on="1"/>
      </contour>
      <contour>
        <pt x="398" y="222" on="1"/>
        <pt x="307" y="452" on="1"/>
        <pt x="272" y="544" on="1"/>
        <pt x="268" y="544" on="1"/>
        <pt x="233" y="452" on="1"/>
        <pt x="141" y="222" on="1"/>
      </contour>
      <contour>
        <pt x="254" y="621" on="1"/>
        <pt x="180" y="723" on="1"/>
        <pt x="221" y="723" on="1"/>
        <pt x="287" y="631" on="1"/>
      </contour>
    </TTGlyph>
    <TTGlyph name="Ainvertedbreve" xMin="11" yMin="0" xMax="592" yMax="954">
      <contour>
        <pt x="11" y="6" on="1"/>
        <pt x="273" y="740" on="1"/>
        <pt x="329" y="740" on="1"/>
        <pt x="592" y="6" on="1"/>
        <pt x="592" y="0" on="1"/>
        <pt x="554" y="0" on="1"/>
        <pt x="465" y="247" on="1"/>
        <pt x="137" y="247" on="1"/>
        <pt x="49" y="0" on="1"/>
        <pt x="11" y="0" on="1"/>
      </contour>
      <contour>
        <pt x="452" y="284" on="1"/>
        <pt x="344" y="587" on="1"/>
        <pt x="303" y="703" on="1"/>
        <pt x="299" y="703" on="1"/>
        <pt x="259" y="587" on="1"/>
        <pt x="150" y="284" on="1"/>
      </contour>
      <contour>
        <pt x="417" y="821" on="1"/>
        <pt x="417" y="867" on="0"/>
        <pt x="356" y="919" on="0"/>
        <pt x="302" y="919" on="1"/>
        <pt x="248" y="919" on="0"/>
        <pt x="187" y="867" on="0"/>
        <pt x="187" y="821" on="1"/>
        <pt x="150" y="821" on="1"/>
        <pt x="150" y="883" on="0"/>
        <pt x="230" y="954" on="0"/>
        <pt x="302" y="954" on="1"/>
        <pt x="373" y="954" on="0"/>
        <pt x="454" y="883" on="0"/>
        <pt x="454" y="821" on="1"/>
      </contour>
    </TTGlyph>
    <TTGlyph name="Ainvertedbreve.sc" xMin="17" yMin="0" xMax="523" yMax="746">
      <contour>
        <pt x="138" y="639" on="1"/>
        <pt x="138" y="689" on="0"/>
        <pt x="207" y="746" on="0"/>
        <pt x="270" y="746" on="1"/>
        <pt x="333" y="746" on="0"/>
        <pt x="403" y="689" on="0"/>
        <pt x="403" y="639" on="1"/>
        <pt x="369" y="639" on="1"/>
        <pt x="369" y="675" on="0"/>
        <pt x="317" y="715" on="0"/>
        <pt x="270" y="715" on="1"/>
        <pt x="224" y="715" on="0"/>
        <pt x="172" y="675" on="0"/>
        <pt x="172" y="639" on="1"/>
      </contour>
      <contour>
        <pt x="17" y="5" on="1"/>
        <pt x="242" y="577" on="1"/>
        <pt x="298" y="577" on="1"/>
        <pt x="523" y="5" on="1"/>
        <pt x="523" y="0" on="1"/>
        <pt x="485" y="0" on="1"/>
        <pt x="411" y="188" on="1"/>
        <pt x="130" y="188" on="1"/>
        <pt x="55" y="0" on="1"/>
        <pt x="17" y="0" on="1"/>
      </contour>
      <contour>
        <pt x="398" y="222" on="1"/>
        <pt x="307" y="452" on="1"/>
        <pt x="272" y="544" on="1"/>
        <pt x="268" y="544" on="1"/>
        <pt x="233" y="452" on="1"/>
        <pt x="141" y="222" on="1"/>
      </contour>
    </TTGlyph>
    <TTGlyph name="Amacron" xMin="11" yMin="0" xMax="592" yMax="878">
      <contour>
        <pt x="11" y="6" on="1"/>
        <pt x="273" y="740" on="1"/>
        <pt x="329" y="740" on="1"/>
        <pt x="592" y="6" on="1"/>
        <pt x="592" y="0" on="1"/>
        <pt x="554" y="0" on="1"/>
        <pt x="465" y="247" on="1"/>
        <pt x="137" y="247" on="1"/>
        <pt x="49" y="0" on="1"/>
        <pt x="11" y="0" on="1"/>
      </contour>
      <contour>
        <pt x="452" y="284" on="1"/>
        <pt x="344" y="587" on="1"/>
        <pt x="303" y="703" on="1"/>
        <pt x="299" y="703" on="1"/>
        <pt x="259" y="587" on="1"/>
        <pt x="150" y="284" on="1"/>
      </contour>
      <contour>
        <pt x="169" y="878" on="1"/>
        <pt x="426" y="878" on="1"/>
        <pt x="426" y="842" on="1"/>
        <pt x="169" y="842" on="1"/>
      </contour>
    </TTGlyph>
    <TTGlyph name="Amacron.sc" xMin="17" yMin="0" xMax="523" yMax="690">
      <contour>
        <pt x="17" y="5" on="1"/>
        <pt x="242" y="577" on="1"/>
        <pt x="298" y="577" on="1"/>
        <pt x="523" y="5" on="1"/>
        <pt x="523" y="0" on="1"/>
        <pt x="485" y="0" on="1"/>
        <pt x="411" y="188" on="1"/>
        <pt x="130" y="188" on="1"/>
        <pt x="55" y="0" on="1"/>
        <pt x="17" y="0" on="1"/>
      </contour>
      <contour>
        <pt x="398" y="222" on="1"/>
        <pt x="307" y="452" on="1"/>
        <pt x="272" y="544" on="1"/>
        <pt x="268" y="544" on="1"/>
        <pt x="233" y="452" on="1"/>
        <pt x="141" y="222" on="1"/>
      </contour>
      <contour>
        <pt x="154" y="690" on="1"/>
        <pt x="381" y="690" on="1"/>
        <pt x="381" y="656" on="1"/>
        <pt x="154" y="656" on="1"/>
      </contour>
    </TTGlyph>
    <TTGlyph name="Aogonek" xMin="11" yMin="-220" xMax="592" yMax="740">
      <contour>
        <pt x="531" y="-220" on="1"/>
        <pt x="450" y="-220" on="0"/>
        <pt x="450" y="-142" on="1"/>
        <pt x="450" y="-101" on="0"/>
        <pt x="500" y="-36" on="0"/>
        <pt x="560" y="0" on="1"/>
        <pt x="554" y="0" on="1"/>
        <pt x="465" y="247" on="1"/>
        <pt x="137" y="247" on="1"/>
        <pt x="49" y="0" on="1"/>
        <pt x="11" y="0" on="1"/>
        <pt x="11" y="6" on="1"/>
        <pt x="273" y="740" on="1"/>
        <pt x="329" y="740" on="1"/>
        <pt x="592" y="6" on="1"/>
        <pt x="592" y="-21" on="1"/>
        <pt x="535" y="-50" on="0"/>
        <pt x="486" y="-105" on="0"/>
        <pt x="486" y="-140" on="1"/>
        <pt x="486" y="-165" on="0"/>
        <pt x="510" y="-187" on="0"/>
        <pt x="537" y="-187" on="1"/>
        <pt x="565" y="-187" on="0"/>
        <pt x="591" y="-177" on="1"/>
        <pt x="591" y="-208" on="1"/>
        <pt x="565" y="-220" on="0"/>
      </contour>
      <contour>
        <pt x="452" y="284" on="1"/>
        <pt x="344" y="587" on="1"/>
        <pt x="303" y="703" on="1"/>
        <pt x="299" y="703" on="1"/>
        <pt x="259" y="587" on="1"/>
        <pt x="150" y="284" on="1"/>
      </contour>
    </TTGlyph>
    <TTGlyph name="Aogonek.sc" xMin="16" yMin="-170" xMax="522" yMax="577">
      <contour>
        <pt x="469" y="-170" on="1"/>
        <pt x="397" y="-170" on="0"/>
        <pt x="397" y="-107" on="1"/>
        <pt x="397" y="-77" on="0"/>
        <pt x="436" y="-29" on="0"/>
        <pt x="486" y="0" on="1"/>
        <pt x="484" y="0" on="1"/>
        <pt x="410" y="188" on="1"/>
        <pt x="129" y="188" on="1"/>
        <pt x="54" y="0" on="1"/>
        <pt x="16" y="0" on="1"/>
        <pt x="16" y="5" on="1"/>
        <pt x="241" y="577" on="1"/>
        <pt x="298" y="577" on="1"/>
        <pt x="522" y="5" on="1"/>
        <pt x="522" y="-14" on="1"/>
        <pt x="480" y="-31" on="0"/>
        <pt x="430" y="-77" on="0"/>
        <pt x="430" y="-106" on="1"/>
        <pt x="430" y="-125" on="0"/>
        <pt x="453" y="-140" on="0"/>
        <pt x="473" y="-140" on="1"/>
        <pt x="499" y="-140" on="0"/>
        <pt x="521" y="-132" on="1"/>
        <pt x="521" y="-160" on="1"/>
        <pt x="498" y="-170" on="0"/>
      </contour>
      <contour>
        <pt x="397" y="222" on="1"/>
        <pt x="306" y="457" on="1"/>
        <pt x="271" y="544" on="1"/>
        <pt x="267" y="544" on="1"/>
        <pt x="233" y="457" on="1"/>
        <pt x="140" y="222" on="1"/>
      </contour>
    </TTGlyph>
    <TTGlyph name="Aring" xMin="11" yMin="0" xMax="592" yMax="963">
      <contour>
        <pt x="11" y="6" on="1"/>
        <pt x="273" y="740" on="1"/>
        <pt x="329" y="740" on="1"/>
        <pt x="592" y="6" on="1"/>
        <pt x="592" y="0" on="1"/>
        <pt x="554" y="0" on="1"/>
        <pt x="465" y="247" on="1"/>
        <pt x="137" y="247" on="1"/>
        <pt x="49" y="0" on="1"/>
        <pt x="11" y="0" on="1"/>
      </contour>
      <contour>
        <pt x="452" y="284" on="1"/>
        <pt x="344" y="587" on="1"/>
        <pt x="303" y="703" on="1"/>
        <pt x="299" y="703" on="1"/>
        <pt x="259" y="587" on="1"/>
        <pt x="150" y="284" on="1"/>
      </contour>
      <contour>
        <pt x="302" y="756" on="1"/>
        <pt x="254" y="756" on="0"/>
        <pt x="197" y="815" on="0"/>
        <pt x="197" y="859" on="1"/>
        <pt x="197" y="903" on="0"/>
        <pt x="254" y="963" on="0"/>
        <pt x="302" y="963" on="1"/>
        <pt x="350" y="963" on="0"/>
        <pt x="406" y="903" on="0"/>
        <pt x="406" y="859" on="1"/>
        <pt x="406" y="815" on="0"/>
        <pt x="349" y="756" on="0"/>
      </contour>
      <contour>
        <pt x="302" y="791" on="1"/>
        <pt x="334" y="791" on="0"/>
        <pt x="371" y="828" on="0"/>
        <pt x="371" y="859" on="1"/>
        <pt x="371" y="890" on="0"/>
        <pt x="335" y="928" on="0"/>
        <pt x="302" y="928" on="1"/>
        <pt x="269" y="928" on="0"/>
        <pt x="233" y="890" on="0"/>
        <pt x="233" y="859" on="1"/>
        <pt x="233" y="828" on="0"/>
        <pt x="269" y="791" on="0"/>
      </contour>
    </TTGlyph>
    <TTGlyph name="Aring.sc" xMin="17" yMin="0" xMax="523" yMax="785">
      <contour>
        <pt x="17" y="5" on="1"/>
        <pt x="242" y="577" on="1"/>
        <pt x="298" y="577" on="1"/>
        <pt x="523" y="5" on="1"/>
        <pt x="523" y="0" on="1"/>
        <pt x="485" y="0" on="1"/>
        <pt x="411" y="188" on="1"/>
        <pt x="130" y="188" on="1"/>
        <pt x="55" y="0" on="1"/>
        <pt x="17" y="0" on="1"/>
      </contour>
      <contour>
        <pt x="398" y="222" on="1"/>
        <pt x="307" y="452" on="1"/>
        <pt x="272" y="544" on="1"/>
        <pt x="268" y="544" on="1"/>
        <pt x="233" y="452" on="1"/>
        <pt x="141" y="222" on="1"/>
      </contour>
      <contour>
        <pt x="271" y="622" on="1"/>
        <pt x="229" y="622" on="0"/>
        <pt x="179" y="668" on="0"/>
        <pt x="179" y="702" on="1"/>
        <pt x="179" y="737" on="0"/>
        <pt x="229" y="785" on="0"/>
        <pt x="271" y="785" on="1"/>
        <pt x="312" y="785" on="0"/>
        <pt x="361" y="737" on="0"/>
        <pt x="361" y="702" on="1"/>
        <pt x="361" y="668" on="0"/>
        <pt x="312" y="622" on="0"/>
      </contour>
      <contour>
        <pt x="271" y="650" on="1"/>
        <pt x="299" y="650" on="0"/>
        <pt x="330" y="679" on="0"/>
        <pt x="330" y="702" on="1"/>
        <pt x="330" y="726" on="0"/>
        <pt x="300" y="756" on="0"/>
        <pt x="271" y="756" on="1"/>
        <pt x="242" y="756" on="0"/>
        <pt x="211" y="726" on="0"/>
        <pt x="211" y="702" on="1"/>
        <pt x="211" y="679" on="0"/>
        <pt x="242" y="650" on="0"/>
      </contour>
    </TTGlyph>
    <TTGlyph name="Aringacute" xMin="12" yMin="0" xMax="593" yMax="937">
      <contour>
        <pt x="12" y="6" on="1"/>
        <pt x="242" y="648" on="1"/>
        <pt x="219" y="662" on="0"/>
        <pt x="194" y="708" on="0"/>
        <pt x="194" y="737" on="1"/>
        <pt x="194" y="777" on="0"/>
        <pt x="242" y="835" on="0"/>
        <pt x="284" y="840" on="1"/>
        <pt x="352" y="937" on="1"/>
        <pt x="394" y="937" on="1"/>
        <pt x="327" y="838" on="1"/>
        <pt x="364" y="830" on="0"/>
        <pt x="406" y="774" on="0"/>
        <pt x="406" y="737" on="1"/>
        <pt x="406" y="709" on="0"/>
        <pt x="382" y="665" on="0"/>
        <pt x="361" y="651" on="1"/>
        <pt x="593" y="6" on="1"/>
        <pt x="593" y="0" on="1"/>
        <pt x="555" y="0" on="1"/>
        <pt x="466" y="247" on="1"/>
        <pt x="138" y="247" on="1"/>
        <pt x="50" y="0" on="1"/>
        <pt x="12" y="0" on="1"/>
      </contour>
      <contour>
        <pt x="301" y="668" on="1"/>
        <pt x="333" y="668" on="0"/>
        <pt x="370" y="706" on="0"/>
        <pt x="370" y="737" on="1"/>
        <pt x="370" y="767" on="0"/>
        <pt x="333" y="806" on="0"/>
        <pt x="301" y="806" on="1"/>
        <pt x="267" y="806" on="0"/>
        <pt x="231" y="767" on="0"/>
        <pt x="231" y="737" on="1"/>
        <pt x="231" y="706" on="0"/>
        <pt x="268" y="668" on="0"/>
      </contour>
      <contour>
        <pt x="453" y="284" on="1"/>
        <pt x="345" y="587" on="1"/>
        <pt x="327" y="635" on="1"/>
        <pt x="277" y="635" on="1"/>
        <pt x="260" y="587" on="1"/>
        <pt x="151" y="284" on="1"/>
      </contour>
    </TTGlyph>
    <TTGlyph name="Aringacute.sc" xMin="18" yMin="0" xMax="524" yMax="737">
      <contour>
        <pt x="18" y="5" on="1"/>
        <pt x="216" y="508" on="1"/>
        <pt x="175" y="532" on="0"/>
        <pt x="175" y="577" on="1"/>
        <pt x="175" y="609" on="0"/>
        <pt x="217" y="655" on="0"/>
        <pt x="254" y="660" on="1"/>
        <pt x="311" y="737" on="1"/>
        <pt x="352" y="737" on="1"/>
        <pt x="294" y="658" on="1"/>
        <pt x="326" y="651" on="0"/>
        <pt x="363" y="607" on="0"/>
        <pt x="363" y="577" on="1"/>
        <pt x="363" y="534" on="0"/>
        <pt x="325" y="510" on="1"/>
        <pt x="524" y="5" on="1"/>
        <pt x="524" y="0" on="1"/>
        <pt x="486" y="0" on="1"/>
        <pt x="411" y="188" on="1"/>
        <pt x="130" y="188" on="1"/>
        <pt x="56" y="0" on="1"/>
        <pt x="18" y="0" on="1"/>
      </contour>
      <contour>
        <pt x="269" y="524" on="1"/>
        <pt x="298" y="524" on="0"/>
        <pt x="329" y="554" on="0"/>
        <pt x="329" y="577" on="1"/>
        <pt x="329" y="601" on="0"/>
        <pt x="298" y="631" on="0"/>
        <pt x="269" y="631" on="1"/>
        <pt x="240" y="631" on="0"/>
        <pt x="208" y="601" on="0"/>
        <pt x="208" y="577" on="1"/>
        <pt x="208" y="554" on="0"/>
        <pt x="241" y="524" on="0"/>
      </contour>
      <contour>
        <pt x="398" y="222" on="1"/>
        <pt x="308" y="452" on="1"/>
        <pt x="291" y="495" on="1"/>
        <pt x="249" y="494" on="1"/>
        <pt x="234" y="452" on="1"/>
        <pt x="142" y="222" on="1"/>
      </contour>
    </TTGlyph>
    <TTGlyph name="Atilde" xMin="11" yMin="0" xMax="592" yMax="908">
      <contour>
        <pt x="11" y="6" on="1"/>
        <pt x="273" y="740" on="1"/>
        <pt x="329" y="740" on="1"/>
        <pt x="592" y="6" on="1"/>
        <pt x="592" y="0" on="1"/>
        <pt x="554" y="0" on="1"/>
        <pt x="465" y="247" on="1"/>
        <pt x="137" y="247" on="1"/>
        <pt x="49" y="0" on="1"/>
        <pt x="11" y="0" on="1"/>
      </contour>
      <contour>
        <pt x="452" y="284" on="1"/>
        <pt x="344" y="587" on="1"/>
        <pt x="303" y="703" on="1"/>
        <pt x="299" y="703" on="1"/>
        <pt x="259" y="587" on="1"/>
        <pt x="150" y="284" on="1"/>
      </contour>
      <contour>
        <pt x="138" y="859" on="1"/>
        <pt x="159" y="881" on="0"/>
        <pt x="212" y="908" on="0"/>
        <pt x="238" y="908" on="1"/>
        <pt x="260" y="908" on="0"/>
        <pt x="295" y="895" on="0"/>
        <pt x="328" y="878" on="0"/>
        <pt x="361" y="865" on="0"/>
        <pt x="380" y="865" on="1"/>
        <pt x="400" y="865" on="0"/>
        <pt x="438" y="886" on="0"/>
        <pt x="454" y="904" on="1"/>
        <pt x="480" y="882" on="1"/>
        <pt x="462" y="859" on="0"/>
        <pt x="407" y="830" on="0"/>
        <pt x="378" y="830" on="1"/>
        <pt x="358" y="830" on="0"/>
        <pt x="323" y="843" on="0"/>
        <pt x="290" y="860" on="0"/>
        <pt x="257" y="873" on="0"/>
        <pt x="239" y="873" on="1"/>
        <pt x="219" y="873" on="0"/>
        <pt x="179" y="852" on="0"/>
        <pt x="162" y="835" on="1"/>
      </contour>
    </TTGlyph>
    <TTGlyph name="Atilde.sc" xMin="17" yMin="0" xMax="523" yMax="713">
      <contour>
        <pt x="17" y="5" on="1"/>
        <pt x="242" y="577" on="1"/>
        <pt x="298" y="577" on="1"/>
        <pt x="523" y="5" on="1"/>
        <pt x="523" y="0" on="1"/>
        <pt x="485" y="0" on="1"/>
        <pt x="411" y="188" on="1"/>
        <pt x="130" y="188" on="1"/>
        <pt x="55" y="0" on="1"/>
        <pt x="17" y="0" on="1"/>
      </contour>
      <contour>
        <pt x="398" y="222" on="1"/>
        <pt x="307" y="452" on="1"/>
        <pt x="272" y="544" on="1"/>
        <pt x="268" y="544" on="1"/>
        <pt x="233" y="452" on="1"/>
        <pt x="141" y="222" on="1"/>
      </contour>
      <contour>
        <pt x="128" y="670" on="1"/>
        <pt x="146" y="690" on="0"/>
        <pt x="193" y="713" on="0"/>
        <pt x="216" y="713" on="1"/>
        <pt x="234" y="713" on="0"/>
        <pt x="265" y="703" on="0"/>
        <pt x="294" y="690" on="0"/>
        <pt x="322" y="680" on="0"/>
        <pt x="339" y="680" on="1"/>
        <pt x="375" y="680" on="0"/>
        <pt x="405" y="710" on="1"/>
        <pt x="427" y="692" on="1"/>
        <pt x="410" y="672" on="0"/>
        <pt x="362" y="647" on="0"/>
        <pt x="336" y="647" on="1"/>
        <pt x="319" y="647" on="0"/>
        <pt x="289" y="658" on="0"/>
        <pt x="259" y="670" on="0"/>
        <pt x="230" y="681" on="0"/>
        <pt x="215" y="681" on="1"/>
        <pt x="180" y="681" on="0"/>
        <pt x="148" y="651" on="1"/>
      </contour>
    </TTGlyph>
    <TTGlyph name="B" xMin="93" yMin="-10" xMax="551" yMax="749">
      <contour>
        <pt x="294" y="-10" on="1"/>
        <pt x="249" y="-10" on="0"/>
        <pt x="139" y="-2" on="0"/>
        <pt x="93" y="5" on="1"/>
        <pt x="93" y="736" on="1"/>
        <pt x="127" y="739" on="0"/>
        <pt x="181" y="744" on="0"/>
        <pt x="226" y="747" on="0"/>
        <pt x="264" y="749" on="0"/>
        <pt x="284" y="749" on="1"/>
        <pt x="412" y="749" on="0"/>
        <pt x="527" y="656" on="0"/>
        <pt x="527" y="554" on="1"/>
        <pt x="527" y="483" on="0"/>
        <pt x="459" y="390" on="0"/>
        <pt x="401" y="379" on="1"/>
        <pt x="401" y="375" on="1"/>
        <pt x="473" y="363" on="0"/>
        <pt x="551" y="268" on="0"/>
        <pt x="551" y="191" on="1"/>
        <pt x="551" y="-10" on="0"/>
      </contour>
      <contour>
        <pt x="294" y="25" on="1"/>
        <pt x="406" y="25" on="0"/>
        <pt x="512" y="106" on="0"/>
        <pt x="512" y="191" on="1"/>
        <pt x="512" y="276" on="0"/>
        <pt x="409" y="357" on="0"/>
        <pt x="298" y="357" on="1"/>
        <pt x="130" y="357" on="1"/>
        <pt x="130" y="36" on="1"/>
        <pt x="142" y="34" on="0"/>
        <pt x="179" y="30" on="0"/>
        <pt x="223" y="27" on="0"/>
        <pt x="271" y="25" on="0"/>
      </contour>
      <contour>
        <pt x="297" y="393" on="1"/>
        <pt x="400" y="393" on="0"/>
        <pt x="488" y="467" on="0"/>
        <pt x="488" y="553" on="1"/>
        <pt x="488" y="638" on="0"/>
        <pt x="393" y="713" on="0"/>
        <pt x="285" y="713" on="1"/>
        <pt x="238" y="713" on="0"/>
        <pt x="165" y="709" on="0"/>
        <pt x="130" y="704" on="1"/>
        <pt x="130" y="393" on="1"/>
      </contour>
    </TTGlyph>
    <TTGlyph name="B.sc" xMin="87" yMin="-8" xMax="485" yMax="584">
      <contour>
        <pt x="261" y="-8" on="1"/>
        <pt x="223" y="-8" on="0"/>
        <pt x="129" y="-2" on="0"/>
        <pt x="87" y="4" on="1"/>
        <pt x="87" y="574" on="1"/>
        <pt x="116" y="577" on="0"/>
        <pt x="163" y="580" on="0"/>
        <pt x="202" y="583" on="0"/>
        <pt x="237" y="584" on="0"/>
        <pt x="254" y="584" on="1"/>
        <pt x="366" y="584" on="0"/>
        <pt x="465" y="512" on="0"/>
        <pt x="465" y="431" on="1"/>
        <pt x="465" y="377" on="0"/>
        <pt x="407" y="304" on="0"/>
        <pt x="357" y="295" on="1"/>
        <pt x="357" y="292" on="1"/>
        <pt x="419" y="282" on="0"/>
        <pt x="485" y="210" on="0"/>
        <pt x="485" y="150" on="1"/>
        <pt x="485" y="-8" on="0"/>
      </contour>
      <contour>
        <pt x="262" y="25" on="1"/>
        <pt x="356" y="25" on="0"/>
        <pt x="446" y="87" on="0"/>
        <pt x="446" y="151" on="1"/>
        <pt x="446" y="215" on="0"/>
        <pt x="360" y="275" on="0"/>
        <pt x="267" y="275" on="1"/>
        <pt x="124" y="275" on="1"/>
        <pt x="124" y="34" on="1"/>
        <pt x="144" y="30" on="0"/>
        <pt x="221" y="25" on="0"/>
      </contour>
      <contour>
        <pt x="266" y="309" on="1"/>
        <pt x="353" y="309" on="0"/>
        <pt x="426" y="365" on="0"/>
        <pt x="426" y="430" on="1"/>
        <pt x="426" y="495" on="0"/>
        <pt x="347" y="551" on="0"/>
        <pt x="255" y="551" on="1"/>
        <pt x="215" y="551" on="0"/>
        <pt x="153" y="548" on="0"/>
        <pt x="124" y="543" on="1"/>
        <pt x="124" y="309" on="1"/>
      </contour>
    </TTGlyph>
    <TTGlyph name="C" xMin="55" yMin="-9" xMax="508" yMax="749">
      <contour>
        <pt x="365" y="-9" on="1"/>
        <pt x="207" y="-7" on="0"/>
        <pt x="55" y="177" on="0"/>
        <pt x="55" y="369" on="1"/>
        <pt x="55" y="565" on="0"/>
        <pt x="208" y="749" on="0"/>
        <pt x="369" y="749" on="1"/>
        <pt x="398" y="749" on="0"/>
        <pt x="473" y="741" on="0"/>
        <pt x="508" y="734" on="1"/>
        <pt x="508" y="696" on="1"/>
        <pt x="475" y="704" on="0"/>
        <pt x="402" y="711" on="0"/>
        <pt x="371" y="711" on="1"/>
        <pt x="230" y="711" on="0"/>
        <pt x="95" y="544" on="0"/>
        <pt x="95" y="369" on="1"/>
        <pt x="95" y="29" on="0"/>
        <pt x="364" y="29" on="1"/>
        <pt x="376" y="29" on="0"/>
        <pt x="413" y="32" on="0"/>
        <pt x="454" y="36" on="0"/>
        <pt x="493" y="42" on="0"/>
        <pt x="508" y="45" on="1"/>
        <pt x="508" y="9" on="1"/>
        <pt x="478" y="1" on="0"/>
        <pt x="400" y="-9" on="0"/>
      </contour>
    </TTGlyph>
    <TTGlyph name="C.sc" xMin="55" yMin="-7" xMax="446" yMax="584">
      <contour>
        <pt x="320" y="-7" on="1"/>
        <pt x="185" y="-6" on="0"/>
        <pt x="55" y="139" on="0"/>
        <pt x="55" y="288" on="1"/>
        <pt x="55" y="440" on="0"/>
        <pt x="186" y="584" on="0"/>
        <pt x="323" y="584" on="1"/>
        <pt x="349" y="584" on="0"/>
        <pt x="416" y="577" on="0"/>
        <pt x="446" y="572" on="1"/>
        <pt x="446" y="536" on="1"/>
        <pt x="417" y="542" on="0"/>
        <pt x="352" y="549" on="0"/>
        <pt x="326" y="549" on="1"/>
        <pt x="208" y="549" on="0"/>
        <pt x="94" y="422" on="0"/>
        <pt x="94" y="288" on="1"/>
        <pt x="94" y="29" on="0"/>
        <pt x="320" y="29" on="1"/>
        <pt x="331" y="29" on="0"/>
        <pt x="364" y="31" on="0"/>
        <pt x="399" y="35" on="0"/>
        <pt x="433" y="39" on="0"/>
        <pt x="446" y="42" on="1"/>
        <pt x="446" y="8" on="1"/>
        <pt x="420" y="2" on="0"/>
        <pt x="350" y="-7" on="0"/>
      </contour>
    </TTGlyph>
    <TTGlyph name="Cacute" xMin="55" yMin="-9" xMax="508" yMax="922">
      <contour>
        <pt x="365" y="-9" on="1"/>
        <pt x="207" y="-7" on="0"/>
        <pt x="55" y="177" on="0"/>
        <pt x="55" y="369" on="1"/>
        <pt x="55" y="565" on="0"/>
        <pt x="208" y="749" on="0"/>
        <pt x="369" y="749" on="1"/>
        <pt x="398" y="749" on="0"/>
        <pt x="473" y="741" on="0"/>
        <pt x="508" y="734" on="1"/>
        <pt x="508" y="696" on="1"/>
        <pt x="475" y="704" on="0"/>
        <pt x="402" y="711" on="0"/>
        <pt x="371" y="711" on="1"/>
        <pt x="230" y="711" on="0"/>
        <pt x="95" y="544" on="0"/>
        <pt x="95" y="369" on="1"/>
        <pt x="95" y="29" on="0"/>
        <pt x="364" y="29" on="1"/>
        <pt x="376" y="29" on="0"/>
        <pt x="413" y="32" on="0"/>
        <pt x="454" y="36" on="0"/>
        <pt x="493" y="42" on="0"/>
        <pt x="508" y="45" on="1"/>
        <pt x="508" y="9" on="1"/>
        <pt x="478" y="1" on="0"/>
        <pt x="400" y="-9" on="0"/>
      </contour>
      <contour>
        <pt x="309" y="799" on="1"/>
        <pt x="388" y="922" on="1"/>
        <pt x="430" y="922" on="1"/>
        <pt x="344" y="794" on="1"/>
      </contour>
    </TTGlyph>
    <TTGlyph name="Cacute.sc" xMin="55" yMin="-7" xMax="446" yMax="723">
      <contour>
        <pt x="320" y="-7" on="1"/>
        <pt x="185" y="-6" on="0"/>
        <pt x="55" y="139" on="0"/>
        <pt x="55" y="288" on="1"/>
        <pt x="55" y="440" on="0"/>
        <pt x="186" y="584" on="0"/>
        <pt x="323" y="584" on="1"/>
        <pt x="349" y="584" on="0"/>
        <pt x="415" y="577" on="0"/>
        <pt x="446" y="572" on="1"/>
        <pt x="446" y="536" on="1"/>
        <pt x="416" y="542" on="0"/>
        <pt x="352" y="549" on="0"/>
        <pt x="326" y="549" on="1"/>
        <pt x="208" y="549" on="0"/>
        <pt x="94" y="422" on="0"/>
        <pt x="94" y="288" on="1"/>
        <pt x="94" y="29" on="0"/>
        <pt x="320" y="29" on="1"/>
        <pt x="331" y="29" on="0"/>
        <pt x="364" y="31" on="0"/>
        <pt x="399" y="35" on="0"/>
        <pt x="433" y="39" on="0"/>
        <pt x="446" y="42" on="1"/>
        <pt x="446" y="8" on="1"/>
        <pt x="420" y="2" on="0"/>
        <pt x="350" y="-7" on="0"/>
      </contour>
      <contour>
        <pt x="271" y="624" on="1"/>
        <pt x="338" y="723" on="1"/>
        <pt x="379" y="723" on="1"/>
        <pt x="304" y="621" on="1"/>
      </contour>
    </TTGlyph>
    <TTGlyph name="Ccaron" xMin="55" yMin="-9" xMax="508" yMax="924">
      <contour>
        <pt x="365" y="-9" on="1"/>
        <pt x="207" y="-7" on="0"/>
        <pt x="55" y="177" on="0"/>
        <pt x="55" y="369" on="1"/>
        <pt x="55" y="565" on="0"/>
        <pt x="208" y="749" on="0"/>
        <pt x="369" y="749" on="1"/>
        <pt x="398" y="749" on="0"/>
        <pt x="473" y="741" on="0"/>
        <pt x="508" y="734" on="1"/>
        <pt x="508" y="696" on="1"/>
        <pt x="475" y="704" on="0"/>
        <pt x="402" y="711" on="0"/>
        <pt x="371" y="711" on="1"/>
        <pt x="230" y="711" on="0"/>
        <pt x="95" y="544" on="0"/>
        <pt x="95" y="369" on="1"/>
        <pt x="95" y="29" on="0"/>
        <pt x="364" y="29" on="1"/>
        <pt x="376" y="29" on="0"/>
        <pt x="413" y="32" on="0"/>
        <pt x="454" y="36" on="0"/>
        <pt x="493" y="42" on="0"/>
        <pt x="508" y="45" on="1"/>
        <pt x="508" y="9" on="1"/>
        <pt x="478" y="1" on="0"/>
        <pt x="400" y="-9" on="0"/>
      </contour>
      <contour>
        <pt x="196" y="924" on="1"/>
        <pt x="334" y="852" on="1"/>
        <pt x="471" y="924" on="1"/>
        <pt x="471" y="881" on="1"/>
        <pt x="334" y="809" on="1"/>
        <pt x="196" y="881" on="1"/>
      </contour>
    </TTGlyph>
    <TTGlyph name="Ccaron.sc" xMin="55" yMin="-7" xMax="446" yMax="725">
      <contour>
        <pt x="320" y="-7" on="1"/>
        <pt x="185" y="-6" on="0"/>
        <pt x="55" y="139" on="0"/>
        <pt x="55" y="288" on="1"/>
        <pt x="55" y="440" on="0"/>
        <pt x="186" y="584" on="0"/>
        <pt x="323" y="584" on="1"/>
        <pt x="349" y="584" on="0"/>
        <pt x="415" y="577" on="0"/>
        <pt x="446" y="572" on="1"/>
        <pt x="446" y="536" on="1"/>
        <pt x="416" y="542" on="0"/>
        <pt x="352" y="549" on="0"/>
        <pt x="326" y="549" on="1"/>
        <pt x="208" y="549" on="0"/>
        <pt x="94" y="422" on="0"/>
        <pt x="94" y="288" on="1"/>
        <pt x="94" y="29" on="0"/>
        <pt x="320" y="29" on="1"/>
        <pt x="331" y="29" on="0"/>
        <pt x="364" y="31" on="0"/>
        <pt x="399" y="35" on="0"/>
        <pt x="433" y="39" on="0"/>
        <pt x="446" y="42" on="1"/>
        <pt x="446" y="8" on="1"/>
        <pt x="420" y="2" on="0"/>
        <pt x="350" y="-7" on="0"/>
      </contour>
      <contour>
        <pt x="174" y="725" on="1"/>
        <pt x="294" y="669" on="1"/>
        <pt x="414" y="725" on="1"/>
        <pt x="414" y="687" on="1"/>
        <pt x="294" y="631" on="1"/>
        <pt x="174" y="687" on="1"/>
      </contour>
    </TTGlyph>
    <TTGlyph name="Ccedilla" xMin="55" yMin="-220" xMax="508" yMax="749">
      <contour>
        <pt x="285" y="-220" on="1"/>
        <pt x="250" y="-220" on="0"/>
        <pt x="214" y="-209" on="1"/>
        <pt x="214" y="-172" on="1"/>
        <pt x="234" y="-178" on="0"/>
        <pt x="264" y="-183" on="0"/>
        <pt x="279" y="-183" on="1"/>
        <pt x="321" y="-183" on="0"/>
        <pt x="359" y="-147" on="0"/>
        <pt x="359" y="-108" on="1"/>
        <pt x="359" y="-85" on="0"/>
        <pt x="344" y="-37" on="0"/>
        <pt x="329" y="-7" on="1"/>
        <pt x="189" y="4" on="0"/>
        <pt x="55" y="189" on="0"/>
        <pt x="55" y="369" on="1"/>
        <pt x="55" y="565" on="0"/>
        <pt x="208" y="749" on="0"/>
        <pt x="369" y="749" on="1"/>
        <pt x="398" y="749" on="0"/>
        <pt x="473" y="741" on="0"/>
        <pt x="508" y="734" on="1"/>
        <pt x="508" y="696" on="1"/>
        <pt x="475" y="704" on="0"/>
        <pt x="402" y="711" on="0"/>
        <pt x="371" y="711" on="1"/>
        <pt x="230" y="711" on="0"/>
        <pt x="95" y="544" on="0"/>
        <pt x="95" y="369" on="1"/>
        <pt x="95" y="29" on="0"/>
        <pt x="364" y="29" on="1"/>
        <pt x="376" y="29" on="0"/>
        <pt x="413" y="32" on="0"/>
        <pt x="454" y="36" on="0"/>
        <pt x="493" y="42" on="0"/>
        <pt x="508" y="45" on="1"/>
        <pt x="508" y="9" on="1"/>
        <pt x="479" y="2" on="0"/>
        <pt x="403" y="-8" on="0"/>
        <pt x="369" y="-9" on="1"/>
        <pt x="384" y="-41" on="0"/>
        <pt x="397" y="-87" on="0"/>
        <pt x="397" y="-108" on="1"/>
        <pt x="397" y="-162" on="0"/>
        <pt x="339" y="-220" on="0"/>
      </contour>
    </TTGlyph>
    <TTGlyph name="Ccedilla.sc" xMin="55" yMin="-172" xMax="446" yMax="584">
      <contour>
        <pt x="254" y="-172" on="1"/>
        <pt x="240" y="-172" on="0"/>
        <pt x="208" y="-168" on="0"/>
        <pt x="191" y="-163" on="1"/>
        <pt x="191" y="-130" on="1"/>
        <pt x="216" y="-139" on="0"/>
        <pt x="246" y="-139" on="1"/>
        <pt x="283" y="-139" on="0"/>
        <pt x="314" y="-111" on="0"/>
        <pt x="314" y="-79" on="1"/>
        <pt x="314" y="-64" on="0"/>
        <pt x="303" y="-30" on="0"/>
        <pt x="289" y="-5" on="1"/>
        <pt x="170" y="3" on="0"/>
        <pt x="55" y="147" on="0"/>
        <pt x="55" y="288" on="1"/>
        <pt x="55" y="440" on="0"/>
        <pt x="186" y="584" on="0"/>
        <pt x="323" y="584" on="1"/>
        <pt x="349" y="584" on="0"/>
        <pt x="415" y="577" on="0"/>
        <pt x="446" y="572" on="1"/>
        <pt x="446" y="536" on="1"/>
        <pt x="416" y="542" on="0"/>
        <pt x="352" y="549" on="0"/>
        <pt x="326" y="549" on="1"/>
        <pt x="208" y="549" on="0"/>
        <pt x="94" y="422" on="0"/>
        <pt x="94" y="288" on="1"/>
        <pt x="94" y="29" on="0"/>
        <pt x="320" y="29" on="1"/>
        <pt x="331" y="29" on="0"/>
        <pt x="364" y="31" on="0"/>
        <pt x="399" y="35" on="0"/>
        <pt x="433" y="39" on="0"/>
        <pt x="446" y="42" on="1"/>
        <pt x="446" y="8" on="1"/>
        <pt x="420" y="2" on="0"/>
        <pt x="354" y="-7" on="0"/>
        <pt x="325" y="-6" on="1"/>
        <pt x="339" y="-31" on="0"/>
        <pt x="350" y="-66" on="0"/>
        <pt x="350" y="-83" on="1"/>
        <pt x="350" y="-126" on="0"/>
        <pt x="301" y="-172" on="0"/>
      </contour>
    </TTGlyph>
    <TTGlyph name="Ccircumflex" xMin="55" yMin="-9" xMax="508" yMax="934">
      <contour>
        <pt x="365" y="-9" on="1"/>
        <pt x="207" y="-7" on="0"/>
        <pt x="55" y="177" on="0"/>
        <pt x="55" y="369" on="1"/>
        <pt x="55" y="565" on="0"/>
        <pt x="208" y="749" on="0"/>
        <pt x="369" y="749" on="1"/>
        <pt x="398" y="749" on="0"/>
        <pt x="473" y="741" on="0"/>
        <pt x="508" y="734" on="1"/>
        <pt x="508" y="696" on="1"/>
        <pt x="475" y="704" on="0"/>
        <pt x="402" y="711" on="0"/>
        <pt x="371" y="711" on="1"/>
        <pt x="230" y="711" on="0"/>
        <pt x="95" y="544" on="0"/>
        <pt x="95" y="369" on="1"/>
        <pt x="95" y="29" on="0"/>
        <pt x="364" y="29" on="1"/>
        <pt x="376" y="29" on="0"/>
        <pt x="413" y="32" on="0"/>
        <pt x="454" y="36" on="0"/>
        <pt x="493" y="42" on="0"/>
        <pt x="508" y="45" on="1"/>
        <pt x="508" y="9" on="1"/>
        <pt x="478" y="1" on="0"/>
        <pt x="400" y="-9" on="0"/>
      </contour>
      <contour>
        <pt x="194" y="862" on="1"/>
        <pt x="332" y="934" on="1"/>
        <pt x="469" y="862" on="1"/>
        <pt x="469" y="818" on="1"/>
        <pt x="332" y="890" on="1"/>
        <pt x="194" y="818" on="1"/>
      </contour>
    </TTGlyph>
    <TTGlyph name="Ccircumflex.sc" xMin="55" yMin="-7" xMax="446" yMax="732">
      <contour>
        <pt x="320" y="-7" on="1"/>
        <pt x="185" y="-6" on="0"/>
        <pt x="55" y="139" on="0"/>
        <pt x="55" y="288" on="1"/>
        <pt x="55" y="440" on="0"/>
        <pt x="186" y="584" on="0"/>
        <pt x="323" y="584" on="1"/>
        <pt x="349" y="584" on="0"/>
        <pt x="415" y="577" on="0"/>
        <pt x="446" y="572" on="1"/>
        <pt x="446" y="536" on="1"/>
        <pt x="416" y="542" on="0"/>
        <pt x="352" y="549" on="0"/>
        <pt x="326" y="549" on="1"/>
        <pt x="208" y="549" on="0"/>
        <pt x="94" y="422" on="0"/>
        <pt x="94" y="288" on="1"/>
        <pt x="94" y="29" on="0"/>
        <pt x="320" y="29" on="1"/>
        <pt x="331" y="29" on="0"/>
        <pt x="364" y="31" on="0"/>
        <pt x="399" y="35" on="0"/>
        <pt x="433" y="39" on="0"/>
        <pt x="446" y="42" on="1"/>
        <pt x="446" y="8" on="1"/>
        <pt x="420" y="2" on="0"/>
        <pt x="350" y="-7" on="0"/>
      </contour>
      <contour>
        <pt x="172" y="675" on="1"/>
        <pt x="293" y="732" on="1"/>
        <pt x="413" y="675" on="1"/>
        <pt x="413" y="637" on="1"/>
        <pt x="293" y="693" on="1"/>
        <pt x="172" y="637" on="1"/>
      </contour>
    </TTGlyph>
    <TTGlyph name="Cdotaccent" xMin="55" yMin="-9" xMax="508" yMax="879">
      <contour>
        <pt x="332" y="813" on="1"/>
        <pt x="318" y="813" on="0"/>
        <pt x="299" y="829" on="0"/>
        <pt x="299" y="846" on="1"/>
        <pt x="299" y="863" on="0"/>
        <pt x="318" y="879" on="0"/>
        <pt x="332" y="879" on="1"/>
        <pt x="346" y="879" on="0"/>
        <pt x="366" y="863" on="0"/>
        <pt x="366" y="846" on="1"/>
        <pt x="366" y="829" on="0"/>
        <pt x="346" y="813" on="0"/>
      </contour>
      <contour>
        <pt x="365" y="-9" on="1"/>
        <pt x="207" y="-7" on="0"/>
        <pt x="55" y="177" on="0"/>
        <pt x="55" y="369" on="1"/>
        <pt x="55" y="565" on="0"/>
        <pt x="208" y="749" on="0"/>
        <pt x="369" y="749" on="1"/>
        <pt x="398" y="749" on="0"/>
        <pt x="473" y="741" on="0"/>
        <pt x="508" y="734" on="1"/>
        <pt x="508" y="696" on="1"/>
        <pt x="475" y="704" on="0"/>
        <pt x="402" y="711" on="0"/>
        <pt x="371" y="711" on="1"/>
        <pt x="230" y="711" on="0"/>
        <pt x="95" y="544" on="0"/>
        <pt x="95" y="369" on="1"/>
        <pt x="95" y="29" on="0"/>
        <pt x="364" y="29" on="1"/>
        <pt x="376" y="29" on="0"/>
        <pt x="413" y="32" on="0"/>
        <pt x="454" y="36" on="0"/>
        <pt x="493" y="42" on="0"/>
        <pt x="508" y="45" on="1"/>
        <pt x="508" y="9" on="1"/>
        <pt x="478" y="1" on="0"/>
        <pt x="400" y="-9" on="0"/>
      </contour>
    </TTGlyph>
    <TTGlyph name="Cdotaccent.sc" xMin="55" yMin="-7" xMax="446" yMax="693">
      <contour>
        <pt x="320" y="-7" on="1"/>
        <pt x="185" y="-6" on="0"/>
        <pt x="55" y="139" on="0"/>
        <pt x="55" y="288" on="1"/>
        <pt x="55" y="440" on="0"/>
        <pt x="186" y="584" on="0"/>
        <pt x="323" y="584" on="1"/>
        <pt x="349" y="584" on="0"/>
        <pt x="415" y="577" on="0"/>
        <pt x="446" y="572" on="1"/>
        <pt x="446" y="536" on="1"/>
        <pt x="416" y="542" on="0"/>
        <pt x="352" y="549" on="0"/>
        <pt x="326" y="549" on="1"/>
        <pt x="208" y="549" on="0"/>
        <pt x="94" y="422" on="0"/>
        <pt x="94" y="288" on="1"/>
        <pt x="94" y="29" on="0"/>
        <pt x="320" y="29" on="1"/>
        <pt x="331" y="29" on="0"/>
        <pt x="364" y="31" on="0"/>
        <pt x="399" y="35" on="0"/>
        <pt x="433" y="39" on="0"/>
        <pt x="446" y="42" on="1"/>
        <pt x="446" y="8" on="1"/>
        <pt x="420" y="2" on="0"/>
        <pt x="350" y="-7" on="0"/>
      </contour>
      <contour>
        <pt x="293" y="635" on="1"/>
        <pt x="279" y="635" on="0"/>
        <pt x="263" y="648" on="0"/>
        <pt x="263" y="664" on="1"/>
        <pt x="263" y="679" on="0"/>
        <pt x="279" y="693" on="0"/>
        <pt x="293" y="693" on="1"/>
        <pt x="306" y="693" on="0"/>
        <pt x="325" y="680" on="0"/>
        <pt x="325" y="664" on="1"/>
        <pt x="325" y="648" on="0"/>
        <pt x="306" y="635" on="0"/>
      </contour>
    </TTGlyph>
    <TTGlyph name="D" xMin="93" yMin="-13" xMax="600" yMax="749">
      <contour>
        <pt x="240" y="-13" on="1"/>
        <pt x="194" y="-13" on="0"/>
        <pt x="116" y="-7" on="0"/>
        <pt x="93" y="-1" on="1"/>
        <pt x="93" y="736" on="1"/>
        <pt x="112" y="739" on="0"/>
        <pt x="158" y="744" on="0"/>
        <pt x="203" y="747" on="0"/>
        <pt x="246" y="749" on="0"/>
        <pt x="262" y="749" on="1"/>
        <pt x="436" y="749" on="0"/>
        <pt x="600" y="564" on="0"/>
        <pt x="600" y="370" on="1"/>
        <pt x="600" y="173" on="0"/>
        <pt x="426" y="-13" on="0"/>
      </contour>
      <contour>
        <pt x="244" y="24" on="1"/>
        <pt x="405" y="24" on="0"/>
        <pt x="561" y="194" on="0"/>
        <pt x="561" y="370" on="1"/>
        <pt x="561" y="547" on="0"/>
        <pt x="416" y="711" on="0"/>
        <pt x="260" y="711" on="1"/>
        <pt x="232" y="711" on="0"/>
        <pt x="160" y="707" on="0"/>
        <pt x="131" y="703" on="1"/>
        <pt x="131" y="32" on="1"/>
        <pt x="165" y="27" on="0"/>
        <pt x="215" y="24" on="0"/>
      </contour>
    </TTGlyph>
    <TTGlyph name="D.sc" xMin="87" yMin="-10" xMax="530" yMax="584">
      <contour>
        <pt x="219" y="-10" on="1"/>
        <pt x="177" y="-10" on="0"/>
        <pt x="107" y="-4" on="0"/>
        <pt x="87" y="1" on="1"/>
        <pt x="87" y="575" on="1"/>
        <pt x="121" y="579" on="0"/>
        <pt x="206" y="584" on="0"/>
        <pt x="235" y="584" on="1"/>
        <pt x="387" y="584" on="0"/>
        <pt x="530" y="441" on="0"/>
        <pt x="530" y="288" on="1"/>
        <pt x="530" y="134" on="0"/>
        <pt x="379" y="-10" on="0"/>
      </contour>
      <contour>
        <pt x="224" y="25" on="1"/>
        <pt x="361" y="25" on="0"/>
        <pt x="491" y="154" on="0"/>
        <pt x="491" y="288" on="1"/>
        <pt x="491" y="423" on="0"/>
        <pt x="368" y="549" on="0"/>
        <pt x="235" y="549" on="1"/>
        <pt x="212" y="549" on="0"/>
        <pt x="149" y="545" on="0"/>
        <pt x="125" y="542" on="1"/>
        <pt x="125" y="32" on="1"/>
        <pt x="155" y="28" on="0"/>
        <pt x="198" y="25" on="0"/>
      </contour>
    </TTGlyph>
    <TTGlyph name="Dcaron" xMin="93" yMin="-13" xMax="600" yMax="924">
      <contour>
        <pt x="159" y="924" on="1"/>
        <pt x="297" y="852" on="1"/>
        <pt x="434" y="924" on="1"/>
        <pt x="434" y="881" on="1"/>
        <pt x="297" y="809" on="1"/>
        <pt x="159" y="881" on="1"/>
      </contour>
      <contour>
        <pt x="240" y="-13" on="1"/>
        <pt x="194" y="-13" on="0"/>
        <pt x="116" y="-7" on="0"/>
        <pt x="93" y="-1" on="1"/>
        <pt x="93" y="736" on="1"/>
        <pt x="112" y="739" on="0"/>
        <pt x="158" y="744" on="0"/>
        <pt x="203" y="747" on="0"/>
        <pt x="246" y="749" on="0"/>
        <pt x="262" y="749" on="1"/>
        <pt x="436" y="749" on="0"/>
        <pt x="600" y="564" on="0"/>
        <pt x="600" y="370" on="1"/>
        <pt x="600" y="173" on="0"/>
        <pt x="426" y="-13" on="0"/>
      </contour>
      <contour>
        <pt x="244" y="24" on="1"/>
        <pt x="405" y="24" on="0"/>
        <pt x="561" y="194" on="0"/>
        <pt x="561" y="370" on="1"/>
        <pt x="561" y="547" on="0"/>
        <pt x="416" y="711" on="0"/>
        <pt x="260" y="711" on="1"/>
        <pt x="232" y="711" on="0"/>
        <pt x="160" y="707" on="0"/>
        <pt x="131" y="703" on="1"/>
        <pt x="131" y="32" on="1"/>
        <pt x="165" y="27" on="0"/>
        <pt x="215" y="24" on="0"/>
      </contour>
    </TTGlyph>
    <TTGlyph name="Dcaron.sc" xMin="87" yMin="-10" xMax="530" yMax="725">
      <contour>
        <pt x="219" y="-10" on="1"/>
        <pt x="177" y="-10" on="0"/>
        <pt x="107" y="-4" on="0"/>
        <pt x="87" y="1" on="1"/>
        <pt x="87" y="575" on="1"/>
        <pt x="121" y="579" on="0"/>
        <pt x="206" y="584" on="0"/>
        <pt x="235" y="584" on="1"/>
        <pt x="387" y="584" on="0"/>
        <pt x="530" y="441" on="0"/>
        <pt x="530" y="288" on="1"/>
        <pt x="530" y="134" on="0"/>
        <pt x="379" y="-10" on="0"/>
      </contour>
      <contour>
        <pt x="224" y="25" on="1"/>
        <pt x="361" y="25" on="0"/>
        <pt x="491" y="154" on="0"/>
        <pt x="491" y="288" on="1"/>
        <pt x="491" y="423" on="0"/>
        <pt x="368" y="549" on="0"/>
        <pt x="235" y="549" on="1"/>
        <pt x="212" y="549" on="0"/>
        <pt x="149" y="545" on="0"/>
        <pt x="125" y="542" on="1"/>
        <pt x="125" y="32" on="1"/>
        <pt x="155" y="28" on="0"/>
        <pt x="198" y="25" on="0"/>
      </contour>
      <contour>
        <pt x="145" y="687" on="1"/>
        <pt x="145" y="725" on="1"/>
        <pt x="266" y="669" on="1"/>
        <pt x="386" y="725" on="1"/>
        <pt x="386" y="687" on="1"/>
        <pt x="266" y="631" on="1"/>
      </contour>
    </TTGlyph>
    <TTGlyph name="Dcroat" xMin="3" yMin="-13" xMax="607" yMax="749">
      <contour>
        <pt x="3" y="387" on="1"/>
        <pt x="100" y="387" on="1"/>
        <pt x="100" y="736" on="1"/>
        <pt x="119" y="739" on="0"/>
        <pt x="165" y="744" on="0"/>
        <pt x="210" y="747" on="0"/>
        <pt x="253" y="749" on="0"/>
        <pt x="269" y="749" on="1"/>
        <pt x="443" y="749" on="0"/>
        <pt x="607" y="564" on="0"/>
        <pt x="607" y="370" on="1"/>
        <pt x="607" y="173" on="0"/>
        <pt x="433" y="-13" on="0"/>
        <pt x="247" y="-13" on="1"/>
        <pt x="201" y="-13" on="0"/>
        <pt x="123" y="-7" on="0"/>
        <pt x="100" y="-1" on="1"/>
        <pt x="100" y="350" on="1"/>
        <pt x="3" y="350" on="1"/>
      </contour>
      <contour>
        <pt x="251" y="24" on="1"/>
        <pt x="412" y="24" on="0"/>
        <pt x="568" y="194" on="0"/>
        <pt x="568" y="370" on="1"/>
        <pt x="568" y="547" on="0"/>
        <pt x="423" y="711" on="0"/>
        <pt x="267" y="711" on="1"/>
        <pt x="239" y="711" on="0"/>
        <pt x="167" y="707" on="0"/>
        <pt x="138" y="703" on="1"/>
        <pt x="138" y="387" on="1"/>
        <pt x="334" y="387" on="1"/>
        <pt x="334" y="350" on="1"/>
        <pt x="138" y="350" on="1"/>
        <pt x="138" y="32" on="1"/>
        <pt x="172" y="27" on="0"/>
        <pt x="222" y="24" on="0"/>
      </contour>
    </TTGlyph>
    <TTGlyph name="Dcroat.sc" xMin="11" yMin="-10" xMax="536" yMax="584">
      <contour>
        <pt x="11" y="304" on="1"/>
        <pt x="93" y="304" on="1"/>
        <pt x="93" y="575" on="1"/>
        <pt x="109" y="577" on="0"/>
        <pt x="149" y="580" on="0"/>
        <pt x="190" y="583" on="0"/>
        <pt x="228" y="584" on="0"/>
        <pt x="242" y="584" on="1"/>
        <pt x="393" y="584" on="0"/>
        <pt x="536" y="440" on="0"/>
        <pt x="536" y="288" on="1"/>
        <pt x="536" y="134" on="0"/>
        <pt x="385" y="-10" on="0"/>
        <pt x="224" y="-10" on="1"/>
        <pt x="183" y="-10" on="0"/>
        <pt x="113" y="-4" on="0"/>
        <pt x="93" y="1" on="1"/>
        <pt x="93" y="270" on="1"/>
        <pt x="11" y="270" on="1"/>
      </contour>
      <contour>
        <pt x="230" y="25" on="1"/>
        <pt x="367" y="25" on="0"/>
        <pt x="497" y="154" on="0"/>
        <pt x="497" y="288" on="1"/>
        <pt x="497" y="424" on="0"/>
        <pt x="375" y="549" on="0"/>
        <pt x="242" y="549" on="1"/>
        <pt x="218" y="549" on="0"/>
        <pt x="156" y="545" on="0"/>
        <pt x="131" y="542" on="1"/>
        <pt x="131" y="304" on="1"/>
        <pt x="297" y="304" on="1"/>
        <pt x="297" y="270" on="1"/>
        <pt x="131" y="270" on="1"/>
        <pt x="131" y="32" on="1"/>
        <pt x="161" y="28" on="0"/>
        <pt x="204" y="25" on="0"/>
      </contour>
    </TTGlyph>
    <TTGlyph name="Ddotbelow" xMin="93" yMin="-166" xMax="600" yMax="749">
      <contour>
        <pt x="305" y="-166" on="1"/>
        <pt x="288" y="-166" on="0"/>
        <pt x="268" y="-149" on="0"/>
        <pt x="268" y="-129" on="1"/>
        <pt x="268" y="-109" on="0"/>
        <pt x="288" y="-92" on="0"/>
        <pt x="305" y="-92" on="1"/>
        <pt x="321" y="-92" on="0"/>
        <pt x="343" y="-109" on="0"/>
        <pt x="343" y="-129" on="1"/>
        <pt x="343" y="-149" on="0"/>
        <pt x="321" y="-166" on="0"/>
      </contour>
      <contour>
        <pt x="240" y="-13" on="1"/>
        <pt x="194" y="-13" on="0"/>
        <pt x="116" y="-7" on="0"/>
        <pt x="93" y="-1" on="1"/>
        <pt x="93" y="736" on="1"/>
        <pt x="112" y="739" on="0"/>
        <pt x="158" y="744" on="0"/>
        <pt x="203" y="747" on="0"/>
        <pt x="246" y="749" on="0"/>
        <pt x="262" y="749" on="1"/>
        <pt x="436" y="749" on="0"/>
        <pt x="600" y="564" on="0"/>
        <pt x="600" y="370" on="1"/>
        <pt x="600" y="173" on="0"/>
        <pt x="426" y="-13" on="0"/>
      </contour>
      <contour>
        <pt x="244" y="24" on="1"/>
        <pt x="405" y="24" on="0"/>
        <pt x="561" y="194" on="0"/>
        <pt x="561" y="370" on="1"/>
        <pt x="561" y="547" on="0"/>
        <pt x="416" y="711" on="0"/>
        <pt x="260" y="711" on="1"/>
        <pt x="232" y="711" on="0"/>
        <pt x="160" y="707" on="0"/>
        <pt x="131" y="703" on="1"/>
        <pt x="131" y="32" on="1"/>
        <pt x="165" y="27" on="0"/>
        <pt x="215" y="24" on="0"/>
      </contour>
    </TTGlyph>
    <TTGlyph name="Ddotbelow.sc" xMin="87" yMin="-133" xMax="530" yMax="584">
      <contour>
        <pt x="219" y="-10" on="1"/>
        <pt x="177" y="-10" on="0"/>
        <pt x="107" y="-4" on="0"/>
        <pt x="87" y="1" on="1"/>
        <pt x="87" y="575" on="1"/>
        <pt x="121" y="579" on="0"/>
        <pt x="206" y="584" on="0"/>
        <pt x="235" y="584" on="1"/>
        <pt x="387" y="584" on="0"/>
        <pt x="530" y="441" on="0"/>
        <pt x="530" y="288" on="1"/>
        <pt x="530" y="134" on="0"/>
        <pt x="379" y="-10" on="0"/>
      </contour>
      <contour>
        <pt x="224" y="25" on="1"/>
        <pt x="361" y="25" on="0"/>
        <pt x="491" y="154" on="0"/>
        <pt x="491" y="288" on="1"/>
        <pt x="491" y="423" on="0"/>
        <pt x="368" y="549" on="0"/>
        <pt x="235" y="549" on="1"/>
        <pt x="212" y="549" on="0"/>
        <pt x="149" y="545" on="0"/>
        <pt x="125" y="542" on="1"/>
        <pt x="125" y="32" on="1"/>
        <pt x="155" y="28" on="0"/>
        <pt x="198" y="25" on="0"/>
      </contour>
      <contour>
        <pt x="273" y="-133" on="1"/>
        <pt x="258" y="-133" on="0"/>
        <pt x="240" y="-119" on="0"/>
        <pt x="240" y="-102" on="1"/>
        <pt x="240" y="-85" on="0"/>
        <pt x="258" y="-70" on="0"/>
        <pt x="273" y="-70" on="1"/>
        <pt x="288" y="-70" on="0"/>
        <pt x="307" y="-85" on="0"/>
        <pt x="307" y="-102" on="1"/>
        <pt x="307" y="-119" on="0"/>
        <pt x="288" y="-133" on="0"/>
      </contour>
    </TTGlyph>
    <TTGlyph name="Delta" xMin="24" yMin="0" xMax="622" yMax="740">
      <contour>
        <pt x="298" y="740" on="1"/>
        <pt x="348" y="740" on="1"/>
        <pt x="622" y="0" on="1"/>
        <pt x="24" y="0" on="1"/>
      </contour>
      <contour>
        <pt x="568" y="37" on="1"/>
        <pt x="323" y="699" on="1"/>
        <pt x="77" y="37" on="1"/>
      </contour>
    </TTGlyph>
    <TTGlyph name="E" xMin="93" yMin="0" xMax="507" yMax="740">
      <contour>
        <pt x="93" y="740" on="1"/>
        <pt x="499" y="740" on="1"/>
        <pt x="499" y="703" on="1"/>
        <pt x="131" y="703" on="1"/>
        <pt x="131" y="395" on="1"/>
        <pt x="474" y="395" on="1"/>
        <pt x="474" y="358" on="1"/>
        <pt x="131" y="358" on="1"/>
        <pt x="131" y="37" on="1"/>
        <pt x="507" y="37" on="1"/>
        <pt x="507" y="0" on="1"/>
        <pt x="93" y="0" on="1"/>
      </contour>
    </TTGlyph>
    <TTGlyph name="E.sc" xMin="88" yMin="0" xMax="449" yMax="577">
      <contour>
        <pt x="88" y="577" on="1"/>
        <pt x="442" y="577" on="1"/>
        <pt x="442" y="542" on="1"/>
        <pt x="126" y="542" on="1"/>
        <pt x="126" y="311" on="1"/>
        <pt x="420" y="311" on="1"/>
        <pt x="420" y="277" on="1"/>
        <pt x="126" y="277" on="1"/>
        <pt x="126" y="35" on="1"/>
        <pt x="449" y="35" on="1"/>
        <pt x="449" y="0" on="1"/>
        <pt x="88" y="0" on="1"/>
      </contour>
    </TTGlyph>
    <TTGlyph name="Eacute" xMin="93" yMin="0" xMax="507" yMax="922">
      <contour>
        <pt x="274" y="799" on="1"/>
        <pt x="353" y="922" on="1"/>
        <pt x="395" y="922" on="1"/>
        <pt x="309" y="794" on="1"/>
      </contour>
      <contour>
        <pt x="93" y="740" on="1"/>
        <pt x="499" y="740" on="1"/>
        <pt x="499" y="703" on="1"/>
        <pt x="131" y="703" on="1"/>
        <pt x="131" y="395" on="1"/>
        <pt x="474" y="395" on="1"/>
        <pt x="474" y="358" on="1"/>
        <pt x="131" y="358" on="1"/>
        <pt x="131" y="37" on="1"/>
        <pt x="507" y="37" on="1"/>
        <pt x="507" y="0" on="1"/>
        <pt x="93" y="0" on="1"/>
      </contour>
    </TTGlyph>
    <TTGlyph name="Eacute.sc" xMin="88" yMin="0" xMax="449" yMax="723">
      <contour>
        <pt x="88" y="577" on="1"/>
        <pt x="442" y="577" on="1"/>
        <pt x="442" y="542" on="1"/>
        <pt x="126" y="542" on="1"/>
        <pt x="126" y="311" on="1"/>
        <pt x="420" y="311" on="1"/>
        <pt x="420" y="277" on="1"/>
        <pt x="126" y="277" on="1"/>
        <pt x="126" y="35" on="1"/>
        <pt x="449" y="35" on="1"/>
        <pt x="449" y="0" on="1"/>
        <pt x="88" y="0" on="1"/>
      </contour>
      <contour>
        <pt x="244" y="624" on="1"/>
        <pt x="310" y="723" on="1"/>
        <pt x="352" y="723" on="1"/>
        <pt x="277" y="621" on="1"/>
      </contour>
    </TTGlyph>
    <TTGlyph name="Ebreve" xMin="93" yMin="0" xMax="507" yMax="949">
      <contour>
        <pt x="297" y="816" on="1"/>
        <pt x="225" y="816" on="0"/>
        <pt x="145" y="886" on="0"/>
        <pt x="145" y="949" on="1"/>
        <pt x="182" y="949" on="1"/>
        <pt x="182" y="903" on="0"/>
        <pt x="243" y="851" on="0"/>
        <pt x="297" y="851" on="1"/>
        <pt x="351" y="851" on="0"/>
        <pt x="412" y="903" on="0"/>
        <pt x="412" y="949" on="1"/>
        <pt x="449" y="949" on="1"/>
        <pt x="449" y="886" on="0"/>
        <pt x="368" y="816" on="0"/>
      </contour>
      <contour>
        <pt x="93" y="740" on="1"/>
        <pt x="499" y="740" on="1"/>
        <pt x="499" y="703" on="1"/>
        <pt x="131" y="703" on="1"/>
        <pt x="131" y="395" on="1"/>
        <pt x="474" y="395" on="1"/>
        <pt x="474" y="358" on="1"/>
        <pt x="131" y="358" on="1"/>
        <pt x="131" y="37" on="1"/>
        <pt x="507" y="37" on="1"/>
        <pt x="507" y="0" on="1"/>
        <pt x="93" y="0" on="1"/>
      </contour>
    </TTGlyph>
    <TTGlyph name="Ebreve.sc" xMin="88" yMin="0" xMax="449" yMax="742">
      <contour>
        <pt x="265" y="635" on="1"/>
        <pt x="202" y="635" on="0"/>
        <pt x="133" y="692" on="0"/>
        <pt x="133" y="742" on="1"/>
        <pt x="167" y="742" on="1"/>
        <pt x="167" y="706" on="0"/>
        <pt x="219" y="666" on="0"/>
        <pt x="265" y="666" on="1"/>
        <pt x="312" y="666" on="0"/>
        <pt x="364" y="706" on="0"/>
        <pt x="364" y="742" on="1"/>
        <pt x="398" y="742" on="1"/>
        <pt x="398" y="692" on="0"/>
        <pt x="328" y="635" on="0"/>
      </contour>
      <contour>
        <pt x="88" y="577" on="1"/>
        <pt x="442" y="577" on="1"/>
        <pt x="442" y="542" on="1"/>
        <pt x="126" y="542" on="1"/>
        <pt x="126" y="311" on="1"/>
        <pt x="420" y="311" on="1"/>
        <pt x="420" y="277" on="1"/>
        <pt x="126" y="277" on="1"/>
        <pt x="126" y="35" on="1"/>
        <pt x="449" y="35" on="1"/>
        <pt x="449" y="0" on="1"/>
        <pt x="88" y="0" on="1"/>
      </contour>
    </TTGlyph>
    <TTGlyph name="Ecaron" xMin="93" yMin="0" xMax="507" yMax="924">
      <contour>
        <pt x="161" y="924" on="1"/>
        <pt x="299" y="852" on="1"/>
        <pt x="436" y="924" on="1"/>
        <pt x="436" y="881" on="1"/>
        <pt x="299" y="809" on="1"/>
        <pt x="161" y="881" on="1"/>
      </contour>
      <contour>
        <pt x="93" y="740" on="1"/>
        <pt x="499" y="740" on="1"/>
        <pt x="499" y="703" on="1"/>
        <pt x="131" y="703" on="1"/>
        <pt x="131" y="395" on="1"/>
        <pt x="474" y="395" on="1"/>
        <pt x="474" y="358" on="1"/>
        <pt x="131" y="358" on="1"/>
        <pt x="131" y="37" on="1"/>
        <pt x="507" y="37" on="1"/>
        <pt x="507" y="0" on="1"/>
        <pt x="93" y="0" on="1"/>
      </contour>
    </TTGlyph>
    <TTGlyph name="Ecaron.sc" xMin="88" yMin="0" xMax="449" yMax="725">
      <contour>
        <pt x="88" y="577" on="1"/>
        <pt x="442" y="577" on="1"/>
        <pt x="442" y="542" on="1"/>
        <pt x="126" y="542" on="1"/>
        <pt x="126" y="311" on="1"/>
        <pt x="420" y="311" on="1"/>
        <pt x="420" y="277" on="1"/>
        <pt x="126" y="277" on="1"/>
        <pt x="126" y="35" on="1"/>
        <pt x="449" y="35" on="1"/>
        <pt x="449" y="0" on="1"/>
        <pt x="88" y="0" on="1"/>
      </contour>
      <contour>
        <pt x="147" y="687" on="1"/>
        <pt x="147" y="725" on="1"/>
        <pt x="267" y="669" on="1"/>
        <pt x="387" y="725" on="1"/>
        <pt x="387" y="687" on="1"/>
        <pt x="267" y="631" on="1"/>
      </contour>
    </TTGlyph>
    <TTGlyph name="Ecircumflex" xMin="93" yMin="0" xMax="507" yMax="934">
      <contour>
        <pt x="93" y="740" on="1"/>
        <pt x="499" y="740" on="1"/>
        <pt x="499" y="703" on="1"/>
        <pt x="131" y="703" on="1"/>
        <pt x="131" y="395" on="1"/>
        <pt x="474" y="395" on="1"/>
        <pt x="474" y="358" on="1"/>
        <pt x="131" y="358" on="1"/>
        <pt x="131" y="37" on="1"/>
        <pt x="507" y="37" on="1"/>
        <pt x="507" y="0" on="1"/>
        <pt x="93" y="0" on="1"/>
      </contour>
      <contour>
        <pt x="159" y="862" on="1"/>
        <pt x="297" y="934" on="1"/>
        <pt x="434" y="862" on="1"/>
        <pt x="434" y="818" on="1"/>
        <pt x="297" y="890" on="1"/>
        <pt x="159" y="818" on="1"/>
      </contour>
    </TTGlyph>
    <TTGlyph name="Ecircumflex.sc" xMin="88" yMin="0" xMax="449" yMax="732">
      <contour>
        <pt x="88" y="577" on="1"/>
        <pt x="442" y="577" on="1"/>
        <pt x="442" y="542" on="1"/>
        <pt x="126" y="542" on="1"/>
        <pt x="126" y="311" on="1"/>
        <pt x="420" y="311" on="1"/>
        <pt x="420" y="277" on="1"/>
        <pt x="126" y="277" on="1"/>
        <pt x="126" y="35" on="1"/>
        <pt x="449" y="35" on="1"/>
        <pt x="449" y="0" on="1"/>
        <pt x="88" y="0" on="1"/>
      </contour>
      <contour>
        <pt x="146" y="675" on="1"/>
        <pt x="266" y="732" on="1"/>
        <pt x="386" y="675" on="1"/>
        <pt x="386" y="637" on="1"/>
        <pt x="266" y="693" on="1"/>
        <pt x="146" y="637" on="1"/>
      </contour>
    </TTGlyph>
    <TTGlyph name="Edblgrave" xMin="93" yMin="0" xMax="507" yMax="917">
      <contour>
        <pt x="93" y="740" on="1"/>
        <pt x="499" y="740" on="1"/>
        <pt x="499" y="703" on="1"/>
        <pt x="131" y="703" on="1"/>
        <pt x="131" y="395" on="1"/>
        <pt x="474" y="395" on="1"/>
        <pt x="474" y="358" on="1"/>
        <pt x="131" y="358" on="1"/>
        <pt x="131" y="37" on="1"/>
        <pt x="507" y="37" on="1"/>
        <pt x="507" y="0" on="1"/>
        <pt x="93" y="0" on="1"/>
      </contour>
      <contour>
        <pt x="216" y="789" on="1"/>
        <pt x="130" y="917" on="1"/>
        <pt x="172" y="917" on="1"/>
        <pt x="250" y="803" on="1"/>
      </contour>
      <contour>
        <pt x="345" y="789" on="1"/>
        <pt x="259" y="917" on="1"/>
        <pt x="301" y="917" on="1"/>
        <pt x="380" y="803" on="1"/>
      </contour>
    </TTGlyph>
    <TTGlyph name="Edblgrave.sc" xMin="88" yMin="0" xMax="449" yMax="719">
      <contour>
        <pt x="88" y="577" on="1"/>
        <pt x="442" y="577" on="1"/>
        <pt x="442" y="542" on="1"/>
        <pt x="126" y="542" on="1"/>
        <pt x="126" y="311" on="1"/>
        <pt x="420" y="311" on="1"/>
        <pt x="420" y="277" on="1"/>
        <pt x="126" y="277" on="1"/>
        <pt x="126" y="35" on="1"/>
        <pt x="449" y="35" on="1"/>
        <pt x="449" y="0" on="1"/>
        <pt x="88" y="0" on="1"/>
      </contour>
      <contour>
        <pt x="120" y="719" on="1"/>
        <pt x="160" y="719" on="1"/>
        <pt x="226" y="627" on="1"/>
        <pt x="194" y="616" on="1"/>
      </contour>
      <contour>
        <pt x="233" y="719" on="1"/>
        <pt x="273" y="719" on="1"/>
        <pt x="339" y="627" on="1"/>
        <pt x="307" y="616" on="1"/>
      </contour>
    </TTGlyph>
    <TTGlyph name="Edieresis" xMin="93" yMin="0" xMax="507" yMax="889">
      <contour>
        <pt x="187" y="823" on="1"/>
        <pt x="173" y="823" on="0"/>
        <pt x="154" y="839" on="0"/>
        <pt x="154" y="856" on="1"/>
        <pt x="154" y="873" on="0"/>
        <pt x="173" y="889" on="0"/>
        <pt x="187" y="889" on="1"/>
        <pt x="201" y="889" on="0"/>
        <pt x="221" y="873" on="0"/>
        <pt x="221" y="856" on="1"/>
        <pt x="221" y="839" on="0"/>
        <pt x="201" y="823" on="0"/>
      </contour>
      <contour>
        <pt x="405" y="823" on="1"/>
        <pt x="391" y="823" on="0"/>
        <pt x="372" y="839" on="0"/>
        <pt x="372" y="856" on="1"/>
        <pt x="372" y="873" on="0"/>
        <pt x="391" y="889" on="0"/>
        <pt x="405" y="889" on="1"/>
        <pt x="418" y="889" on="0"/>
        <pt x="439" y="873" on="0"/>
        <pt x="439" y="856" on="1"/>
        <pt x="439" y="839" on="0"/>
        <pt x="418" y="823" on="0"/>
      </contour>
      <contour>
        <pt x="93" y="740" on="1"/>
        <pt x="499" y="740" on="1"/>
        <pt x="499" y="703" on="1"/>
        <pt x="131" y="703" on="1"/>
        <pt x="131" y="395" on="1"/>
        <pt x="474" y="395" on="1"/>
        <pt x="474" y="358" on="1"/>
        <pt x="131" y="358" on="1"/>
        <pt x="131" y="37" on="1"/>
        <pt x="507" y="37" on="1"/>
        <pt x="507" y="0" on="1"/>
        <pt x="93" y="0" on="1"/>
      </contour>
    </TTGlyph>
    <TTGlyph name="Edieresis.sc" xMin="88" yMin="0" xMax="449" yMax="701">
      <contour>
        <pt x="170" y="642" on="1"/>
        <pt x="139" y="642" on="0"/>
        <pt x="139" y="671" on="1"/>
        <pt x="139" y="701" on="0"/>
        <pt x="170" y="701" on="1"/>
        <pt x="183" y="701" on="0"/>
        <pt x="201" y="687" on="0"/>
        <pt x="201" y="671" on="1"/>
        <pt x="201" y="655" on="0"/>
        <pt x="183" y="642" on="0"/>
      </contour>
      <contour>
        <pt x="362" y="642" on="1"/>
        <pt x="331" y="642" on="0"/>
        <pt x="331" y="671" on="1"/>
        <pt x="331" y="701" on="0"/>
        <pt x="362" y="701" on="1"/>
        <pt x="374" y="701" on="0"/>
        <pt x="393" y="687" on="0"/>
        <pt x="393" y="671" on="1"/>
        <pt x="393" y="655" on="0"/>
        <pt x="374" y="642" on="0"/>
      </contour>
      <contour>
        <pt x="88" y="577" on="1"/>
        <pt x="442" y="577" on="1"/>
        <pt x="442" y="542" on="1"/>
        <pt x="126" y="542" on="1"/>
        <pt x="126" y="311" on="1"/>
        <pt x="420" y="311" on="1"/>
        <pt x="420" y="277" on="1"/>
        <pt x="126" y="277" on="1"/>
        <pt x="126" y="35" on="1"/>
        <pt x="449" y="35" on="1"/>
        <pt x="449" y="0" on="1"/>
        <pt x="88" y="0" on="1"/>
      </contour>
    </TTGlyph>
    <TTGlyph name="Edotaccent" xMin="93" yMin="0" xMax="507" yMax="879">
      <contour>
        <pt x="296" y="813" on="1"/>
        <pt x="282" y="813" on="0"/>
        <pt x="263" y="829" on="0"/>
        <pt x="263" y="846" on="1"/>
        <pt x="263" y="863" on="0"/>
        <pt x="282" y="879" on="0"/>
        <pt x="296" y="879" on="1"/>
        <pt x="310" y="879" on="0"/>
        <pt x="330" y="863" on="0"/>
        <pt x="330" y="846" on="1"/>
        <pt x="330" y="829" on="0"/>
        <pt x="310" y="813" on="0"/>
      </contour>
      <contour>
        <pt x="93" y="740" on="1"/>
        <pt x="499" y="740" on="1"/>
        <pt x="499" y="703" on="1"/>
        <pt x="131" y="703" on="1"/>
        <pt x="131" y="395" on="1"/>
        <pt x="474" y="395" on="1"/>
        <pt x="474" y="358" on="1"/>
        <pt x="131" y="358" on="1"/>
        <pt x="131" y="37" on="1"/>
        <pt x="507" y="37" on="1"/>
        <pt x="507" y="0" on="1"/>
        <pt x="93" y="0" on="1"/>
      </contour>
    </TTGlyph>
    <TTGlyph name="Edotaccent.sc" xMin="88" yMin="0" xMax="449" yMax="693">
      <contour>
        <pt x="265" y="635" on="1"/>
        <pt x="251" y="635" on="0"/>
        <pt x="235" y="648" on="0"/>
        <pt x="235" y="664" on="1"/>
        <pt x="235" y="679" on="0"/>
        <pt x="251" y="693" on="0"/>
        <pt x="265" y="693" on="1"/>
        <pt x="278" y="693" on="0"/>
        <pt x="297" y="680" on="0"/>
        <pt x="297" y="664" on="1"/>
        <pt x="297" y="648" on="0"/>
        <pt x="278" y="635" on="0"/>
      </contour>
      <contour>
        <pt x="88" y="577" on="1"/>
        <pt x="442" y="577" on="1"/>
        <pt x="442" y="542" on="1"/>
        <pt x="126" y="542" on="1"/>
        <pt x="126" y="311" on="1"/>
        <pt x="420" y="311" on="1"/>
        <pt x="420" y="277" on="1"/>
        <pt x="126" y="277" on="1"/>
        <pt x="126" y="35" on="1"/>
        <pt x="449" y="35" on="1"/>
        <pt x="449" y="0" on="1"/>
        <pt x="88" y="0" on="1"/>
      </contour>
    </TTGlyph>
    <TTGlyph name="Edotbelow" xMin="93" yMin="-166" xMax="507" yMax="740">
      <contour>
        <pt x="93" y="740" on="1"/>
        <pt x="499" y="740" on="1"/>
        <pt x="499" y="703" on="1"/>
        <pt x="131" y="703" on="1"/>
        <pt x="131" y="395" on="1"/>
        <pt x="474" y="395" on="1"/>
        <pt x="474" y="358" on="1"/>
        <pt x="131" y="358" on="1"/>
        <pt x="131" y="37" on="1"/>
        <pt x="507" y="37" on="1"/>
        <pt x="507" y="0" on="1"/>
        <pt x="93" y="0" on="1"/>
      </contour>
      <contour>
        <pt x="315" y="-166" on="1"/>
        <pt x="298" y="-166" on="0"/>
        <pt x="278" y="-149" on="0"/>
        <pt x="278" y="-129" on="1"/>
        <pt x="278" y="-109" on="0"/>
        <pt x="298" y="-92" on="0"/>
        <pt x="315" y="-92" on="1"/>
        <pt x="331" y="-92" on="0"/>
        <pt x="353" y="-109" on="0"/>
        <pt x="353" y="-129" on="1"/>
        <pt x="353" y="-149" on="0"/>
        <pt x="331" y="-166" on="0"/>
      </contour>
    </TTGlyph>
    <TTGlyph name="Edotbelow.sc" xMin="88" yMin="-133" xMax="449" yMax="577">
      <contour>
        <pt x="281" y="-133" on="1"/>
        <pt x="266" y="-133" on="0"/>
        <pt x="248" y="-119" on="0"/>
        <pt x="248" y="-102" on="1"/>
        <pt x="248" y="-85" on="0"/>
        <pt x="266" y="-70" on="0"/>
        <pt x="281" y="-70" on="1"/>
        <pt x="295" y="-70" on="0"/>
        <pt x="315" y="-85" on="0"/>
        <pt x="315" y="-102" on="1"/>
        <pt x="315" y="-119" on="0"/>
        <pt x="295" y="-133" on="0"/>
      </contour>
      <contour>
        <pt x="88" y="577" on="1"/>
        <pt x="442" y="577" on="1"/>
        <pt x="442" y="542" on="1"/>
        <pt x="126" y="542" on="1"/>
        <pt x="126" y="311" on="1"/>
        <pt x="420" y="311" on="1"/>
        <pt x="420" y="277" on="1"/>
        <pt x="126" y="277" on="1"/>
        <pt x="126" y="35" on="1"/>
        <pt x="449" y="35" on="1"/>
        <pt x="449" y="0" on="1"/>
        <pt x="88" y="0" on="1"/>
      </contour>
    </TTGlyph>
    <TTGlyph name="Egrave" xMin="93" yMin="0" xMax="507" yMax="922">
      <contour>
        <pt x="279" y="794" on="1"/>
        <pt x="193" y="922" on="1"/>
        <pt x="235" y="922" on="1"/>
        <pt x="314" y="808" on="1"/>
      </contour>
      <contour>
        <pt x="93" y="740" on="1"/>
        <pt x="499" y="740" on="1"/>
        <pt x="499" y="703" on="1"/>
        <pt x="131" y="703" on="1"/>
        <pt x="131" y="395" on="1"/>
        <pt x="474" y="395" on="1"/>
        <pt x="474" y="358" on="1"/>
        <pt x="131" y="358" on="1"/>
        <pt x="131" y="37" on="1"/>
        <pt x="507" y="37" on="1"/>
        <pt x="507" y="0" on="1"/>
        <pt x="93" y="0" on="1"/>
      </contour>
    </TTGlyph>
    <TTGlyph name="Egrave.sc" xMin="88" yMin="0" xMax="449" yMax="723">
      <contour>
        <pt x="88" y="577" on="1"/>
        <pt x="442" y="577" on="1"/>
        <pt x="442" y="542" on="1"/>
        <pt x="126" y="542" on="1"/>
        <pt x="126" y="311" on="1"/>
        <pt x="420" y="311" on="1"/>
        <pt x="420" y="277" on="1"/>
        <pt x="126" y="277" on="1"/>
        <pt x="126" y="35" on="1"/>
        <pt x="449" y="35" on="1"/>
        <pt x="449" y="0" on="1"/>
        <pt x="88" y="0" on="1"/>
      </contour>
      <contour>
        <pt x="176" y="723" on="1"/>
        <pt x="216" y="723" on="1"/>
        <pt x="283" y="631" on="1"/>
        <pt x="250" y="621" on="1"/>
      </contour>
    </TTGlyph>
    <TTGlyph name="Einvertedbreve" xMin="93" yMin="0" xMax="507" yMax="954">
      <contour>
        <pt x="93" y="740" on="1"/>
        <pt x="499" y="740" on="1"/>
        <pt x="499" y="703" on="1"/>
        <pt x="131" y="703" on="1"/>
        <pt x="131" y="395" on="1"/>
        <pt x="474" y="395" on="1"/>
        <pt x="474" y="358" on="1"/>
        <pt x="131" y="358" on="1"/>
        <pt x="131" y="37" on="1"/>
        <pt x="507" y="37" on="1"/>
        <pt x="507" y="0" on="1"/>
        <pt x="93" y="0" on="1"/>
      </contour>
      <contour>
        <pt x="411" y="821" on="1"/>
        <pt x="411" y="867" on="0"/>
        <pt x="350" y="919" on="0"/>
        <pt x="296" y="919" on="1"/>
        <pt x="242" y="919" on="0"/>
        <pt x="181" y="867" on="0"/>
        <pt x="181" y="821" on="1"/>
        <pt x="144" y="821" on="1"/>
        <pt x="144" y="883" on="0"/>
        <pt x="224" y="954" on="0"/>
        <pt x="296" y="954" on="1"/>
        <pt x="367" y="954" on="0"/>
        <pt x="448" y="883" on="0"/>
        <pt x="448" y="821" on="1"/>
      </contour>
    </TTGlyph>
    <TTGlyph name="Einvertedbreve.sc" xMin="88" yMin="0" xMax="449" yMax="746">
      <contour>
        <pt x="132" y="639" on="1"/>
        <pt x="132" y="689" on="0"/>
        <pt x="202" y="746" on="0"/>
        <pt x="265" y="746" on="1"/>
        <pt x="328" y="746" on="0"/>
        <pt x="398" y="689" on="0"/>
        <pt x="398" y="639" on="1"/>
        <pt x="364" y="639" on="1"/>
        <pt x="364" y="675" on="0"/>
        <pt x="312" y="715" on="0"/>
        <pt x="265" y="715" on="1"/>
        <pt x="218" y="715" on="0"/>
        <pt x="167" y="675" on="0"/>
        <pt x="167" y="639" on="1"/>
      </contour>
      <contour>
        <pt x="88" y="577" on="1"/>
        <pt x="442" y="577" on="1"/>
        <pt x="442" y="542" on="1"/>
        <pt x="126" y="542" on="1"/>
        <pt x="126" y="311" on="1"/>
        <pt x="420" y="311" on="1"/>
        <pt x="420" y="277" on="1"/>
        <pt x="126" y="277" on="1"/>
        <pt x="126" y="35" on="1"/>
        <pt x="449" y="35" on="1"/>
        <pt x="449" y="0" on="1"/>
        <pt x="88" y="0" on="1"/>
      </contour>
    </TTGlyph>
    <TTGlyph name="Emacron" xMin="93" yMin="0" xMax="507" yMax="878">
      <contour>
        <pt x="163" y="878" on="1"/>
        <pt x="420" y="878" on="1"/>
        <pt x="420" y="842" on="1"/>
        <pt x="163" y="842" on="1"/>
      </contour>
      <contour>
        <pt x="93" y="740" on="1"/>
        <pt x="499" y="740" on="1"/>
        <pt x="499" y="703" on="1"/>
        <pt x="131" y="703" on="1"/>
        <pt x="131" y="395" on="1"/>
        <pt x="474" y="395" on="1"/>
        <pt x="474" y="358" on="1"/>
        <pt x="131" y="358" on="1"/>
        <pt x="131" y="37" on="1"/>
        <pt x="507" y="37" on="1"/>
        <pt x="507" y="0" on="1"/>
        <pt x="93" y="0" on="1"/>
      </contour>
    </TTGlyph>
    <TTGlyph name="Emacron.sc" xMin="88" yMin="0" xMax="449" yMax="690">
      <contour>
        <pt x="88" y="577" on="1"/>
        <pt x="442" y="577" on="1"/>
        <pt x="442" y="542" on="1"/>
        <pt x="126" y="542" on="1"/>
        <pt x="126" y="311" on="1"/>
        <pt x="420" y="311" on="1"/>
        <pt x="420" y="277" on="1"/>
        <pt x="126" y="277" on="1"/>
        <pt x="126" y="35" on="1"/>
        <pt x="449" y="35" on="1"/>
        <pt x="449" y="0" on="1"/>
        <pt x="88" y="0" on="1"/>
      </contour>
      <contour>
        <pt x="149" y="690" on="1"/>
        <pt x="375" y="690" on="1"/>
        <pt x="375" y="656" on="1"/>
        <pt x="149" y="656" on="1"/>
      </contour>
    </TTGlyph>
    <TTGlyph name="Eng" xMin="93" yMin="-180" xMax="628" yMax="740">
      <contour>
        <pt x="513" y="-171" on="1"/>
        <pt x="525" y="-150" on="0"/>
        <pt x="546" y="-103" on="0"/>
        <pt x="564" y="-55" on="0"/>
        <pt x="578" y="-10" on="0"/>
        <pt x="581" y="8" on="1"/>
        <pt x="188" y="589" on="1"/>
        <pt x="135" y="675" on="1"/>
        <pt x="130" y="674" on="1"/>
        <pt x="130" y="0" on="1"/>
        <pt x="93" y="0" on="1"/>
        <pt x="93" y="740" on="1"/>
        <pt x="132" y="740" on="1"/>
        <pt x="530" y="152" on="1"/>
        <pt x="586" y="64" on="1"/>
        <pt x="590" y="64" on="1"/>
        <pt x="590" y="740" on="1"/>
        <pt x="628" y="740" on="1"/>
        <pt x="628" y="61" on="1"/>
        <pt x="628" y="36" on="0"/>
        <pt x="615" y="-27" on="0"/>
        <pt x="592" y="-92" on="0"/>
        <pt x="562" y="-155" on="0"/>
        <pt x="545" y="-180" on="1"/>
      </contour>
    </TTGlyph>
    <TTGlyph name="Eng.sc" xMin="88" yMin="-142" xMax="551" yMax="577">
      <contour>
        <pt x="449" y="-134" on="1"/>
        <pt x="459" y="-117" on="0"/>
        <pt x="477" y="-79" on="0"/>
        <pt x="493" y="-41" on="0"/>
        <pt x="504" y="-6" on="0"/>
        <pt x="507" y="9" on="1"/>
        <pt x="174" y="447" on="1"/>
        <pt x="129" y="514" on="1"/>
        <pt x="124" y="514" on="1"/>
        <pt x="124" y="0" on="1"/>
        <pt x="88" y="0" on="1"/>
        <pt x="88" y="577" on="1"/>
        <pt x="126" y="577" on="1"/>
        <pt x="463" y="131" on="1"/>
        <pt x="511" y="62" on="1"/>
        <pt x="515" y="63" on="1"/>
        <pt x="515" y="577" on="1"/>
        <pt x="551" y="577" on="1"/>
        <pt x="551" y="52" on="1"/>
        <pt x="551" y="32" on="0"/>
        <pt x="540" y="-18" on="0"/>
        <pt x="521" y="-71" on="0"/>
        <pt x="494" y="-121" on="0"/>
        <pt x="479" y="-142" on="1"/>
      </contour>
    </TTGlyph>
    <TTGlyph name="Eogonek" xMin="93" yMin="-220" xMax="507" yMax="740">
      <contour>
        <pt x="93" y="740" on="1"/>
        <pt x="499" y="740" on="1"/>
        <pt x="499" y="703" on="1"/>
        <pt x="131" y="703" on="1"/>
        <pt x="131" y="395" on="1"/>
        <pt x="474" y="395" on="1"/>
        <pt x="474" y="358" on="1"/>
        <pt x="131" y="358" on="1"/>
        <pt x="131" y="37" on="1"/>
        <pt x="507" y="37" on="1"/>
        <pt x="507" y="-21" on="1"/>
        <pt x="450" y="-50" on="0"/>
        <pt x="401" y="-105" on="0"/>
        <pt x="401" y="-140" on="1"/>
        <pt x="401" y="-165" on="0"/>
        <pt x="425" y="-187" on="0"/>
        <pt x="452" y="-187" on="1"/>
        <pt x="480" y="-187" on="0"/>
        <pt x="506" y="-177" on="1"/>
        <pt x="506" y="-208" on="1"/>
        <pt x="480" y="-220" on="0"/>
        <pt x="446" y="-220" on="1"/>
        <pt x="365" y="-220" on="0"/>
        <pt x="365" y="-142" on="1"/>
        <pt x="365" y="-101" on="0"/>
        <pt x="415" y="-36" on="0"/>
        <pt x="475" y="0" on="1"/>
        <pt x="93" y="0" on="1"/>
      </contour>
    </TTGlyph>
    <TTGlyph name="Eogonek.sc" xMin="88" yMin="-172" xMax="449" yMax="577">
      <contour>
        <pt x="396" y="-172" on="1"/>
        <pt x="323" y="-172" on="0"/>
        <pt x="323" y="-110" on="1"/>
        <pt x="323" y="-78" on="0"/>
        <pt x="363" y="-30" on="0"/>
        <pt x="416" y="0" on="1"/>
        <pt x="88" y="0" on="1"/>
        <pt x="88" y="577" on="1"/>
        <pt x="442" y="577" on="1"/>
        <pt x="442" y="542" on="1"/>
        <pt x="126" y="542" on="1"/>
        <pt x="126" y="311" on="1"/>
        <pt x="420" y="311" on="1"/>
        <pt x="420" y="277" on="1"/>
        <pt x="126" y="277" on="1"/>
        <pt x="126" y="35" on="1"/>
        <pt x="449" y="35" on="1"/>
        <pt x="449" y="-16" on="1"/>
        <pt x="406" y="-33" on="0"/>
        <pt x="357" y="-79" on="0"/>
        <pt x="357" y="-108" on="1"/>
        <pt x="357" y="-127" on="0"/>
        <pt x="379" y="-142" on="0"/>
        <pt x="400" y="-142" on="1"/>
        <pt x="424" y="-142" on="0"/>
        <pt x="448" y="-134" on="1"/>
        <pt x="448" y="-162" on="1"/>
        <pt x="423" y="-172" on="0"/>
      </contour>
    </TTGlyph>
    <TTGlyph name="Eth" xMin="3" yMin="-13" xMax="607" yMax="749">
      <contour>
        <pt x="3" y="387" on="1"/>
        <pt x="100" y="387" on="1"/>
        <pt x="100" y="736" on="1"/>
        <pt x="119" y="739" on="0"/>
        <pt x="165" y="744" on="0"/>
        <pt x="210" y="747" on="0"/>
        <pt x="253" y="749" on="0"/>
        <pt x="269" y="749" on="1"/>
        <pt x="443" y="749" on="0"/>
        <pt x="607" y="564" on="0"/>
        <pt x="607" y="370" on="1"/>
        <pt x="607" y="173" on="0"/>
        <pt x="433" y="-13" on="0"/>
        <pt x="247" y="-13" on="1"/>
        <pt x="201" y="-13" on="0"/>
        <pt x="123" y="-7" on="0"/>
        <pt x="100" y="-1" on="1"/>
        <pt x="100" y="350" on="1"/>
        <pt x="3" y="350" on="1"/>
      </contour>
      <contour>
        <pt x="251" y="24" on="1"/>
        <pt x="412" y="24" on="0"/>
        <pt x="568" y="194" on="0"/>
        <pt x="568" y="370" on="1"/>
        <pt x="568" y="547" on="0"/>
        <pt x="423" y="711" on="0"/>
        <pt x="267" y="711" on="1"/>
        <pt x="239" y="711" on="0"/>
        <pt x="167" y="707" on="0"/>
        <pt x="138" y="703" on="1"/>
        <pt x="138" y="387" on="1"/>
        <pt x="334" y="387" on="1"/>
        <pt x="334" y="350" on="1"/>
        <pt x="138" y="350" on="1"/>
        <pt x="138" y="32" on="1"/>
        <pt x="172" y="27" on="0"/>
        <pt x="222" y="24" on="0"/>
      </contour>
    </TTGlyph>
    <TTGlyph name="Eth.sc" xMin="11" yMin="-10" xMax="536" yMax="584">
      <contour>
        <pt x="11" y="304" on="1"/>
        <pt x="93" y="304" on="1"/>
        <pt x="93" y="575" on="1"/>
        <pt x="109" y="577" on="0"/>
        <pt x="149" y="580" on="0"/>
        <pt x="190" y="583" on="0"/>
        <pt x="228" y="584" on="0"/>
        <pt x="242" y="584" on="1"/>
        <pt x="393" y="584" on="0"/>
        <pt x="536" y="440" on="0"/>
        <pt x="536" y="288" on="1"/>
        <pt x="536" y="134" on="0"/>
        <pt x="385" y="-10" on="0"/>
        <pt x="224" y="-10" on="1"/>
        <pt x="183" y="-10" on="0"/>
        <pt x="113" y="-4" on="0"/>
        <pt x="93" y="1" on="1"/>
        <pt x="93" y="270" on="1"/>
        <pt x="11" y="270" on="1"/>
      </contour>
      <contour>
        <pt x="230" y="25" on="1"/>
        <pt x="367" y="25" on="0"/>
        <pt x="497" y="154" on="0"/>
        <pt x="497" y="288" on="1"/>
        <pt x="497" y="424" on="0"/>
        <pt x="375" y="549" on="0"/>
        <pt x="242" y="549" on="1"/>
        <pt x="218" y="549" on="0"/>
        <pt x="156" y="545" on="0"/>
        <pt x="131" y="542" on="1"/>
        <pt x="131" y="304" on="1"/>
        <pt x="297" y="304" on="1"/>
        <pt x="297" y="270" on="1"/>
        <pt x="131" y="270" on="1"/>
        <pt x="131" y="32" on="1"/>
        <pt x="161" y="28" on="0"/>
        <pt x="204" y="25" on="0"/>
      </contour>
    </TTGlyph>
    <TTGlyph name="Etilde" xMin="93" yMin="0" xMax="507" yMax="908">
      <contour>
        <pt x="132" y="859" on="1"/>
        <pt x="153" y="881" on="0"/>
        <pt x="206" y="908" on="0"/>
        <pt x="232" y="908" on="1"/>
        <pt x="254" y="908" on="0"/>
        <pt x="289" y="895" on="0"/>
        <pt x="322" y="878" on="0"/>
        <pt x="355" y="865" on="0"/>
        <pt x="374" y="865" on="1"/>
        <pt x="394" y="865" on="0"/>
        <pt x="432" y="886" on="0"/>
        <pt x="448" y="904" on="1"/>
        <pt x="474" y="882" on="1"/>
        <pt x="456" y="859" on="0"/>
        <pt x="401" y="830" on="0"/>
        <pt x="372" y="830" on="1"/>
        <pt x="352" y="830" on="0"/>
        <pt x="317" y="843" on="0"/>
        <pt x="284" y="860" on="0"/>
        <pt x="251" y="873" on="0"/>
        <pt x="233" y="873" on="1"/>
        <pt x="213" y="873" on="0"/>
        <pt x="173" y="852" on="0"/>
        <pt x="156" y="835" on="1"/>
      </contour>
      <contour>
        <pt x="93" y="740" on="1"/>
        <pt x="499" y="740" on="1"/>
        <pt x="499" y="703" on="1"/>
        <pt x="131" y="703" on="1"/>
        <pt x="131" y="395" on="1"/>
        <pt x="474" y="395" on="1"/>
        <pt x="474" y="358" on="1"/>
        <pt x="131" y="358" on="1"/>
        <pt x="131" y="37" on="1"/>
        <pt x="507" y="37" on="1"/>
        <pt x="507" y="0" on="1"/>
        <pt x="93" y="0" on="1"/>
      </contour>
    </TTGlyph>
    <TTGlyph name="Etilde.sc" xMin="88" yMin="0" xMax="449" yMax="713">
      <contour>
        <pt x="122" y="670" on="1"/>
        <pt x="141" y="690" on="0"/>
        <pt x="187" y="713" on="0"/>
        <pt x="210" y="713" on="1"/>
        <pt x="229" y="713" on="0"/>
        <pt x="260" y="703" on="0"/>
        <pt x="289" y="690" on="0"/>
        <pt x="317" y="680" on="0"/>
        <pt x="334" y="680" on="1"/>
        <pt x="370" y="680" on="0"/>
        <pt x="400" y="710" on="1"/>
        <pt x="422" y="692" on="1"/>
        <pt x="405" y="672" on="0"/>
        <pt x="357" y="647" on="0"/>
        <pt x="331" y="647" on="1"/>
        <pt x="314" y="647" on="0"/>
        <pt x="283" y="658" on="0"/>
        <pt x="254" y="670" on="0"/>
        <pt x="224" y="681" on="0"/>
        <pt x="209" y="681" on="1"/>
        <pt x="174" y="681" on="0"/>
        <pt x="142" y="651" on="1"/>
      </contour>
      <contour>
        <pt x="88" y="577" on="1"/>
        <pt x="442" y="577" on="1"/>
        <pt x="442" y="542" on="1"/>
        <pt x="126" y="542" on="1"/>
        <pt x="126" y="311" on="1"/>
        <pt x="420" y="311" on="1"/>
        <pt x="420" y="277" on="1"/>
        <pt x="126" y="277" on="1"/>
        <pt x="126" y="35" on="1"/>
        <pt x="449" y="35" on="1"/>
        <pt x="449" y="0" on="1"/>
        <pt x="88" y="0" on="1"/>
      </contour>
    </TTGlyph>
    <TTGlyph name="Euro" xMin="46" yMin="-10" xMax="514" yMax="749">
      <contour>
        <pt x="46" y="471" on="1"/>
        <pt x="133" y="471" on="1"/>
        <pt x="142" y="545" on="0"/>
        <pt x="187" y="651" on="0"/>
        <pt x="264" y="718" on="0"/>
        <pt x="376" y="749" on="0"/>
        <pt x="451" y="749" on="1"/>
        <pt x="472" y="749" on="0"/>
        <pt x="498" y="747" on="0"/>
        <pt x="514" y="746" on="1"/>
        <pt x="496" y="709" on="1"/>
        <pt x="489" y="710" on="0"/>
        <pt x="471" y="711" on="0"/>
        <pt x="456" y="711" on="1"/>
        <pt x="389" y="711" on="0"/>
        <pt x="289" y="685" on="0"/>
        <pt x="220" y="627" on="0"/>
        <pt x="180" y="536" on="0"/>
        <pt x="172" y="471" on="1"/>
        <pt x="432" y="471" on="1"/>
        <pt x="414" y="436" on="1"/>
        <pt x="169" y="436" on="1"/>
        <pt x="168" y="420" on="0"/>
        <pt x="167" y="387" on="0"/>
        <pt x="167" y="370" on="1"/>
        <pt x="167" y="352" on="0"/>
        <pt x="168" y="320" on="0"/>
        <pt x="169" y="304" on="1"/>
        <pt x="395" y="304" on="1"/>
        <pt x="377" y="269" on="1"/>
        <pt x="173" y="269" on="1"/>
        <pt x="189" y="143" on="0"/>
        <pt x="323" y="27" on="0"/>
        <pt x="451" y="27" on="1"/>
        <pt x="457" y="27" on="0"/>
        <pt x="482" y="28" on="0"/>
        <pt x="497" y="30" on="1"/>
        <pt x="497" y="-9" on="1"/>
        <pt x="489" y="-10" on="0"/>
        <pt x="470" y="-10" on="0"/>
        <pt x="453" y="-10" on="1"/>
        <pt x="305" y="-8" on="0"/>
        <pt x="151" y="124" on="0"/>
        <pt x="133" y="269" on="1"/>
        <pt x="46" y="269" on="1"/>
        <pt x="46" y="304" on="1"/>
        <pt x="130" y="304" on="1"/>
        <pt x="128" y="319" on="0"/>
        <pt x="128" y="352" on="0"/>
        <pt x="128" y="369" on="1"/>
        <pt x="128" y="386" on="0"/>
        <pt x="128" y="420" on="0"/>
        <pt x="130" y="436" on="1"/>
        <pt x="46" y="436" on="1"/>
      </contour>
    </TTGlyph>
    <TTGlyph name="Euro.tab" xMin="29" yMin="-10" xMax="489" yMax="749">
      <contour>
        <pt x="29" y="471" on="1"/>
        <pt x="114" y="471" on="1"/>
        <pt x="122" y="545" on="0"/>
        <pt x="166" y="651" on="0"/>
        <pt x="242" y="718" on="0"/>
        <pt x="351" y="749" on="0"/>
        <pt x="425" y="749" on="1"/>
        <pt x="447" y="749" on="0"/>
        <pt x="473" y="747" on="0"/>
        <pt x="489" y="746" on="1"/>
        <pt x="471" y="709" on="1"/>
        <pt x="464" y="710" on="0"/>
        <pt x="445" y="711" on="0"/>
        <pt x="431" y="711" on="1"/>
        <pt x="366" y="711" on="0"/>
        <pt x="268" y="685" on="0"/>
        <pt x="201" y="627" on="0"/>
        <pt x="161" y="536" on="0"/>
        <pt x="153" y="471" on="1"/>
        <pt x="407" y="471" on="1"/>
        <pt x="390" y="436" on="1"/>
        <pt x="150" y="436" on="1"/>
        <pt x="148" y="420" on="0"/>
        <pt x="148" y="387" on="0"/>
        <pt x="148" y="370" on="1"/>
        <pt x="148" y="352" on="0"/>
        <pt x="148" y="319" on="0"/>
        <pt x="150" y="304" on="1"/>
        <pt x="371" y="304" on="1"/>
        <pt x="354" y="269" on="1"/>
        <pt x="154" y="269" on="1"/>
        <pt x="170" y="143" on="0"/>
        <pt x="301" y="27" on="0"/>
        <pt x="426" y="27" on="1"/>
        <pt x="432" y="27" on="0"/>
        <pt x="457" y="28" on="0"/>
        <pt x="472" y="30" on="1"/>
        <pt x="472" y="-9" on="1"/>
        <pt x="464" y="-10" on="0"/>
        <pt x="445" y="-10" on="0"/>
        <pt x="428" y="-10" on="1"/>
        <pt x="283" y="-8" on="0"/>
        <pt x="131" y="124" on="0"/>
        <pt x="114" y="269" on="1"/>
        <pt x="29" y="269" on="1"/>
        <pt x="29" y="304" on="1"/>
        <pt x="111" y="304" on="1"/>
        <pt x="109" y="320" on="0"/>
        <pt x="109" y="352" on="0"/>
        <pt x="109" y="369" on="1"/>
        <pt x="109" y="386" on="0"/>
        <pt x="109" y="420" on="0"/>
        <pt x="111" y="436" on="1"/>
        <pt x="29" y="436" on="1"/>
      </contour>
    </TTGlyph>
    <TTGlyph name="F" xMin="93" yMin="0" xMax="489" yMax="740">
      <contour>
        <pt x="93" y="740" on="1"/>
        <pt x="489" y="740" on="1"/>
        <pt x="489" y="703" on="1"/>
        <pt x="131" y="703" on="1"/>
        <pt x="131" y="395" on="1"/>
        <pt x="462" y="395" on="1"/>
        <pt x="462" y="358" on="1"/>
        <pt x="131" y="358" on="1"/>
        <pt x="131" y="0" on="1"/>
        <pt x="93" y="0" on="1"/>
      </contour>
    </TTGlyph>
    <TTGlyph name="F.sc" xMin="88" yMin="0" xMax="434" yMax="577">
      <contour>
        <pt x="88" y="577" on="1"/>
        <pt x="434" y="577" on="1"/>
        <pt x="434" y="542" on="1"/>
        <pt x="126" y="542" on="1"/>
        <pt x="126" y="309" on="1"/>
        <pt x="410" y="309" on="1"/>
        <pt x="410" y="275" on="1"/>
        <pt x="126" y="275" on="1"/>
        <pt x="126" y="0" on="1"/>
        <pt x="88" y="0" on="1"/>
      </contour>
    </TTGlyph>
    <TTGlyph name="F_B.sc" xMin="88" yMin="-8" xMax="937" yMax="584">
      <contour>
        <pt x="88" y="577" on="1"/>
        <pt x="434" y="577" on="1"/>
        <pt x="434" y="542" on="1"/>
        <pt x="126" y="542" on="1"/>
        <pt x="126" y="309" on="1"/>
        <pt x="410" y="309" on="1"/>
        <pt x="410" y="275" on="1"/>
        <pt x="126" y="275" on="1"/>
        <pt x="126" y="0" on="1"/>
        <pt x="88" y="0" on="1"/>
      </contour>
      <contour>
        <pt x="713" y="-8" on="1"/>
        <pt x="675" y="-8" on="0"/>
        <pt x="581" y="-2" on="0"/>
        <pt x="539" y="4" on="1"/>
        <pt x="539" y="574" on="1"/>
        <pt x="568" y="577" on="0"/>
        <pt x="615" y="580" on="0"/>
        <pt x="654" y="583" on="0"/>
        <pt x="689" y="584" on="0"/>
        <pt x="706" y="584" on="1"/>
        <pt x="818" y="584" on="0"/>
        <pt x="917" y="512" on="0"/>
        <pt x="917" y="431" on="1"/>
        <pt x="917" y="377" on="0"/>
        <pt x="859" y="304" on="0"/>
        <pt x="809" y="295" on="1"/>
        <pt x="809" y="292" on="1"/>
        <pt x="871" y="282" on="0"/>
        <pt x="937" y="210" on="0"/>
        <pt x="937" y="150" on="1"/>
        <pt x="937" y="-8" on="0"/>
      </contour>
      <contour>
        <pt x="714" y="25" on="1"/>
        <pt x="808" y="25" on="0"/>
        <pt x="898" y="87" on="0"/>
        <pt x="898" y="151" on="1"/>
        <pt x="898" y="215" on="0"/>
        <pt x="812" y="275" on="0"/>
        <pt x="719" y="275" on="1"/>
        <pt x="576" y="275" on="1"/>
        <pt x="576" y="34" on="1"/>
        <pt x="596" y="30" on="0"/>
        <pt x="673" y="25" on="0"/>
      </contour>
      <contour>
        <pt x="718" y="309" on="1"/>
        <pt x="805" y="309" on="0"/>
        <pt x="878" y="365" on="0"/>
        <pt x="878" y="430" on="1"/>
        <pt x="878" y="495" on="0"/>
        <pt x="799" y="551" on="0"/>
        <pt x="707" y="551" on="1"/>
        <pt x="667" y="551" on="0"/>
        <pt x="605" y="548" on="0"/>
        <pt x="576" y="543" on="1"/>
        <pt x="576" y="309" on="1"/>
      </contour>
    </TTGlyph>
    <TTGlyph name="F_F.sc" xMin="88" yMin="0" xMax="885" yMax="577">
      <contour>
        <pt x="88" y="577" on="1"/>
        <pt x="434" y="577" on="1"/>
        <pt x="434" y="542" on="1"/>
        <pt x="126" y="542" on="1"/>
        <pt x="126" y="309" on="1"/>
        <pt x="410" y="309" on="1"/>
        <pt x="410" y="275" on="1"/>
        <pt x="126" y="275" on="1"/>
        <pt x="126" y="0" on="1"/>
        <pt x="88" y="0" on="1"/>
      </contour>
      <contour>
        <pt x="539" y="577" on="1"/>
        <pt x="885" y="577" on="1"/>
        <pt x="885" y="542" on="1"/>
        <pt x="577" y="542" on="1"/>
        <pt x="577" y="309" on="1"/>
        <pt x="861" y="309" on="1"/>
        <pt x="861" y="275" on="1"/>
        <pt x="577" y="275" on="1"/>
        <pt x="577" y="0" on="1"/>
        <pt x="539" y="0" on="1"/>
      </contour>
    </TTGlyph>
    <TTGlyph name="F_F_B.sc" xMin="88" yMin="-8" xMax="1389" yMax="584">
      <contour>
        <pt x="88" y="577" on="1"/>
        <pt x="434" y="577" on="1"/>
        <pt x="434" y="542" on="1"/>
        <pt x="126" y="542" on="1"/>
        <pt x="126" y="309" on="1"/>
        <pt x="410" y="309" on="1"/>
        <pt x="410" y="275" on="1"/>
        <pt x="126" y="275" on="1"/>
        <pt x="126" y="0" on="1"/>
        <pt x="88" y="0" on="1"/>
      </contour>
      <contour>
        <pt x="539" y="577" on="1"/>
        <pt x="885" y="577" on="1"/>
        <pt x="885" y="542" on="1"/>
        <pt x="577" y="542" on="1"/>
        <pt x="577" y="309" on="1"/>
        <pt x="861" y="309" on="1"/>
        <pt x="861" y="275" on="1"/>
        <pt x="577" y="275" on="1"/>
        <pt x="577" y="0" on="1"/>
        <pt x="539" y="0" on="1"/>
      </contour>
      <contour>
        <pt x="1165" y="-8" on="1"/>
        <pt x="1127" y="-8" on="0"/>
        <pt x="1033" y="-2" on="0"/>
        <pt x="991" y="4" on="1"/>
        <pt x="991" y="574" on="1"/>
        <pt x="1020" y="577" on="0"/>
        <pt x="1067" y="580" on="0"/>
        <pt x="1106" y="583" on="0"/>
        <pt x="1141" y="584" on="0"/>
        <pt x="1158" y="584" on="1"/>
        <pt x="1270" y="584" on="0"/>
        <pt x="1369" y="512" on="0"/>
        <pt x="1369" y="431" on="1"/>
        <pt x="1369" y="377" on="0"/>
        <pt x="1311" y="304" on="0"/>
        <pt x="1261" y="295" on="1"/>
        <pt x="1261" y="292" on="1"/>
        <pt x="1323" y="282" on="0"/>
        <pt x="1389" y="210" on="0"/>
        <pt x="1389" y="150" on="1"/>
        <pt x="1389" y="-8" on="0"/>
      </contour>
      <contour>
        <pt x="1166" y="25" on="1"/>
        <pt x="1260" y="25" on="0"/>
        <pt x="1350" y="87" on="0"/>
        <pt x="1350" y="151" on="1"/>
        <pt x="1350" y="215" on="0"/>
        <pt x="1264" y="275" on="0"/>
        <pt x="1171" y="275" on="1"/>
        <pt x="1028" y="275" on="1"/>
        <pt x="1028" y="34" on="1"/>
        <pt x="1048" y="30" on="0"/>
        <pt x="1125" y="25" on="0"/>
      </contour>
      <contour>
        <pt x="1170" y="309" on="1"/>
        <pt x="1257" y="309" on="0"/>
        <pt x="1330" y="365" on="0"/>
        <pt x="1330" y="430" on="1"/>
        <pt x="1330" y="495" on="0"/>
        <pt x="1251" y="551" on="0"/>
        <pt x="1159" y="551" on="1"/>
        <pt x="1119" y="551" on="0"/>
        <pt x="1057" y="548" on="0"/>
        <pt x="1028" y="543" on="1"/>
        <pt x="1028" y="309" on="1"/>
      </contour>
    </TTGlyph>
    <TTGlyph name="F_F_H.sc" xMin="88" yMin="0" xMax="1433" yMax="577">
      <contour>
        <pt x="88" y="577" on="1"/>
        <pt x="434" y="577" on="1"/>
        <pt x="434" y="542" on="1"/>
        <pt x="126" y="542" on="1"/>
        <pt x="126" y="309" on="1"/>
        <pt x="410" y="309" on="1"/>
        <pt x="410" y="275" on="1"/>
        <pt x="126" y="275" on="1"/>
        <pt x="126" y="0" on="1"/>
        <pt x="88" y="0" on="1"/>
      </contour>
      <contour>
        <pt x="539" y="577" on="1"/>
        <pt x="885" y="577" on="1"/>
        <pt x="885" y="542" on="1"/>
        <pt x="577" y="542" on="1"/>
        <pt x="577" y="309" on="1"/>
        <pt x="861" y="309" on="1"/>
        <pt x="861" y="275" on="1"/>
        <pt x="577" y="275" on="1"/>
        <pt x="577" y="0" on="1"/>
        <pt x="539" y="0" on="1"/>
      </contour>
      <contour>
        <pt x="991" y="577" on="1"/>
        <pt x="1029" y="577" on="1"/>
        <pt x="1029" y="313" on="1"/>
        <pt x="1395" y="313" on="1"/>
        <pt x="1395" y="577" on="1"/>
        <pt x="1433" y="577" on="1"/>
        <pt x="1433" y="0" on="1"/>
        <pt x="1395" y="0" on="1"/>
        <pt x="1395" y="278" on="1"/>
        <pt x="1029" y="278" on="1"/>
        <pt x="1029" y="0" on="1"/>
        <pt x="991" y="0" on="1"/>
      </contour>
    </TTGlyph>
    <TTGlyph name="F_F_I.sc" xMin="88" yMin="0" xMax="1029" yMax="577">
      <contour>
        <pt x="88" y="577" on="1"/>
        <pt x="434" y="577" on="1"/>
        <pt x="434" y="542" on="1"/>
        <pt x="126" y="542" on="1"/>
        <pt x="126" y="309" on="1"/>
        <pt x="410" y="309" on="1"/>
        <pt x="410" y="275" on="1"/>
        <pt x="126" y="275" on="1"/>
        <pt x="126" y="0" on="1"/>
        <pt x="88" y="0" on="1"/>
      </contour>
      <contour>
        <pt x="539" y="577" on="1"/>
        <pt x="885" y="577" on="1"/>
        <pt x="885" y="542" on="1"/>
        <pt x="577" y="542" on="1"/>
        <pt x="577" y="309" on="1"/>
        <pt x="861" y="309" on="1"/>
        <pt x="861" y="275" on="1"/>
        <pt x="577" y="275" on="1"/>
        <pt x="577" y="0" on="1"/>
        <pt x="539" y="0" on="1"/>
      </contour>
      <contour>
        <pt x="991" y="577" on="1"/>
        <pt x="1029" y="577" on="1"/>
        <pt x="1029" y="0" on="1"/>
        <pt x="991" y="0" on="1"/>
      </contour>
    </TTGlyph>
    <TTGlyph name="F_F_J.sc" xMin="88" yMin="-140" xMax="1040" yMax="577">
      <contour>
        <pt x="88" y="577" on="1"/>
        <pt x="434" y="577" on="1"/>
        <pt x="434" y="542" on="1"/>
        <pt x="126" y="542" on="1"/>
        <pt x="126" y="309" on="1"/>
        <pt x="410" y="309" on="1"/>
        <pt x="410" y="275" on="1"/>
        <pt x="126" y="275" on="1"/>
        <pt x="126" y="0" on="1"/>
        <pt x="88" y="0" on="1"/>
      </contour>
      <contour>
        <pt x="539" y="577" on="1"/>
        <pt x="885" y="577" on="1"/>
        <pt x="885" y="542" on="1"/>
        <pt x="577" y="542" on="1"/>
        <pt x="577" y="309" on="1"/>
        <pt x="861" y="309" on="1"/>
        <pt x="861" y="275" on="1"/>
        <pt x="577" y="275" on="1"/>
        <pt x="577" y="0" on="1"/>
        <pt x="539" y="0" on="1"/>
      </contour>
      <contour>
        <pt x="932" y="-124" on="1"/>
        <pt x="953" y="-85" on="0"/>
        <pt x="980" y="-22" on="0"/>
        <pt x="996" y="38" on="0"/>
        <pt x="1002" y="102" on="0"/>
        <pt x="1002" y="141" on="1"/>
        <pt x="1002" y="577" on="1"/>
        <pt x="1040" y="577" on="1"/>
        <pt x="1040" y="141" on="1"/>
        <pt x="1040" y="103" on="0"/>
        <pt x="1032" y="36" on="0"/>
        <pt x="1013" y="-30" on="0"/>
        <pt x="983" y="-100" on="0"/>
        <pt x="961" y="-140" on="1"/>
      </contour>
    </TTGlyph>
    <TTGlyph name="F_F_K.sc" xMin="88" yMin="0" xMax="1423" yMax="577">
      <contour>
        <pt x="88" y="577" on="1"/>
        <pt x="434" y="577" on="1"/>
        <pt x="434" y="542" on="1"/>
        <pt x="126" y="542" on="1"/>
        <pt x="126" y="309" on="1"/>
        <pt x="410" y="309" on="1"/>
        <pt x="410" y="275" on="1"/>
        <pt x="126" y="275" on="1"/>
        <pt x="126" y="0" on="1"/>
        <pt x="88" y="0" on="1"/>
      </contour>
      <contour>
        <pt x="539" y="577" on="1"/>
        <pt x="885" y="577" on="1"/>
        <pt x="885" y="542" on="1"/>
        <pt x="577" y="542" on="1"/>
        <pt x="577" y="309" on="1"/>
        <pt x="861" y="309" on="1"/>
        <pt x="861" y="275" on="1"/>
        <pt x="577" y="275" on="1"/>
        <pt x="577" y="0" on="1"/>
        <pt x="539" y="0" on="1"/>
      </contour>
      <contour>
        <pt x="991" y="577" on="1"/>
        <pt x="1029" y="577" on="1"/>
        <pt x="1029" y="312" on="1"/>
        <pt x="1148" y="312" on="1"/>
        <pt x="1361" y="577" on="1"/>
        <pt x="1408" y="577" on="1"/>
        <pt x="1200" y="317" on="1"/>
        <pt x="1177" y="298" on="1"/>
        <pt x="1177" y="294" on="1"/>
        <pt x="1201" y="275" on="1"/>
        <pt x="1423" y="0" on="1"/>
        <pt x="1378" y="0" on="1"/>
        <pt x="1153" y="277" on="1"/>
        <pt x="1029" y="277" on="1"/>
        <pt x="1029" y="0" on="1"/>
        <pt x="991" y="0" on="1"/>
      </contour>
    </TTGlyph>
    <TTGlyph name="F_F_L.sc" xMin="88" yMin="0" xMax="1304" yMax="577">
      <contour>
        <pt x="991" y="577" on="1"/>
        <pt x="1029" y="577" on="1"/>
        <pt x="1029" y="35" on="1"/>
        <pt x="1304" y="35" on="1"/>
        <pt x="1304" y="0" on="1"/>
        <pt x="991" y="0" on="1"/>
      </contour>
      <contour>
        <pt x="88" y="577" on="1"/>
        <pt x="434" y="577" on="1"/>
        <pt x="434" y="542" on="1"/>
        <pt x="126" y="542" on="1"/>
        <pt x="126" y="309" on="1"/>
        <pt x="410" y="309" on="1"/>
        <pt x="410" y="275" on="1"/>
        <pt x="126" y="275" on="1"/>
        <pt x="126" y="0" on="1"/>
        <pt x="88" y="0" on="1"/>
      </contour>
      <contour>
        <pt x="539" y="577" on="1"/>
        <pt x="885" y="577" on="1"/>
        <pt x="885" y="542" on="1"/>
        <pt x="577" y="542" on="1"/>
        <pt x="577" y="309" on="1"/>
        <pt x="861" y="309" on="1"/>
        <pt x="861" y="275" on="1"/>
        <pt x="577" y="275" on="1"/>
        <pt x="577" y="0" on="1"/>
        <pt x="539" y="0" on="1"/>
      </contour>
    </TTGlyph>
    <TTGlyph name="F_F_T.sc" xMin="88" yMin="0" xMax="1351" yMax="577">
      <contour>
        <pt x="1113" y="542" on="1"/>
        <pt x="913" y="542" on="1"/>
        <pt x="913" y="577" on="1"/>
        <pt x="1351" y="577" on="1"/>
        <pt x="1351" y="542" on="1"/>
        <pt x="1151" y="542" on="1"/>
        <pt x="1151" y="0" on="1"/>
        <pt x="1113" y="0" on="1"/>
      </contour>
      <contour>
        <pt x="88" y="577" on="1"/>
        <pt x="434" y="577" on="1"/>
        <pt x="434" y="542" on="1"/>
        <pt x="126" y="542" on="1"/>
        <pt x="126" y="309" on="1"/>
        <pt x="410" y="309" on="1"/>
        <pt x="410" y="275" on="1"/>
        <pt x="126" y="275" on="1"/>
        <pt x="126" y="0" on="1"/>
        <pt x="88" y="0" on="1"/>
      </contour>
      <contour>
        <pt x="539" y="577" on="1"/>
        <pt x="885" y="577" on="1"/>
        <pt x="885" y="542" on="1"/>
        <pt x="577" y="542" on="1"/>
        <pt x="577" y="309" on="1"/>
        <pt x="861" y="309" on="1"/>
        <pt x="861" y="275" on="1"/>
        <pt x="577" y="275" on="1"/>
        <pt x="577" y="0" on="1"/>
        <pt x="539" y="0" on="1"/>
      </contour>
    </TTGlyph>
    <TTGlyph name="F_H.sc" xMin="88" yMin="0" xMax="981" yMax="577">
      <contour>
        <pt x="88" y="577" on="1"/>
        <pt x="434" y="577" on="1"/>
        <pt x="434" y="542" on="1"/>
        <pt x="126" y="542" on="1"/>
        <pt x="126" y="309" on="1"/>
        <pt x="410" y="309" on="1"/>
        <pt x="410" y="275" on="1"/>
        <pt x="126" y="275" on="1"/>
        <pt x="126" y="0" on="1"/>
        <pt x="88" y="0" on="1"/>
      </contour>
      <contour>
        <pt x="539" y="577" on="1"/>
        <pt x="577" y="577" on="1"/>
        <pt x="577" y="313" on="1"/>
        <pt x="943" y="313" on="1"/>
        <pt x="943" y="577" on="1"/>
        <pt x="981" y="577" on="1"/>
        <pt x="981" y="0" on="1"/>
        <pt x="943" y="0" on="1"/>
        <pt x="943" y="278" on="1"/>
        <pt x="577" y="278" on="1"/>
        <pt x="577" y="0" on="1"/>
        <pt x="539" y="0" on="1"/>
      </contour>
    </TTGlyph>
    <TTGlyph name="F_I.sc" xMin="88" yMin="0" xMax="577" yMax="577">
      <contour>
        <pt x="88" y="577" on="1"/>
        <pt x="434" y="577" on="1"/>
        <pt x="434" y="542" on="1"/>
        <pt x="126" y="542" on="1"/>
        <pt x="126" y="309" on="1"/>
        <pt x="410" y="309" on="1"/>
        <pt x="410" y="275" on="1"/>
        <pt x="126" y="275" on="1"/>
        <pt x="126" y="0" on="1"/>
        <pt x="88" y="0" on="1"/>
      </contour>
      <contour>
        <pt x="539" y="577" on="1"/>
        <pt x="577" y="577" on="1"/>
        <pt x="577" y="0" on="1"/>
        <pt x="539" y="0" on="1"/>
      </contour>
    </TTGlyph>
    <TTGlyph name="F_J.sc" xMin="88" yMin="-140" xMax="589" yMax="577">
      <contour>
        <pt x="88" y="577" on="1"/>
        <pt x="434" y="577" on="1"/>
        <pt x="434" y="542" on="1"/>
        <pt x="126" y="542" on="1"/>
        <pt x="126" y="309" on="1"/>
        <pt x="410" y="309" on="1"/>
        <pt x="410" y="275" on="1"/>
        <pt x="126" y="275" on="1"/>
        <pt x="126" y="0" on="1"/>
        <pt x="88" y="0" on="1"/>
      </contour>
      <contour>
        <pt x="481" y="-124" on="1"/>
        <pt x="502" y="-85" on="0"/>
        <pt x="529" y="-22" on="0"/>
        <pt x="545" y="38" on="0"/>
        <pt x="551" y="102" on="0"/>
        <pt x="551" y="141" on="1"/>
        <pt x="551" y="577" on="1"/>
        <pt x="589" y="577" on="1"/>
        <pt x="589" y="141" on="1"/>
        <pt x="589" y="103" on="0"/>
        <pt x="581" y="36" on="0"/>
        <pt x="562" y="-30" on="0"/>
        <pt x="532" y="-100" on="0"/>
        <pt x="510" y="-140" on="1"/>
      </contour>
    </TTGlyph>
    <TTGlyph name="F_K.sc" xMin="88" yMin="0" xMax="971" yMax="577">
      <contour>
        <pt x="88" y="577" on="1"/>
        <pt x="434" y="577" on="1"/>
        <pt x="434" y="542" on="1"/>
        <pt x="126" y="542" on="1"/>
        <pt x="126" y="309" on="1"/>
        <pt x="410" y="309" on="1"/>
        <pt x="410" y="275" on="1"/>
        <pt x="126" y="275" on="1"/>
        <pt x="126" y="0" on="1"/>
        <pt x="88" y="0" on="1"/>
      </contour>
      <contour>
        <pt x="539" y="577" on="1"/>
        <pt x="577" y="577" on="1"/>
        <pt x="577" y="312" on="1"/>
        <pt x="696" y="312" on="1"/>
        <pt x="909" y="577" on="1"/>
        <pt x="956" y="577" on="1"/>
        <pt x="748" y="317" on="1"/>
        <pt x="725" y="298" on="1"/>
        <pt x="725" y="294" on="1"/>
        <pt x="749" y="275" on="1"/>
        <pt x="971" y="0" on="1"/>
        <pt x="926" y="0" on="1"/>
        <pt x="701" y="277" on="1"/>
        <pt x="577" y="277" on="1"/>
        <pt x="577" y="0" on="1"/>
        <pt x="539" y="0" on="1"/>
      </contour>
    </TTGlyph>
    <TTGlyph name="F_L.sc" xMin="88" yMin="0" xMax="852" yMax="577">
      <contour>
        <pt x="539" y="577" on="1"/>
        <pt x="577" y="577" on="1"/>
        <pt x="577" y="35" on="1"/>
        <pt x="852" y="35" on="1"/>
        <pt x="852" y="0" on="1"/>
        <pt x="539" y="0" on="1"/>
      </contour>
      <contour>
        <pt x="88" y="577" on="1"/>
        <pt x="434" y="577" on="1"/>
        <pt x="434" y="542" on="1"/>
        <pt x="126" y="542" on="1"/>
        <pt x="126" y="309" on="1"/>
        <pt x="410" y="309" on="1"/>
        <pt x="410" y="275" on="1"/>
        <pt x="126" y="275" on="1"/>
        <pt x="126" y="0" on="1"/>
        <pt x="88" y="0" on="1"/>
      </contour>
    </TTGlyph>
    <TTGlyph name="F_T.sc" xMin="88" yMin="0" xMax="900" yMax="577">
      <contour>
        <pt x="662" y="542" on="1"/>
        <pt x="462" y="542" on="1"/>
        <pt x="462" y="577" on="1"/>
        <pt x="900" y="577" on="1"/>
        <pt x="900" y="542" on="1"/>
        <pt x="700" y="542" on="1"/>
        <pt x="700" y="0" on="1"/>
        <pt x="662" y="0" on="1"/>
      </contour>
      <contour>
        <pt x="88" y="577" on="1"/>
        <pt x="434" y="577" on="1"/>
        <pt x="434" y="542" on="1"/>
        <pt x="126" y="542" on="1"/>
        <pt x="126" y="309" on="1"/>
        <pt x="410" y="309" on="1"/>
        <pt x="410" y="275" on="1"/>
        <pt x="126" y="275" on="1"/>
        <pt x="126" y="0" on="1"/>
        <pt x="88" y="0" on="1"/>
      </contour>
    </TTGlyph>
    <TTGlyph name="G" xMin="55" yMin="-9" xMax="538" yMax="749">
      <contour>
        <pt x="372" y="-9" on="1"/>
        <pt x="211" y="-7" on="0"/>
        <pt x="55" y="177" on="0"/>
        <pt x="55" y="369" on="1"/>
        <pt x="55" y="565" on="0"/>
        <pt x="211" y="749" on="0"/>
        <pt x="377" y="749" on="1"/>
        <pt x="410" y="749" on="0"/>
        <pt x="493" y="738" on="0"/>
        <pt x="537" y="728" on="1"/>
        <pt x="537" y="690" on="1"/>
        <pt x="487" y="702" on="0"/>
        <pt x="416" y="711" on="0"/>
        <pt x="379" y="711" on="1"/>
        <pt x="233" y="711" on="0"/>
        <pt x="95" y="545" on="0"/>
        <pt x="95" y="369" on="1"/>
        <pt x="95" y="29" on="0"/>
        <pt x="371" y="29" on="1"/>
        <pt x="394" y="29" on="0"/>
        <pt x="468" y="37" on="0"/>
        <pt x="501" y="43" on="1"/>
        <pt x="501" y="376" on="1"/>
        <pt x="538" y="376" on="1"/>
        <pt x="538" y="14" on="1"/>
        <pt x="496" y="3" on="0"/>
        <pt x="409" y="-9" on="0"/>
      </contour>
    </TTGlyph>
    <TTGlyph name="G.sc" xMin="55" yMin="-7" xMax="474" yMax="584">
      <contour>
        <pt x="327" y="-7" on="1"/>
        <pt x="189" y="-6" on="0"/>
        <pt x="55" y="139" on="0"/>
        <pt x="55" y="288" on="1"/>
        <pt x="55" y="440" on="0"/>
        <pt x="190" y="584" on="0"/>
        <pt x="332" y="584" on="1"/>
        <pt x="361" y="584" on="0"/>
        <pt x="434" y="575" on="0"/>
        <pt x="472" y="567" on="1"/>
        <pt x="472" y="531" on="1"/>
        <pt x="427" y="541" on="0"/>
        <pt x="367" y="549" on="0"/>
        <pt x="335" y="549" on="1"/>
        <pt x="212" y="549" on="0"/>
        <pt x="94" y="422" on="0"/>
        <pt x="94" y="288" on="1"/>
        <pt x="94" y="29" on="0"/>
        <pt x="327" y="29" on="1"/>
        <pt x="337" y="29" on="0"/>
        <pt x="364" y="31" on="0"/>
        <pt x="394" y="34" on="0"/>
        <pt x="424" y="38" on="0"/>
        <pt x="437" y="40" on="1"/>
        <pt x="437" y="293" on="1"/>
        <pt x="474" y="293" on="1"/>
        <pt x="474" y="12" on="1"/>
        <pt x="437" y="4" on="0"/>
        <pt x="359" y="-7" on="0"/>
      </contour>
    </TTGlyph>
    <TTGlyph name="Gacute" xMin="55" yMin="-9" xMax="538" yMax="922">
      <contour>
        <pt x="323" y="799" on="1"/>
        <pt x="402" y="922" on="1"/>
        <pt x="444" y="922" on="1"/>
        <pt x="358" y="794" on="1"/>
      </contour>
      <contour>
        <pt x="372" y="-9" on="1"/>
        <pt x="211" y="-7" on="0"/>
        <pt x="55" y="177" on="0"/>
        <pt x="55" y="369" on="1"/>
        <pt x="55" y="565" on="0"/>
        <pt x="211" y="749" on="0"/>
        <pt x="377" y="749" on="1"/>
        <pt x="410" y="749" on="0"/>
        <pt x="493" y="738" on="0"/>
        <pt x="537" y="728" on="1"/>
        <pt x="537" y="690" on="1"/>
        <pt x="487" y="702" on="0"/>
        <pt x="416" y="711" on="0"/>
        <pt x="379" y="711" on="1"/>
        <pt x="233" y="711" on="0"/>
        <pt x="95" y="545" on="0"/>
        <pt x="95" y="369" on="1"/>
        <pt x="95" y="29" on="0"/>
        <pt x="371" y="29" on="1"/>
        <pt x="394" y="29" on="0"/>
        <pt x="468" y="37" on="0"/>
        <pt x="501" y="43" on="1"/>
        <pt x="501" y="376" on="1"/>
        <pt x="538" y="376" on="1"/>
        <pt x="538" y="14" on="1"/>
        <pt x="496" y="3" on="0"/>
        <pt x="409" y="-9" on="0"/>
      </contour>
    </TTGlyph>
    <TTGlyph name="Gacute.sc" xMin="55" yMin="-7" xMax="474" yMax="723">
      <contour>
        <pt x="327" y="-7" on="1"/>
        <pt x="189" y="-6" on="0"/>
        <pt x="55" y="139" on="0"/>
        <pt x="55" y="288" on="1"/>
        <pt x="55" y="440" on="0"/>
        <pt x="190" y="584" on="0"/>
        <pt x="332" y="584" on="1"/>
        <pt x="361" y="584" on="0"/>
        <pt x="434" y="575" on="0"/>
        <pt x="472" y="567" on="1"/>
        <pt x="472" y="531" on="1"/>
        <pt x="427" y="541" on="0"/>
        <pt x="367" y="549" on="0"/>
        <pt x="335" y="549" on="1"/>
        <pt x="212" y="549" on="0"/>
        <pt x="94" y="422" on="0"/>
        <pt x="94" y="288" on="1"/>
        <pt x="94" y="29" on="0"/>
        <pt x="327" y="29" on="1"/>
        <pt x="337" y="29" on="0"/>
        <pt x="364" y="31" on="0"/>
        <pt x="394" y="34" on="0"/>
        <pt x="424" y="38" on="0"/>
        <pt x="437" y="40" on="1"/>
        <pt x="437" y="293" on="1"/>
        <pt x="474" y="293" on="1"/>
        <pt x="474" y="12" on="1"/>
        <pt x="437" y="4" on="0"/>
        <pt x="359" y="-7" on="0"/>
      </contour>
      <contour>
        <pt x="283" y="624" on="1"/>
        <pt x="349" y="723" on="1"/>
        <pt x="390" y="723" on="1"/>
        <pt x="316" y="621" on="1"/>
      </contour>
    </TTGlyph>
    <TTGlyph name="Gbreve" xMin="55" yMin="-9" xMax="538" yMax="949">
      <contour>
        <pt x="346" y="816" on="1"/>
        <pt x="274" y="816" on="0"/>
        <pt x="194" y="886" on="0"/>
        <pt x="194" y="949" on="1"/>
        <pt x="231" y="949" on="1"/>
        <pt x="231" y="903" on="0"/>
        <pt x="292" y="851" on="0"/>
        <pt x="346" y="851" on="1"/>
        <pt x="400" y="851" on="0"/>
        <pt x="461" y="903" on="0"/>
        <pt x="461" y="949" on="1"/>
        <pt x="498" y="949" on="1"/>
        <pt x="498" y="886" on="0"/>
        <pt x="417" y="816" on="0"/>
      </contour>
      <contour>
        <pt x="372" y="-9" on="1"/>
        <pt x="211" y="-7" on="0"/>
        <pt x="55" y="177" on="0"/>
        <pt x="55" y="369" on="1"/>
        <pt x="55" y="565" on="0"/>
        <pt x="211" y="749" on="0"/>
        <pt x="377" y="749" on="1"/>
        <pt x="410" y="749" on="0"/>
        <pt x="493" y="738" on="0"/>
        <pt x="537" y="728" on="1"/>
        <pt x="537" y="690" on="1"/>
        <pt x="487" y="702" on="0"/>
        <pt x="416" y="711" on="0"/>
        <pt x="379" y="711" on="1"/>
        <pt x="233" y="711" on="0"/>
        <pt x="95" y="545" on="0"/>
        <pt x="95" y="369" on="1"/>
        <pt x="95" y="29" on="0"/>
        <pt x="371" y="29" on="1"/>
        <pt x="394" y="29" on="0"/>
        <pt x="468" y="37" on="0"/>
        <pt x="501" y="43" on="1"/>
        <pt x="501" y="376" on="1"/>
        <pt x="538" y="376" on="1"/>
        <pt x="538" y="14" on="1"/>
        <pt x="496" y="3" on="0"/>
        <pt x="409" y="-9" on="0"/>
      </contour>
    </TTGlyph>
    <TTGlyph name="Gbreve.sc" xMin="55" yMin="-7" xMax="474" yMax="742">
      <contour>
        <pt x="327" y="-7" on="1"/>
        <pt x="189" y="-6" on="0"/>
        <pt x="55" y="139" on="0"/>
        <pt x="55" y="288" on="1"/>
        <pt x="55" y="440" on="0"/>
        <pt x="190" y="584" on="0"/>
        <pt x="332" y="584" on="1"/>
        <pt x="361" y="584" on="0"/>
        <pt x="434" y="575" on="0"/>
        <pt x="472" y="567" on="1"/>
        <pt x="472" y="531" on="1"/>
        <pt x="427" y="541" on="0"/>
        <pt x="367" y="549" on="0"/>
        <pt x="335" y="549" on="1"/>
        <pt x="212" y="549" on="0"/>
        <pt x="94" y="422" on="0"/>
        <pt x="94" y="288" on="1"/>
        <pt x="94" y="29" on="0"/>
        <pt x="327" y="29" on="1"/>
        <pt x="337" y="29" on="0"/>
        <pt x="364" y="31" on="0"/>
        <pt x="394" y="34" on="0"/>
        <pt x="424" y="38" on="0"/>
        <pt x="437" y="40" on="1"/>
        <pt x="437" y="293" on="1"/>
        <pt x="474" y="293" on="1"/>
        <pt x="474" y="12" on="1"/>
        <pt x="437" y="4" on="0"/>
        <pt x="359" y="-7" on="0"/>
      </contour>
      <contour>
        <pt x="304" y="635" on="1"/>
        <pt x="241" y="635" on="0"/>
        <pt x="172" y="692" on="0"/>
        <pt x="172" y="742" on="1"/>
        <pt x="206" y="742" on="1"/>
        <pt x="206" y="706" on="0"/>
        <pt x="257" y="666" on="0"/>
        <pt x="304" y="666" on="1"/>
        <pt x="351" y="666" on="0"/>
        <pt x="402" y="706" on="0"/>
        <pt x="402" y="742" on="1"/>
        <pt x="437" y="742" on="1"/>
        <pt x="437" y="692" on="0"/>
        <pt x="367" y="635" on="0"/>
      </contour>
    </TTGlyph>
    <TTGlyph name="Gcircumflex" xMin="55" yMin="-9" xMax="538" yMax="934">
      <contour>
        <pt x="372" y="-9" on="1"/>
        <pt x="211" y="-7" on="0"/>
        <pt x="55" y="177" on="0"/>
        <pt x="55" y="369" on="1"/>
        <pt x="55" y="565" on="0"/>
        <pt x="211" y="749" on="0"/>
        <pt x="377" y="749" on="1"/>
        <pt x="410" y="749" on="0"/>
        <pt x="493" y="738" on="0"/>
        <pt x="537" y="728" on="1"/>
        <pt x="537" y="690" on="1"/>
        <pt x="487" y="702" on="0"/>
        <pt x="416" y="711" on="0"/>
        <pt x="379" y="711" on="1"/>
        <pt x="233" y="711" on="0"/>
        <pt x="95" y="545" on="0"/>
        <pt x="95" y="369" on="1"/>
        <pt x="95" y="29" on="0"/>
        <pt x="371" y="29" on="1"/>
        <pt x="394" y="29" on="0"/>
        <pt x="468" y="37" on="0"/>
        <pt x="501" y="43" on="1"/>
        <pt x="501" y="376" on="1"/>
        <pt x="538" y="376" on="1"/>
        <pt x="538" y="14" on="1"/>
        <pt x="496" y="3" on="0"/>
        <pt x="409" y="-9" on="0"/>
      </contour>
      <contour>
        <pt x="207" y="862" on="1"/>
        <pt x="345" y="934" on="1"/>
        <pt x="482" y="862" on="1"/>
        <pt x="482" y="818" on="1"/>
        <pt x="345" y="890" on="1"/>
        <pt x="207" y="818" on="1"/>
      </contour>
    </TTGlyph>
    <TTGlyph name="Gcircumflex.sc" xMin="55" yMin="-7" xMax="474" yMax="732">
      <contour>
        <pt x="327" y="-7" on="1"/>
        <pt x="189" y="-6" on="0"/>
        <pt x="55" y="139" on="0"/>
        <pt x="55" y="288" on="1"/>
        <pt x="55" y="440" on="0"/>
        <pt x="190" y="584" on="0"/>
        <pt x="332" y="584" on="1"/>
        <pt x="361" y="584" on="0"/>
        <pt x="434" y="575" on="0"/>
        <pt x="472" y="567" on="1"/>
        <pt x="472" y="531" on="1"/>
        <pt x="427" y="541" on="0"/>
        <pt x="367" y="549" on="0"/>
        <pt x="335" y="549" on="1"/>
        <pt x="212" y="549" on="0"/>
        <pt x="94" y="422" on="0"/>
        <pt x="94" y="288" on="1"/>
        <pt x="94" y="29" on="0"/>
        <pt x="327" y="29" on="1"/>
        <pt x="337" y="29" on="0"/>
        <pt x="364" y="31" on="0"/>
        <pt x="394" y="34" on="0"/>
        <pt x="424" y="38" on="0"/>
        <pt x="437" y="40" on="1"/>
        <pt x="437" y="293" on="1"/>
        <pt x="474" y="293" on="1"/>
        <pt x="474" y="12" on="1"/>
        <pt x="437" y="4" on="0"/>
        <pt x="359" y="-7" on="0"/>
      </contour>
      <contour>
        <pt x="183" y="675" on="1"/>
        <pt x="304" y="732" on="1"/>
        <pt x="424" y="675" on="1"/>
        <pt x="424" y="637" on="1"/>
        <pt x="304" y="693" on="1"/>
        <pt x="183" y="637" on="1"/>
      </contour>
    </TTGlyph>
    <TTGlyph name="Gcommaaccent" xMin="55" yMin="-220" xMax="538" yMax="749">
      <contour>
        <pt x="337" y="-68" on="1"/>
        <pt x="378" y="-68" on="1"/>
        <pt x="324" y="-220" on="1"/>
        <pt x="286" y="-220" on="1"/>
      </contour>
      <contour>
        <pt x="372" y="-9" on="1"/>
        <pt x="211" y="-7" on="0"/>
        <pt x="55" y="177" on="0"/>
        <pt x="55" y="369" on="1"/>
        <pt x="55" y="565" on="0"/>
        <pt x="211" y="749" on="0"/>
        <pt x="377" y="749" on="1"/>
        <pt x="410" y="749" on="0"/>
        <pt x="493" y="738" on="0"/>
        <pt x="537" y="728" on="1"/>
        <pt x="537" y="690" on="1"/>
        <pt x="487" y="702" on="0"/>
        <pt x="416" y="711" on="0"/>
        <pt x="379" y="711" on="1"/>
        <pt x="233" y="711" on="0"/>
        <pt x="95" y="545" on="0"/>
        <pt x="95" y="369" on="1"/>
        <pt x="95" y="29" on="0"/>
        <pt x="371" y="29" on="1"/>
        <pt x="394" y="29" on="0"/>
        <pt x="468" y="37" on="0"/>
        <pt x="501" y="43" on="1"/>
        <pt x="501" y="376" on="1"/>
        <pt x="538" y="376" on="1"/>
        <pt x="538" y="14" on="1"/>
        <pt x="496" y="3" on="0"/>
        <pt x="409" y="-9" on="0"/>
      </contour>
    </TTGlyph>
    <TTGlyph name="Gcommaaccent.sc" xMin="55" yMin="-172" xMax="474" yMax="584">
      <contour>
        <pt x="327" y="-7" on="1"/>
        <pt x="189" y="-6" on="0"/>
        <pt x="55" y="139" on="0"/>
        <pt x="55" y="288" on="1"/>
        <pt x="55" y="440" on="0"/>
        <pt x="190" y="584" on="0"/>
        <pt x="332" y="584" on="1"/>
        <pt x="361" y="584" on="0"/>
        <pt x="434" y="575" on="0"/>
        <pt x="472" y="567" on="1"/>
        <pt x="472" y="531" on="1"/>
        <pt x="427" y="541" on="0"/>
        <pt x="367" y="549" on="0"/>
        <pt x="335" y="549" on="1"/>
        <pt x="212" y="549" on="0"/>
        <pt x="94" y="422" on="0"/>
        <pt x="94" y="288" on="1"/>
        <pt x="94" y="29" on="0"/>
        <pt x="327" y="29" on="1"/>
        <pt x="337" y="29" on="0"/>
        <pt x="364" y="31" on="0"/>
        <pt x="394" y="34" on="0"/>
        <pt x="424" y="38" on="0"/>
        <pt x="437" y="40" on="1"/>
        <pt x="437" y="293" on="1"/>
        <pt x="474" y="293" on="1"/>
        <pt x="474" y="12" on="1"/>
        <pt x="437" y="4" on="0"/>
        <pt x="359" y="-7" on="0"/>
      </contour>
      <contour>
        <pt x="294" y="-54" on="1"/>
        <pt x="334" y="-54" on="1"/>
        <pt x="287" y="-172" on="1"/>
        <pt x="251" y="-172" on="1"/>
      </contour>
    </TTGlyph>
    <TTGlyph name="Gdotaccent" xMin="55" yMin="-9" xMax="538" yMax="879">
      <contour>
        <pt x="345" y="813" on="1"/>
        <pt x="331" y="813" on="0"/>
        <pt x="312" y="829" on="0"/>
        <pt x="312" y="846" on="1"/>
        <pt x="312" y="863" on="0"/>
        <pt x="331" y="879" on="0"/>
        <pt x="345" y="879" on="1"/>
        <pt x="359" y="879" on="0"/>
        <pt x="379" y="863" on="0"/>
        <pt x="379" y="846" on="1"/>
        <pt x="379" y="829" on="0"/>
        <pt x="359" y="813" on="0"/>
      </contour>
      <contour>
        <pt x="372" y="-9" on="1"/>
        <pt x="211" y="-7" on="0"/>
        <pt x="55" y="177" on="0"/>
        <pt x="55" y="369" on="1"/>
        <pt x="55" y="565" on="0"/>
        <pt x="211" y="749" on="0"/>
        <pt x="377" y="749" on="1"/>
        <pt x="410" y="749" on="0"/>
        <pt x="493" y="738" on="0"/>
        <pt x="537" y="728" on="1"/>
        <pt x="537" y="690" on="1"/>
        <pt x="487" y="702" on="0"/>
        <pt x="416" y="711" on="0"/>
        <pt x="379" y="711" on="1"/>
        <pt x="233" y="711" on="0"/>
        <pt x="95" y="545" on="0"/>
        <pt x="95" y="369" on="1"/>
        <pt x="95" y="29" on="0"/>
        <pt x="371" y="29" on="1"/>
        <pt x="394" y="29" on="0"/>
        <pt x="468" y="37" on="0"/>
        <pt x="501" y="43" on="1"/>
        <pt x="501" y="376" on="1"/>
        <pt x="538" y="376" on="1"/>
        <pt x="538" y="14" on="1"/>
        <pt x="496" y="3" on="0"/>
        <pt x="409" y="-9" on="0"/>
      </contour>
    </TTGlyph>
    <TTGlyph name="Gdotaccent.sc" xMin="55" yMin="-7" xMax="474" yMax="693">
      <contour>
        <pt x="327" y="-7" on="1"/>
        <pt x="189" y="-6" on="0"/>
        <pt x="55" y="139" on="0"/>
        <pt x="55" y="288" on="1"/>
        <pt x="55" y="440" on="0"/>
        <pt x="190" y="584" on="0"/>
        <pt x="332" y="584" on="1"/>
        <pt x="361" y="584" on="0"/>
        <pt x="434" y="575" on="0"/>
        <pt x="472" y="567" on="1"/>
        <pt x="472" y="531" on="1"/>
        <pt x="427" y="541" on="0"/>
        <pt x="367" y="549" on="0"/>
        <pt x="335" y="549" on="1"/>
        <pt x="212" y="549" on="0"/>
        <pt x="94" y="422" on="0"/>
        <pt x="94" y="288" on="1"/>
        <pt x="94" y="29" on="0"/>
        <pt x="327" y="29" on="1"/>
        <pt x="337" y="29" on="0"/>
        <pt x="364" y="31" on="0"/>
        <pt x="394" y="34" on="0"/>
        <pt x="424" y="38" on="0"/>
        <pt x="437" y="40" on="1"/>
        <pt x="437" y="293" on="1"/>
        <pt x="474" y="293" on="1"/>
        <pt x="474" y="12" on="1"/>
        <pt x="437" y="4" on="0"/>
        <pt x="359" y="-7" on="0"/>
      </contour>
      <contour>
        <pt x="305" y="635" on="1"/>
        <pt x="291" y="635" on="0"/>
        <pt x="273" y="648" on="0"/>
        <pt x="273" y="664" on="1"/>
        <pt x="273" y="679" on="0"/>
        <pt x="291" y="693" on="0"/>
        <pt x="305" y="693" on="1"/>
        <pt x="317" y="693" on="0"/>
        <pt x="336" y="680" on="0"/>
        <pt x="336" y="664" on="1"/>
        <pt x="336" y="648" on="0"/>
        <pt x="317" y="635" on="0"/>
      </contour>
    </TTGlyph>
    <TTGlyph name="H" xMin="93" yMin="0" xMax="600" yMax="740">
      <contour>
        <pt x="93" y="740" on="1"/>
        <pt x="131" y="740" on="1"/>
        <pt x="131" y="397" on="1"/>
        <pt x="562" y="397" on="1"/>
        <pt x="562" y="740" on="1"/>
        <pt x="600" y="740" on="1"/>
        <pt x="600" y="0" on="1"/>
        <pt x="562" y="0" on="1"/>
        <pt x="562" y="360" on="1"/>
        <pt x="131" y="360" on="1"/>
        <pt x="131" y="0" on="1"/>
        <pt x="93" y="0" on="1"/>
      </contour>
    </TTGlyph>
    <TTGlyph name="H.sc" xMin="88" yMin="0" xMax="530" yMax="577">
      <contour>
        <pt x="88" y="577" on="1"/>
        <pt x="126" y="577" on="1"/>
        <pt x="126" y="313" on="1"/>
        <pt x="492" y="313" on="1"/>
        <pt x="492" y="577" on="1"/>
        <pt x="530" y="577" on="1"/>
        <pt x="530" y="0" on="1"/>
        <pt x="492" y="0" on="1"/>
        <pt x="492" y="278" on="1"/>
        <pt x="126" y="278" on="1"/>
        <pt x="126" y="0" on="1"/>
        <pt x="88" y="0" on="1"/>
      </contour>
    </TTGlyph>
    <TTGlyph name="Hbar" xMin="5" yMin="0" xMax="710" yMax="740">
      <contour>
        <pt x="5" y="581" on="1"/>
        <pt x="104" y="581" on="1"/>
        <pt x="104" y="740" on="1"/>
        <pt x="142" y="740" on="1"/>
        <pt x="142" y="581" on="1"/>
        <pt x="573" y="581" on="1"/>
        <pt x="573" y="740" on="1"/>
        <pt x="611" y="740" on="1"/>
        <pt x="611" y="581" on="1"/>
        <pt x="710" y="581" on="1"/>
        <pt x="710" y="550" on="1"/>
        <pt x="611" y="550" on="1"/>
        <pt x="611" y="0" on="1"/>
        <pt x="573" y="0" on="1"/>
        <pt x="573" y="360" on="1"/>
        <pt x="142" y="360" on="1"/>
        <pt x="142" y="0" on="1"/>
        <pt x="104" y="0" on="1"/>
        <pt x="104" y="550" on="1"/>
        <pt x="5" y="550" on="1"/>
      </contour>
      <contour>
        <pt x="573" y="397" on="1"/>
        <pt x="573" y="550" on="1"/>
        <pt x="142" y="550" on="1"/>
        <pt x="142" y="397" on="1"/>
      </contour>
    </TTGlyph>
    <TTGlyph name="Hbar.sc" xMin="12" yMin="0" xMax="622" yMax="577">
      <contour>
        <pt x="12" y="456" on="1"/>
        <pt x="96" y="456" on="1"/>
        <pt x="96" y="577" on="1"/>
        <pt x="134" y="577" on="1"/>
        <pt x="134" y="456" on="1"/>
        <pt x="500" y="456" on="1"/>
        <pt x="500" y="577" on="1"/>
        <pt x="538" y="577" on="1"/>
        <pt x="538" y="456" on="1"/>
        <pt x="622" y="456" on="1"/>
        <pt x="622" y="428" on="1"/>
        <pt x="538" y="428" on="1"/>
        <pt x="538" y="0" on="1"/>
        <pt x="500" y="0" on="1"/>
        <pt x="500" y="278" on="1"/>
        <pt x="134" y="278" on="1"/>
        <pt x="134" y="0" on="1"/>
        <pt x="96" y="0" on="1"/>
        <pt x="96" y="428" on="1"/>
        <pt x="12" y="428" on="1"/>
      </contour>
      <contour>
        <pt x="500" y="313" on="1"/>
        <pt x="500" y="428" on="1"/>
        <pt x="134" y="428" on="1"/>
        <pt x="134" y="313" on="1"/>
      </contour>
    </TTGlyph>
    <TTGlyph name="Hcircumflex" xMin="93" yMin="0" xMax="600" yMax="934">
      <contour>
        <pt x="93" y="740" on="1"/>
        <pt x="131" y="740" on="1"/>
        <pt x="131" y="397" on="1"/>
        <pt x="562" y="397" on="1"/>
        <pt x="562" y="740" on="1"/>
        <pt x="600" y="740" on="1"/>
        <pt x="600" y="0" on="1"/>
        <pt x="562" y="0" on="1"/>
        <pt x="562" y="360" on="1"/>
        <pt x="131" y="360" on="1"/>
        <pt x="131" y="0" on="1"/>
        <pt x="93" y="0" on="1"/>
      </contour>
      <contour>
        <pt x="199" y="862" on="1"/>
        <pt x="337" y="934" on="1"/>
        <pt x="474" y="862" on="1"/>
        <pt x="474" y="818" on="1"/>
        <pt x="337" y="890" on="1"/>
        <pt x="199" y="818" on="1"/>
      </contour>
    </TTGlyph>
    <TTGlyph name="Hcircumflex.sc" xMin="88" yMin="0" xMax="530" yMax="732">
      <contour>
        <pt x="88" y="577" on="1"/>
        <pt x="126" y="577" on="1"/>
        <pt x="126" y="313" on="1"/>
        <pt x="492" y="313" on="1"/>
        <pt x="492" y="577" on="1"/>
        <pt x="530" y="577" on="1"/>
        <pt x="530" y="0" on="1"/>
        <pt x="492" y="0" on="1"/>
        <pt x="492" y="278" on="1"/>
        <pt x="126" y="278" on="1"/>
        <pt x="126" y="0" on="1"/>
        <pt x="88" y="0" on="1"/>
      </contour>
      <contour>
        <pt x="181" y="675" on="1"/>
        <pt x="301" y="732" on="1"/>
        <pt x="421" y="675" on="1"/>
        <pt x="421" y="637" on="1"/>
        <pt x="301" y="693" on="1"/>
        <pt x="181" y="637" on="1"/>
      </contour>
    </TTGlyph>
    <TTGlyph name="Hdotbelow" xMin="93" yMin="-166" xMax="600" yMax="740">
      <contour>
        <pt x="93" y="740" on="1"/>
        <pt x="131" y="740" on="1"/>
        <pt x="131" y="397" on="1"/>
        <pt x="562" y="397" on="1"/>
        <pt x="562" y="740" on="1"/>
        <pt x="600" y="740" on="1"/>
        <pt x="600" y="0" on="1"/>
        <pt x="562" y="0" on="1"/>
        <pt x="562" y="360" on="1"/>
        <pt x="131" y="360" on="1"/>
        <pt x="131" y="0" on="1"/>
        <pt x="93" y="0" on="1"/>
      </contour>
      <contour>
        <pt x="356" y="-166" on="1"/>
        <pt x="339" y="-166" on="0"/>
        <pt x="319" y="-149" on="0"/>
        <pt x="319" y="-129" on="1"/>
        <pt x="319" y="-109" on="0"/>
        <pt x="339" y="-92" on="0"/>
        <pt x="356" y="-92" on="1"/>
        <pt x="372" y="-92" on="0"/>
        <pt x="394" y="-109" on="0"/>
        <pt x="394" y="-129" on="1"/>
        <pt x="394" y="-149" on="0"/>
        <pt x="372" y="-166" on="0"/>
      </contour>
    </TTGlyph>
    <TTGlyph name="Hdotbelow.sc" xMin="88" yMin="-133" xMax="530" yMax="577">
      <contour>
        <pt x="88" y="577" on="1"/>
        <pt x="126" y="577" on="1"/>
        <pt x="126" y="313" on="1"/>
        <pt x="492" y="313" on="1"/>
        <pt x="492" y="577" on="1"/>
        <pt x="530" y="577" on="1"/>
        <pt x="530" y="0" on="1"/>
        <pt x="492" y="0" on="1"/>
        <pt x="492" y="278" on="1"/>
        <pt x="126" y="278" on="1"/>
        <pt x="126" y="0" on="1"/>
        <pt x="88" y="0" on="1"/>
      </contour>
      <contour>
        <pt x="317" y="-133" on="1"/>
        <pt x="302" y="-133" on="0"/>
        <pt x="284" y="-119" on="0"/>
        <pt x="284" y="-102" on="1"/>
        <pt x="284" y="-85" on="0"/>
        <pt x="302" y="-70" on="0"/>
        <pt x="317" y="-70" on="1"/>
        <pt x="332" y="-70" on="0"/>
        <pt x="350" y="-85" on="0"/>
        <pt x="350" y="-102" on="1"/>
        <pt x="350" y="-119" on="0"/>
        <pt x="332" y="-133" on="0"/>
      </contour>
    </TTGlyph>
    <TTGlyph name="I" xMin="93" yMin="0" xMax="131" yMax="740">
      <contour>
        <pt x="93" y="740" on="1"/>
        <pt x="131" y="740" on="1"/>
        <pt x="131" y="0" on="1"/>
        <pt x="93" y="0" on="1"/>
      </contour>
    </TTGlyph>
    <TTGlyph name="I.sc" xMin="88" yMin="0" xMax="126" yMax="577">
      <contour>
        <pt x="88" y="577" on="1"/>
        <pt x="126" y="577" on="1"/>
        <pt x="126" y="0" on="1"/>
        <pt x="88" y="0" on="1"/>
      </contour>
    </TTGlyph>
    <TTGlyph name="IJ" xMin="93" yMin="-177" xMax="356" yMax="740">
      <contour>
        <pt x="93" y="740" on="1"/>
        <pt x="131" y="740" on="1"/>
        <pt x="131" y="0" on="1"/>
        <pt x="93" y="0" on="1"/>
      </contour>
      <contour>
        <pt x="236" y="-160" on="1"/>
        <pt x="260" y="-110" on="0"/>
        <pt x="292" y="-28" on="0"/>
        <pt x="310" y="49" on="0"/>
        <pt x="318" y="130" on="0"/>
        <pt x="318" y="180" on="1"/>
        <pt x="318" y="740" on="1"/>
        <pt x="356" y="740" on="1"/>
        <pt x="356" y="180" on="1"/>
        <pt x="356" y="132" on="0"/>
        <pt x="346" y="47" on="0"/>
        <pt x="324" y="-38" on="0"/>
        <pt x="290" y="-126" on="0"/>
        <pt x="265" y="-177" on="1"/>
      </contour>
    </TTGlyph>
    <TTGlyph name="Iacute" xMin="91" yMin="0" xMax="212" yMax="922">
      <contour>
        <pt x="93" y="740" on="1"/>
        <pt x="131" y="740" on="1"/>
        <pt x="131" y="0" on="1"/>
        <pt x="93" y="0" on="1"/>
      </contour>
      <contour>
        <pt x="91" y="799" on="1"/>
        <pt x="170" y="922" on="1"/>
        <pt x="212" y="922" on="1"/>
        <pt x="126" y="794" on="1"/>
      </contour>
    </TTGlyph>
    <TTGlyph name="Iacute.sc" xMin="87" yMin="0" xMax="194" yMax="723">
      <contour>
        <pt x="88" y="577" on="1"/>
        <pt x="126" y="577" on="1"/>
        <pt x="126" y="0" on="1"/>
        <pt x="88" y="0" on="1"/>
      </contour>
      <contour>
        <pt x="87" y="624" on="1"/>
        <pt x="154" y="723" on="1"/>
        <pt x="194" y="723" on="1"/>
        <pt x="120" y="621" on="1"/>
      </contour>
    </TTGlyph>
    <TTGlyph name="Ibreve" xMin="-38" yMin="0" xMax="266" yMax="949">
      <contour>
        <pt x="93" y="740" on="1"/>
        <pt x="131" y="740" on="1"/>
        <pt x="131" y="0" on="1"/>
        <pt x="93" y="0" on="1"/>
      </contour>
      <contour>
        <pt x="114" y="816" on="1"/>
        <pt x="42" y="816" on="0"/>
        <pt x="-38" y="886" on="0"/>
        <pt x="-38" y="949" on="1"/>
        <pt x="-1" y="949" on="1"/>
        <pt x="-1" y="903" on="0"/>
        <pt x="60" y="851" on="0"/>
        <pt x="114" y="851" on="1"/>
        <pt x="168" y="851" on="0"/>
        <pt x="229" y="903" on="0"/>
        <pt x="229" y="949" on="1"/>
        <pt x="266" y="949" on="1"/>
        <pt x="266" y="886" on="0"/>
        <pt x="185" y="816" on="0"/>
      </contour>
    </TTGlyph>
    <TTGlyph name="Ibreve.sc" xMin="-24" yMin="0" xMax="241" yMax="742">
      <contour>
        <pt x="88" y="577" on="1"/>
        <pt x="126" y="577" on="1"/>
        <pt x="126" y="0" on="1"/>
        <pt x="88" y="0" on="1"/>
      </contour>
      <contour>
        <pt x="109" y="635" on="1"/>
        <pt x="46" y="635" on="0"/>
        <pt x="-24" y="692" on="0"/>
        <pt x="-24" y="742" on="1"/>
        <pt x="10" y="742" on="1"/>
        <pt x="10" y="706" on="0"/>
        <pt x="62" y="666" on="0"/>
        <pt x="109" y="666" on="1"/>
        <pt x="155" y="666" on="0"/>
        <pt x="207" y="706" on="0"/>
        <pt x="207" y="742" on="1"/>
        <pt x="241" y="742" on="1"/>
        <pt x="241" y="692" on="0"/>
        <pt x="172" y="635" on="0"/>
      </contour>
    </TTGlyph>
    <TTGlyph name="Icircumflex" xMin="-24" yMin="0" xMax="251" yMax="934">
      <contour>
        <pt x="93" y="740" on="1"/>
        <pt x="131" y="740" on="1"/>
        <pt x="131" y="0" on="1"/>
        <pt x="93" y="0" on="1"/>
      </contour>
      <contour>
        <pt x="-24" y="862" on="1"/>
        <pt x="114" y="934" on="1"/>
        <pt x="251" y="862" on="1"/>
        <pt x="251" y="818" on="1"/>
        <pt x="114" y="890" on="1"/>
        <pt x="-24" y="818" on="1"/>
      </contour>
    </TTGlyph>
    <TTGlyph name="Icircumflex.sc" xMin="-12" yMin="0" xMax="228" yMax="732">
      <contour>
        <pt x="88" y="577" on="1"/>
        <pt x="126" y="577" on="1"/>
        <pt x="126" y="0" on="1"/>
        <pt x="88" y="0" on="1"/>
      </contour>
      <contour>
        <pt x="-12" y="675" on="1"/>
        <pt x="109" y="732" on="1"/>
        <pt x="228" y="675" on="1"/>
        <pt x="228" y="637" on="1"/>
        <pt x="109" y="693" on="1"/>
        <pt x="-12" y="637" on="1"/>
      </contour>
    </TTGlyph>
    <TTGlyph name="Idblgrave" xMin="-52" yMin="0" xMax="198" yMax="917">
      <contour>
        <pt x="93" y="740" on="1"/>
        <pt x="131" y="740" on="1"/>
        <pt x="131" y="0" on="1"/>
        <pt x="93" y="0" on="1"/>
      </contour>
      <contour>
        <pt x="34" y="789" on="1"/>
        <pt x="-52" y="917" on="1"/>
        <pt x="-10" y="917" on="1"/>
        <pt x="68" y="803" on="1"/>
      </contour>
      <contour>
        <pt x="163" y="789" on="1"/>
        <pt x="77" y="917" on="1"/>
        <pt x="119" y="917" on="1"/>
        <pt x="198" y="803" on="1"/>
      </contour>
    </TTGlyph>
    <TTGlyph name="Idblgrave.sc" xMin="-37" yMin="0" xMax="183" yMax="719">
      <contour>
        <pt x="88" y="577" on="1"/>
        <pt x="126" y="577" on="1"/>
        <pt x="126" y="0" on="1"/>
        <pt x="88" y="0" on="1"/>
      </contour>
      <contour>
        <pt x="38" y="616" on="1"/>
        <pt x="-37" y="719" on="1"/>
        <pt x="3" y="719" on="1"/>
        <pt x="70" y="627" on="1"/>
      </contour>
      <contour>
        <pt x="151" y="616" on="1"/>
        <pt x="76" y="719" on="1"/>
        <pt x="116" y="719" on="1"/>
        <pt x="183" y="627" on="1"/>
      </contour>
    </TTGlyph>
    <TTGlyph name="Idieresis" xMin="-28" yMin="0" xMax="257" yMax="889">
      <contour>
        <pt x="93" y="740" on="1"/>
        <pt x="131" y="740" on="1"/>
        <pt x="131" y="0" on="1"/>
        <pt x="93" y="0" on="1"/>
      </contour>
      <contour>
        <pt x="5" y="823" on="1"/>
        <pt x="-9" y="823" on="0"/>
        <pt x="-28" y="839" on="0"/>
        <pt x="-28" y="856" on="1"/>
        <pt x="-28" y="873" on="0"/>
        <pt x="-9" y="889" on="0"/>
        <pt x="5" y="889" on="1"/>
        <pt x="19" y="889" on="0"/>
        <pt x="39" y="873" on="0"/>
        <pt x="39" y="856" on="1"/>
        <pt x="39" y="839" on="0"/>
        <pt x="19" y="823" on="0"/>
      </contour>
      <contour>
        <pt x="223" y="823" on="1"/>
        <pt x="209" y="823" on="0"/>
        <pt x="190" y="839" on="0"/>
        <pt x="190" y="856" on="1"/>
        <pt x="190" y="873" on="0"/>
        <pt x="209" y="889" on="0"/>
        <pt x="223" y="889" on="1"/>
        <pt x="236" y="889" on="0"/>
        <pt x="257" y="873" on="0"/>
        <pt x="257" y="856" on="1"/>
        <pt x="257" y="839" on="0"/>
        <pt x="236" y="823" on="0"/>
      </contour>
    </TTGlyph>
    <TTGlyph name="Idieresis.sc" xMin="-18" yMin="0" xMax="235" yMax="701">
      <contour>
        <pt x="88" y="577" on="1"/>
        <pt x="126" y="577" on="1"/>
        <pt x="126" y="0" on="1"/>
        <pt x="88" y="0" on="1"/>
      </contour>
      <contour>
        <pt x="12" y="642" on="1"/>
        <pt x="-2" y="642" on="0"/>
        <pt x="-18" y="656" on="0"/>
        <pt x="-18" y="671" on="1"/>
        <pt x="-18" y="687" on="0"/>
        <pt x="-2" y="701" on="0"/>
        <pt x="12" y="701" on="1"/>
        <pt x="26" y="701" on="0"/>
        <pt x="44" y="687" on="0"/>
        <pt x="44" y="671" on="1"/>
        <pt x="44" y="655" on="0"/>
        <pt x="26" y="642" on="0"/>
      </contour>
      <contour>
        <pt x="204" y="642" on="1"/>
        <pt x="190" y="642" on="0"/>
        <pt x="173" y="656" on="0"/>
        <pt x="173" y="671" on="1"/>
        <pt x="173" y="687" on="0"/>
        <pt x="190" y="701" on="0"/>
        <pt x="204" y="701" on="1"/>
        <pt x="217" y="701" on="0"/>
        <pt x="235" y="687" on="0"/>
        <pt x="235" y="671" on="1"/>
        <pt x="235" y="655" on="0"/>
        <pt x="217" y="642" on="0"/>
      </contour>
    </TTGlyph>
    <TTGlyph name="Idotaccent" xMin="81" yMin="0" xMax="148" yMax="879">
      <contour>
        <pt x="93" y="740" on="1"/>
        <pt x="131" y="740" on="1"/>
        <pt x="131" y="0" on="1"/>
        <pt x="93" y="0" on="1"/>
      </contour>
      <contour>
        <pt x="114" y="813" on="1"/>
        <pt x="100" y="813" on="0"/>
        <pt x="81" y="829" on="0"/>
        <pt x="81" y="846" on="1"/>
        <pt x="81" y="863" on="0"/>
        <pt x="100" y="879" on="0"/>
        <pt x="114" y="879" on="1"/>
        <pt x="128" y="879" on="0"/>
        <pt x="148" y="863" on="0"/>
        <pt x="148" y="846" on="1"/>
        <pt x="148" y="829" on="0"/>
        <pt x="128" y="813" on="0"/>
      </contour>
    </TTGlyph>
    <TTGlyph name="Idotaccent.sc" xMin="77" yMin="0" xMax="139" yMax="693">
      <contour>
        <pt x="88" y="577" on="1"/>
        <pt x="126" y="577" on="1"/>
        <pt x="126" y="0" on="1"/>
        <pt x="88" y="0" on="1"/>
      </contour>
      <contour>
        <pt x="108" y="635" on="1"/>
        <pt x="94" y="635" on="0"/>
        <pt x="77" y="648" on="0"/>
        <pt x="77" y="664" on="1"/>
        <pt x="77" y="679" on="0"/>
        <pt x="94" y="693" on="0"/>
        <pt x="108" y="693" on="1"/>
        <pt x="122" y="693" on="0"/>
        <pt x="139" y="680" on="0"/>
        <pt x="139" y="664" on="1"/>
        <pt x="139" y="648" on="0"/>
        <pt x="122" y="635" on="0"/>
      </contour>
    </TTGlyph>
    <TTGlyph name="Idotbelow" xMin="77" yMin="-166" xMax="152" yMax="740">
      <contour>
        <pt x="93" y="740" on="1"/>
        <pt x="131" y="740" on="1"/>
        <pt x="131" y="0" on="1"/>
        <pt x="93" y="0" on="1"/>
      </contour>
      <contour>
        <pt x="114" y="-166" on="1"/>
        <pt x="97" y="-166" on="0"/>
        <pt x="77" y="-149" on="0"/>
        <pt x="77" y="-129" on="1"/>
        <pt x="77" y="-109" on="0"/>
        <pt x="97" y="-92" on="0"/>
        <pt x="114" y="-92" on="1"/>
        <pt x="130" y="-92" on="0"/>
        <pt x="152" y="-109" on="0"/>
        <pt x="152" y="-129" on="1"/>
        <pt x="152" y="-149" on="0"/>
        <pt x="130" y="-166" on="0"/>
      </contour>
    </TTGlyph>
    <TTGlyph name="Idotbelow.sc" xMin="75" yMin="-133" xMax="142" yMax="577">
      <contour>
        <pt x="88" y="577" on="1"/>
        <pt x="126" y="577" on="1"/>
        <pt x="126" y="0" on="1"/>
        <pt x="88" y="0" on="1"/>
      </contour>
      <contour>
        <pt x="108" y="-133" on="1"/>
        <pt x="93" y="-133" on="0"/>
        <pt x="75" y="-119" on="0"/>
        <pt x="75" y="-102" on="1"/>
        <pt x="75" y="-85" on="0"/>
        <pt x="93" y="-70" on="0"/>
        <pt x="108" y="-70" on="1"/>
        <pt x="123" y="-70" on="0"/>
        <pt x="142" y="-85" on="0"/>
        <pt x="142" y="-102" on="1"/>
        <pt x="142" y="-119" on="0"/>
        <pt x="123" y="-133" on="0"/>
      </contour>
    </TTGlyph>
    <TTGlyph name="Igrave" xMin="10" yMin="0" xMax="131" yMax="922">
      <contour>
        <pt x="93" y="740" on="1"/>
        <pt x="131" y="740" on="1"/>
        <pt x="131" y="0" on="1"/>
        <pt x="93" y="0" on="1"/>
      </contour>
      <contour>
        <pt x="96" y="794" on="1"/>
        <pt x="10" y="922" on="1"/>
        <pt x="52" y="922" on="1"/>
        <pt x="131" y="808" on="1"/>
      </contour>
    </TTGlyph>
    <TTGlyph name="Igrave.sc" xMin="18" yMin="0" xMax="126" yMax="723">
      <contour>
        <pt x="88" y="577" on="1"/>
        <pt x="126" y="577" on="1"/>
        <pt x="126" y="0" on="1"/>
        <pt x="88" y="0" on="1"/>
      </contour>
      <contour>
        <pt x="92" y="621" on="1"/>
        <pt x="18" y="723" on="1"/>
        <pt x="59" y="723" on="1"/>
        <pt x="126" y="631" on="1"/>
      </contour>
    </TTGlyph>
    <TTGlyph name="Iinvertedbreve" xMin="-39" yMin="0" xMax="265" yMax="954">
      <contour>
        <pt x="93" y="740" on="1"/>
        <pt x="131" y="740" on="1"/>
        <pt x="131" y="0" on="1"/>
        <pt x="93" y="0" on="1"/>
      </contour>
      <contour>
        <pt x="228" y="821" on="1"/>
        <pt x="228" y="867" on="0"/>
        <pt x="167" y="919" on="0"/>
        <pt x="113" y="919" on="1"/>
        <pt x="59" y="919" on="0"/>
        <pt x="-2" y="867" on="0"/>
        <pt x="-2" y="821" on="1"/>
        <pt x="-39" y="821" on="1"/>
        <pt x="-39" y="883" on="0"/>
        <pt x="41" y="954" on="0"/>
        <pt x="113" y="954" on="1"/>
        <pt x="184" y="954" on="0"/>
        <pt x="265" y="883" on="0"/>
        <pt x="265" y="821" on="1"/>
      </contour>
    </TTGlyph>
    <TTGlyph name="Iinvertedbreve.sc" xMin="-25" yMin="0" xMax="240" yMax="746">
      <contour>
        <pt x="88" y="577" on="1"/>
        <pt x="126" y="577" on="1"/>
        <pt x="126" y="0" on="1"/>
        <pt x="88" y="0" on="1"/>
      </contour>
      <contour>
        <pt x="206" y="639" on="1"/>
        <pt x="206" y="675" on="0"/>
        <pt x="155" y="715" on="0"/>
        <pt x="108" y="715" on="1"/>
        <pt x="61" y="715" on="0"/>
        <pt x="10" y="675" on="0"/>
        <pt x="10" y="639" on="1"/>
        <pt x="-25" y="639" on="1"/>
        <pt x="-25" y="689" on="0"/>
        <pt x="45" y="746" on="0"/>
        <pt x="108" y="746" on="1"/>
        <pt x="171" y="746" on="0"/>
        <pt x="240" y="689" on="0"/>
        <pt x="240" y="639" on="1"/>
      </contour>
    </TTGlyph>
    <TTGlyph name="Imacron" xMin="-20" yMin="0" xMax="237" yMax="878">
      <contour>
        <pt x="93" y="740" on="1"/>
        <pt x="131" y="740" on="1"/>
        <pt x="131" y="0" on="1"/>
        <pt x="93" y="0" on="1"/>
      </contour>
      <contour>
        <pt x="-20" y="878" on="1"/>
        <pt x="237" y="878" on="1"/>
        <pt x="237" y="842" on="1"/>
        <pt x="-20" y="842" on="1"/>
      </contour>
    </TTGlyph>
    <TTGlyph name="Imacron.sc" xMin="-8" yMin="0" xMax="219" yMax="690">
      <contour>
        <pt x="88" y="577" on="1"/>
        <pt x="126" y="577" on="1"/>
        <pt x="126" y="0" on="1"/>
        <pt x="88" y="0" on="1"/>
      </contour>
      <contour>
        <pt x="-8" y="690" on="1"/>
        <pt x="219" y="690" on="1"/>
        <pt x="219" y="656" on="1"/>
        <pt x="-8" y="656" on="1"/>
      </contour>
    </TTGlyph>
    <TTGlyph name="Iogonek" xMin="-11" yMin="-220" xMax="131" yMax="740">
      <contour>
        <pt x="93" y="740" on="1"/>
        <pt x="131" y="740" on="1"/>
        <pt x="131" y="-21" on="1"/>
        <pt x="74" y="-50" on="0"/>
        <pt x="25" y="-105" on="0"/>
        <pt x="25" y="-140" on="1"/>
        <pt x="25" y="-165" on="0"/>
        <pt x="49" y="-187" on="0"/>
        <pt x="76" y="-187" on="1"/>
        <pt x="104" y="-187" on="0"/>
        <pt x="130" y="-177" on="1"/>
        <pt x="130" y="-208" on="1"/>
        <pt x="104" y="-220" on="0"/>
        <pt x="70" y="-220" on="1"/>
        <pt x="-11" y="-220" on="0"/>
        <pt x="-11" y="-142" on="1"/>
        <pt x="-11" y="-101" on="0"/>
        <pt x="39" y="-36" on="0"/>
        <pt x="99" y="0" on="1"/>
        <pt x="93" y="0" on="1"/>
      </contour>
    </TTGlyph>
    <TTGlyph name="Iogonek.sc" xMin="0" yMin="-172" xMax="126" yMax="577">
      <contour>
        <pt x="88" y="577" on="1"/>
        <pt x="126" y="577" on="1"/>
        <pt x="126" y="-16" on="1"/>
        <pt x="83" y="-33" on="0"/>
        <pt x="34" y="-79" on="0"/>
        <pt x="34" y="-108" on="1"/>
        <pt x="34" y="-127" on="0"/>
        <pt x="56" y="-142" on="0"/>
        <pt x="77" y="-142" on="1"/>
        <pt x="101" y="-142" on="0"/>
        <pt x="125" y="-134" on="1"/>
        <pt x="125" y="-162" on="1"/>
        <pt x="100" y="-172" on="0"/>
        <pt x="72" y="-172" on="1"/>
        <pt x="0" y="-172" on="0"/>
        <pt x="0" y="-110" on="1"/>
        <pt x="0" y="-78" on="0"/>
        <pt x="40" y="-30" on="0"/>
        <pt x="92" y="0" on="1"/>
        <pt x="88" y="0" on="1"/>
      </contour>
    </TTGlyph>
    <TTGlyph name="Itilde" xMin="-51" yMin="0" xMax="291" yMax="908">
      <contour>
        <pt x="93" y="740" on="1"/>
        <pt x="131" y="740" on="1"/>
        <pt x="131" y="0" on="1"/>
        <pt x="93" y="0" on="1"/>
      </contour>
      <contour>
        <pt x="-51" y="859" on="1"/>
        <pt x="-30" y="881" on="0"/>
        <pt x="23" y="908" on="0"/>
        <pt x="49" y="908" on="1"/>
        <pt x="71" y="908" on="0"/>
        <pt x="106" y="895" on="0"/>
        <pt x="139" y="878" on="0"/>
        <pt x="172" y="865" on="0"/>
        <pt x="191" y="865" on="1"/>
        <pt x="211" y="865" on="0"/>
        <pt x="249" y="886" on="0"/>
        <pt x="265" y="904" on="1"/>
        <pt x="291" y="882" on="1"/>
        <pt x="273" y="859" on="0"/>
        <pt x="218" y="830" on="0"/>
        <pt x="189" y="830" on="1"/>
        <pt x="169" y="830" on="0"/>
        <pt x="134" y="843" on="0"/>
        <pt x="101" y="860" on="0"/>
        <pt x="68" y="873" on="0"/>
        <pt x="50" y="873" on="1"/>
        <pt x="30" y="873" on="0"/>
        <pt x="-10" y="852" on="0"/>
        <pt x="-27" y="835" on="1"/>
      </contour>
    </TTGlyph>
    <TTGlyph name="Itilde.sc" xMin="-35" yMin="0" xMax="264" yMax="713">
      <contour>
        <pt x="88" y="577" on="1"/>
        <pt x="126" y="577" on="1"/>
        <pt x="126" y="0" on="1"/>
        <pt x="88" y="0" on="1"/>
      </contour>
      <contour>
        <pt x="-35" y="670" on="1"/>
        <pt x="-16" y="690" on="0"/>
        <pt x="30" y="713" on="0"/>
        <pt x="53" y="713" on="1"/>
        <pt x="71" y="713" on="0"/>
        <pt x="102" y="703" on="0"/>
        <pt x="131" y="690" on="0"/>
        <pt x="159" y="680" on="0"/>
        <pt x="176" y="680" on="1"/>
        <pt x="212" y="680" on="0"/>
        <pt x="242" y="710" on="1"/>
        <pt x="264" y="692" on="1"/>
        <pt x="247" y="672" on="0"/>
        <pt x="199" y="647" on="0"/>
        <pt x="173" y="647" on="1"/>
        <pt x="156" y="647" on="0"/>
        <pt x="126" y="658" on="0"/>
        <pt x="96" y="670" on="0"/>
        <pt x="67" y="681" on="0"/>
        <pt x="51" y="681" on="1"/>
        <pt x="17" y="681" on="0"/>
        <pt x="-15" y="651" on="1"/>
      </contour>
    </TTGlyph>
    <TTGlyph name="J" xMin="13" yMin="-177" xMax="133" yMax="740">
      <contour>
        <pt x="13" y="-160" on="1"/>
        <pt x="37" y="-110" on="0"/>
        <pt x="69" y="-28" on="0"/>
        <pt x="87" y="49" on="0"/>
        <pt x="95" y="130" on="0"/>
        <pt x="95" y="180" on="1"/>
        <pt x="95" y="740" on="1"/>
        <pt x="133" y="740" on="1"/>
        <pt x="133" y="180" on="1"/>
        <pt x="133" y="132" on="0"/>
        <pt x="123" y="47" on="0"/>
        <pt x="101" y="-38" on="0"/>
        <pt x="67" y="-126" on="0"/>
        <pt x="42" y="-177" on="1"/>
      </contour>
    </TTGlyph>
    <TTGlyph name="J.sc" xMin="20" yMin="-140" xMax="128" yMax="577">
      <contour>
        <pt x="20" y="-124" on="1"/>
        <pt x="41" y="-85" on="0"/>
        <pt x="68" y="-22" on="0"/>
        <pt x="84" y="38" on="0"/>
        <pt x="90" y="102" on="0"/>
        <pt x="90" y="141" on="1"/>
        <pt x="90" y="577" on="1"/>
        <pt x="128" y="577" on="1"/>
        <pt x="128" y="141" on="1"/>
        <pt x="128" y="103" on="0"/>
        <pt x="120" y="36" on="0"/>
        <pt x="101" y="-30" on="0"/>
        <pt x="71" y="-100" on="0"/>
        <pt x="49" y="-140" on="1"/>
      </contour>
    </TTGlyph>
    <TTGlyph name="Jcircumflex" xMin="-25" yMin="-177" xMax="250" yMax="934">
      <contour>
        <pt x="13" y="-160" on="1"/>
        <pt x="37" y="-110" on="0"/>
        <pt x="69" y="-28" on="0"/>
        <pt x="87" y="49" on="0"/>
        <pt x="95" y="130" on="0"/>
        <pt x="95" y="180" on="1"/>
        <pt x="95" y="740" on="1"/>
        <pt x="133" y="740" on="1"/>
        <pt x="133" y="180" on="1"/>
        <pt x="133" y="132" on="0"/>
        <pt x="123" y="47" on="0"/>
        <pt x="101" y="-38" on="0"/>
        <pt x="67" y="-126" on="0"/>
        <pt x="42" y="-177" on="1"/>
      </contour>
      <contour>
        <pt x="-25" y="862" on="1"/>
        <pt x="113" y="934" on="1"/>
        <pt x="250" y="862" on="1"/>
        <pt x="250" y="818" on="1"/>
        <pt x="113" y="890" on="1"/>
        <pt x="-25" y="818" on="1"/>
      </contour>
    </TTGlyph>
    <TTGlyph name="Jcircumflex.sc" xMin="-12" yMin="-140" xMax="228" yMax="732">
      <contour>
        <pt x="20" y="-124" on="1"/>
        <pt x="40" y="-85" on="0"/>
        <pt x="67" y="-22" on="0"/>
        <pt x="83" y="38" on="0"/>
        <pt x="89" y="102" on="0"/>
        <pt x="89" y="141" on="1"/>
        <pt x="89" y="577" on="1"/>
        <pt x="127" y="577" on="1"/>
        <pt x="127" y="141" on="1"/>
        <pt x="127" y="103" on="0"/>
        <pt x="119" y="36" on="0"/>
        <pt x="100" y="-30" on="0"/>
        <pt x="70" y="-100" on="0"/>
        <pt x="48" y="-140" on="1"/>
      </contour>
      <contour>
        <pt x="-12" y="675" on="1"/>
        <pt x="108" y="732" on="1"/>
        <pt x="228" y="675" on="1"/>
        <pt x="228" y="637" on="1"/>
        <pt x="108" y="693" on="1"/>
        <pt x="-12" y="637" on="1"/>
      </contour>
    </TTGlyph>
    <TTGlyph name="K" xMin="93" yMin="0" xMax="590" yMax="740">
      <contour>
        <pt x="93" y="740" on="1"/>
        <pt x="131" y="740" on="1"/>
        <pt x="131" y="396" on="1"/>
        <pt x="268" y="396" on="1"/>
        <pt x="524" y="740" on="1"/>
        <pt x="571" y="740" on="1"/>
        <pt x="323" y="406" on="1"/>
        <pt x="299" y="381" on="1"/>
        <pt x="299" y="376" on="1"/>
        <pt x="326" y="353" on="1"/>
        <pt x="590" y="0" on="1"/>
        <pt x="544" y="0" on="1"/>
        <pt x="275" y="359" on="1"/>
        <pt x="131" y="359" on="1"/>
        <pt x="131" y="0" on="1"/>
        <pt x="93" y="0" on="1"/>
      </contour>
    </TTGlyph>
    <TTGlyph name="K.sc" xMin="88" yMin="0" xMax="520" yMax="577">
      <contour>
        <pt x="88" y="577" on="1"/>
        <pt x="126" y="577" on="1"/>
        <pt x="126" y="312" on="1"/>
        <pt x="245" y="312" on="1"/>
        <pt x="458" y="577" on="1"/>
        <pt x="505" y="577" on="1"/>
        <pt x="297" y="317" on="1"/>
        <pt x="274" y="298" on="1"/>
        <pt x="274" y="294" on="1"/>
        <pt x="298" y="275" on="1"/>
        <pt x="520" y="0" on="1"/>
        <pt x="475" y="0" on="1"/>
        <pt x="250" y="277" on="1"/>
        <pt x="126" y="277" on="1"/>
        <pt x="126" y="0" on="1"/>
        <pt x="88" y="0" on="1"/>
      </contour>
    </TTGlyph>
    <TTGlyph name="Kcommaaccent" xMin="93" yMin="-220" xMax="590" yMax="740">
      <contour>
        <pt x="300" y="-68" on="1"/>
        <pt x="341" y="-68" on="1"/>
        <pt x="287" y="-220" on="1"/>
        <pt x="249" y="-220" on="1"/>
      </contour>
      <contour>
        <pt x="93" y="740" on="1"/>
        <pt x="131" y="740" on="1"/>
        <pt x="131" y="396" on="1"/>
        <pt x="268" y="396" on="1"/>
        <pt x="524" y="740" on="1"/>
        <pt x="571" y="740" on="1"/>
        <pt x="323" y="406" on="1"/>
        <pt x="299" y="381" on="1"/>
        <pt x="299" y="376" on="1"/>
        <pt x="326" y="353" on="1"/>
        <pt x="590" y="0" on="1"/>
        <pt x="544" y="0" on="1"/>
        <pt x="275" y="359" on="1"/>
        <pt x="131" y="359" on="1"/>
        <pt x="131" y="0" on="1"/>
        <pt x="93" y="0" on="1"/>
      </contour>
    </TTGlyph>
    <TTGlyph name="Kcommaaccent.sc" xMin="88" yMin="-172" xMax="520" yMax="577">
      <contour>
        <pt x="88" y="577" on="1"/>
        <pt x="126" y="577" on="1"/>
        <pt x="126" y="312" on="1"/>
        <pt x="245" y="312" on="1"/>
        <pt x="458" y="577" on="1"/>
        <pt x="505" y="577" on="1"/>
        <pt x="297" y="317" on="1"/>
        <pt x="274" y="298" on="1"/>
        <pt x="274" y="294" on="1"/>
        <pt x="298" y="275" on="1"/>
        <pt x="520" y="0" on="1"/>
        <pt x="475" y="0" on="1"/>
        <pt x="250" y="277" on="1"/>
        <pt x="126" y="277" on="1"/>
        <pt x="126" y="0" on="1"/>
        <pt x="88" y="0" on="1"/>
      </contour>
      <contour>
        <pt x="266" y="-54" on="1"/>
        <pt x="306" y="-54" on="1"/>
        <pt x="259" y="-172" on="1"/>
        <pt x="223" y="-172" on="1"/>
      </contour>
    </TTGlyph>
    <TTGlyph name="L" xMin="93" yMin="0" xMax="450" yMax="740">
      <contour>
        <pt x="93" y="740" on="1"/>
        <pt x="131" y="740" on="1"/>
        <pt x="131" y="37" on="1"/>
        <pt x="450" y="37" on="1"/>
        <pt x="450" y="0" on="1"/>
        <pt x="93" y="0" on="1"/>
      </contour>
    </TTGlyph>
    <TTGlyph name="L.sc" xMin="88" yMin="0" xMax="401" yMax="577">
      <contour>
        <pt x="88" y="577" on="1"/>
        <pt x="126" y="577" on="1"/>
        <pt x="126" y="35" on="1"/>
        <pt x="401" y="35" on="1"/>
        <pt x="401" y="0" on="1"/>
        <pt x="88" y="0" on="1"/>
      </contour>
    </TTGlyph>
    <TTGlyph name="Lacute" xMin="93" yMin="0" xMax="450" yMax="922">
      <contour>
        <pt x="99" y="799" on="1"/>
        <pt x="178" y="922" on="1"/>
        <pt x="220" y="922" on="1"/>
        <pt x="134" y="794" on="1"/>
      </contour>
      <contour>
        <pt x="93" y="740" on="1"/>
        <pt x="131" y="740" on="1"/>
        <pt x="131" y="37" on="1"/>
        <pt x="450" y="37" on="1"/>
        <pt x="450" y="0" on="1"/>
        <pt x="93" y="0" on="1"/>
      </contour>
    </TTGlyph>
    <TTGlyph name="Lacute.sc" xMin="88" yMin="0" xMax="402" yMax="723">
      <contour>
        <pt x="88" y="577" on="1"/>
        <pt x="126" y="577" on="1"/>
        <pt x="126" y="35" on="1"/>
        <pt x="402" y="35" on="1"/>
        <pt x="402" y="0" on="1"/>
        <pt x="88" y="0" on="1"/>
      </contour>
      <contour>
        <pt x="93" y="624" on="1"/>
        <pt x="160" y="723" on="1"/>
        <pt x="201" y="723" on="1"/>
        <pt x="126" y="621" on="1"/>
      </contour>
    </TTGlyph>
    <TTGlyph name="Lcaron" xMin="93" yMin="0" xMax="450" yMax="742">
      <contour>
        <pt x="356" y="742" on="1"/>
        <pt x="393" y="742" on="1"/>
        <pt x="373" y="514" on="1"/>
        <pt x="356" y="514" on="1"/>
      </contour>
      <contour>
        <pt x="93" y="740" on="1"/>
        <pt x="131" y="740" on="1"/>
        <pt x="131" y="37" on="1"/>
        <pt x="450" y="37" on="1"/>
        <pt x="450" y="0" on="1"/>
        <pt x="93" y="0" on="1"/>
      </contour>
    </TTGlyph>
    <TTGlyph name="Lcaron.sc" xMin="88" yMin="0" xMax="401" yMax="581">
      <contour>
        <pt x="88" y="577" on="1"/>
        <pt x="126" y="577" on="1"/>
        <pt x="126" y="35" on="1"/>
        <pt x="401" y="35" on="1"/>
        <pt x="401" y="0" on="1"/>
        <pt x="88" y="0" on="1"/>
      </contour>
      <contour>
        <pt x="319" y="581" on="1"/>
        <pt x="355" y="581" on="1"/>
        <pt x="336" y="404" on="1"/>
        <pt x="319" y="404" on="1"/>
      </contour>
    </TTGlyph>
    <TTGlyph name="Lcommaaccent" xMin="93" yMin="-220" xMax="450" yMax="740">
      <contour>
        <pt x="265" y="-68" on="1"/>
        <pt x="306" y="-68" on="1"/>
        <pt x="252" y="-220" on="1"/>
        <pt x="214" y="-220" on="1"/>
      </contour>
      <contour>
        <pt x="93" y="740" on="1"/>
        <pt x="131" y="740" on="1"/>
        <pt x="131" y="37" on="1"/>
        <pt x="450" y="37" on="1"/>
        <pt x="450" y="0" on="1"/>
        <pt x="93" y="0" on="1"/>
      </contour>
    </TTGlyph>
    <TTGlyph name="Lcommaaccent.sc" xMin="88" yMin="-172" xMax="401" yMax="577">
      <contour>
        <pt x="88" y="577" on="1"/>
        <pt x="126" y="577" on="1"/>
        <pt x="126" y="35" on="1"/>
        <pt x="401" y="35" on="1"/>
        <pt x="401" y="0" on="1"/>
        <pt x="88" y="0" on="1"/>
      </contour>
      <contour>
        <pt x="235" y="-54" on="1"/>
        <pt x="275" y="-54" on="1"/>
        <pt x="228" y="-172" on="1"/>
        <pt x="192" y="-172" on="1"/>
      </contour>
    </TTGlyph>
    <TTGlyph name="Ldot" xMin="93" yMin="0" xMax="450" yMax="740">
      <contour>
        <pt x="93" y="740" on="1"/>
        <pt x="131" y="740" on="1"/>
        <pt x="131" y="37" on="1"/>
        <pt x="450" y="37" on="1"/>
        <pt x="450" y="0" on="1"/>
        <pt x="93" y="0" on="1"/>
      </contour>
      <contour>
        <pt x="367" y="337" on="1"/>
        <pt x="353" y="337" on="0"/>
        <pt x="335" y="353" on="0"/>
        <pt x="335" y="370" on="1"/>
        <pt x="335" y="387" on="0"/>
        <pt x="353" y="403" on="0"/>
        <pt x="367" y="403" on="1"/>
        <pt x="381" y="403" on="0"/>
        <pt x="401" y="387" on="0"/>
        <pt x="401" y="370" on="1"/>
        <pt x="401" y="353" on="0"/>
        <pt x="381" y="337" on="0"/>
      </contour>
    </TTGlyph>
    <TTGlyph name="Ldot.sc" xMin="88" yMin="0" xMax="401" yMax="577">
      <contour>
        <pt x="88" y="577" on="1"/>
        <pt x="126" y="577" on="1"/>
        <pt x="126" y="35" on="1"/>
        <pt x="401" y="35" on="1"/>
        <pt x="401" y="0" on="1"/>
        <pt x="88" y="0" on="1"/>
      </contour>
      <contour>
        <pt x="332" y="260" on="1"/>
        <pt x="318" y="260" on="0"/>
        <pt x="301" y="274" on="0"/>
        <pt x="301" y="290" on="1"/>
        <pt x="301" y="305" on="0"/>
        <pt x="318" y="319" on="0"/>
        <pt x="332" y="319" on="1"/>
        <pt x="345" y="319" on="0"/>
        <pt x="363" y="306" on="0"/>
        <pt x="363" y="290" on="1"/>
        <pt x="363" y="274" on="0"/>
        <pt x="345" y="260" on="0"/>
      </contour>
    </TTGlyph>
    <TTGlyph name="Lslash" xMin="15" yMin="0" xMax="473" yMax="740">
      <contour>
        <pt x="15" y="268" on="1"/>
        <pt x="116" y="345" on="1"/>
        <pt x="116" y="740" on="1"/>
        <pt x="154" y="740" on="1"/>
        <pt x="154" y="375" on="1"/>
        <pt x="301" y="488" on="1"/>
        <pt x="301" y="443" on="1"/>
        <pt x="154" y="330" on="1"/>
        <pt x="154" y="37" on="1"/>
        <pt x="473" y="37" on="1"/>
        <pt x="473" y="0" on="1"/>
        <pt x="116" y="0" on="1"/>
        <pt x="116" y="300" on="1"/>
        <pt x="15" y="223" on="1"/>
      </contour>
    </TTGlyph>
    <TTGlyph name="Lslash.sc" xMin="23" yMin="0" xMax="422" yMax="577">
      <contour>
        <pt x="23" y="214" on="1"/>
        <pt x="108" y="274" on="1"/>
        <pt x="108" y="577" on="1"/>
        <pt x="146" y="577" on="1"/>
        <pt x="146" y="299" on="1"/>
        <pt x="274" y="384" on="1"/>
        <pt x="274" y="344" on="1"/>
        <pt x="146" y="259" on="1"/>
        <pt x="146" y="35" on="1"/>
        <pt x="422" y="35" on="1"/>
        <pt x="422" y="0" on="1"/>
        <pt x="108" y="0" on="1"/>
        <pt x="108" y="233" on="1"/>
        <pt x="23" y="174" on="1"/>
      </contour>
    </TTGlyph>
    <TTGlyph name="M" xMin="93" yMin="0" xMax="754" yMax="740">
      <contour>
        <pt x="93" y="740" on="1"/>
        <pt x="143" y="740" on="1"/>
        <pt x="365" y="209" on="1"/>
        <pt x="421" y="71" on="1"/>
        <pt x="425" y="71" on="1"/>
        <pt x="482" y="209" on="1"/>
        <pt x="703" y="740" on="1"/>
        <pt x="754" y="740" on="1"/>
        <pt x="754" y="0" on="1"/>
        <pt x="717" y="0" on="1"/>
        <pt x="717" y="668" on="1"/>
        <pt x="712" y="668" on="1"/>
        <pt x="639" y="494" on="1"/>
        <pt x="446" y="29" on="1"/>
        <pt x="401" y="29" on="1"/>
        <pt x="207" y="494" on="1"/>
        <pt x="134" y="668" on="1"/>
        <pt x="130" y="668" on="1"/>
        <pt x="130" y="0" on="1"/>
        <pt x="93" y="0" on="1"/>
      </contour>
    </TTGlyph>
    <TTGlyph name="M.sc" xMin="88" yMin="0" xMax="662" yMax="577">
      <contour>
        <pt x="88" y="577" on="1"/>
        <pt x="138" y="577" on="1"/>
        <pt x="323" y="176" on="1"/>
        <pt x="372" y="65" on="1"/>
        <pt x="377" y="65" on="1"/>
        <pt x="427" y="176" on="1"/>
        <pt x="612" y="577" on="1"/>
        <pt x="662" y="577" on="1"/>
        <pt x="662" y="0" on="1"/>
        <pt x="625" y="0" on="1"/>
        <pt x="625" y="515" on="1"/>
        <pt x="622" y="515" on="1"/>
        <pt x="557" y="373" on="1"/>
        <pt x="397" y="24" on="1"/>
        <pt x="353" y="24" on="1"/>
        <pt x="193" y="373" on="1"/>
        <pt x="129" y="515" on="1"/>
        <pt x="125" y="515" on="1"/>
        <pt x="125" y="0" on="1"/>
        <pt x="88" y="0" on="1"/>
      </contour>
    </TTGlyph>
    <TTGlyph name="N" xMin="93" yMin="0" xMax="628" yMax="740">
      <contour>
        <pt x="93" y="740" on="1"/>
        <pt x="133" y="740" on="1"/>
        <pt x="530" y="152" on="1"/>
        <pt x="586" y="64" on="1"/>
        <pt x="590" y="65" on="1"/>
        <pt x="590" y="740" on="1"/>
        <pt x="628" y="740" on="1"/>
        <pt x="628" y="0" on="1"/>
        <pt x="587" y="0" on="1"/>
        <pt x="188" y="589" on="1"/>
        <pt x="134" y="674" on="1"/>
        <pt x="130" y="674" on="1"/>
        <pt x="130" y="0" on="1"/>
        <pt x="93" y="0" on="1"/>
      </contour>
    </TTGlyph>
    <TTGlyph name="N.sc" xMin="88" yMin="0" xMax="551" yMax="577">
      <contour>
        <pt x="88" y="577" on="1"/>
        <pt x="126" y="577" on="1"/>
        <pt x="462" y="131" on="1"/>
        <pt x="511" y="62" on="1"/>
        <pt x="515" y="62" on="1"/>
        <pt x="515" y="577" on="1"/>
        <pt x="551" y="577" on="1"/>
        <pt x="551" y="0" on="1"/>
        <pt x="513" y="0" on="1"/>
        <pt x="174" y="447" on="1"/>
        <pt x="129" y="514" on="1"/>
        <pt x="124" y="514" on="1"/>
        <pt x="124" y="0" on="1"/>
        <pt x="88" y="0" on="1"/>
      </contour>
    </TTGlyph>
    <TTGlyph name="Nacute" xMin="93" yMin="0" xMax="628" yMax="922">
      <contour>
        <pt x="340" y="799" on="1"/>
        <pt x="419" y="922" on="1"/>
        <pt x="461" y="922" on="1"/>
        <pt x="375" y="794" on="1"/>
      </contour>
      <contour>
        <pt x="93" y="740" on="1"/>
        <pt x="133" y="740" on="1"/>
        <pt x="530" y="152" on="1"/>
        <pt x="586" y="64" on="1"/>
        <pt x="590" y="65" on="1"/>
        <pt x="590" y="740" on="1"/>
        <pt x="628" y="740" on="1"/>
        <pt x="628" y="0" on="1"/>
        <pt x="587" y="0" on="1"/>
        <pt x="188" y="589" on="1"/>
        <pt x="134" y="674" on="1"/>
        <pt x="130" y="674" on="1"/>
        <pt x="130" y="0" on="1"/>
        <pt x="93" y="0" on="1"/>
      </contour>
    </TTGlyph>
    <TTGlyph name="Nacute.sc" xMin="88" yMin="0" xMax="551" yMax="723">
      <contour>
        <pt x="88" y="577" on="1"/>
        <pt x="126" y="577" on="1"/>
        <pt x="462" y="131" on="1"/>
        <pt x="511" y="62" on="1"/>
        <pt x="515" y="62" on="1"/>
        <pt x="515" y="577" on="1"/>
        <pt x="551" y="577" on="1"/>
        <pt x="551" y="0" on="1"/>
        <pt x="513" y="0" on="1"/>
        <pt x="174" y="447" on="1"/>
        <pt x="129" y="514" on="1"/>
        <pt x="124" y="514" on="1"/>
        <pt x="124" y="0" on="1"/>
        <pt x="88" y="0" on="1"/>
      </contour>
      <contour>
        <pt x="300" y="624" on="1"/>
        <pt x="366" y="723" on="1"/>
        <pt x="407" y="723" on="1"/>
        <pt x="333" y="621" on="1"/>
      </contour>
    </TTGlyph>
    <TTGlyph name="Ncaron" xMin="93" yMin="0" xMax="628" yMax="924">
      <contour>
        <pt x="228" y="924" on="1"/>
        <pt x="366" y="852" on="1"/>
        <pt x="503" y="924" on="1"/>
        <pt x="503" y="881" on="1"/>
        <pt x="366" y="809" on="1"/>
        <pt x="228" y="881" on="1"/>
      </contour>
      <contour>
        <pt x="93" y="740" on="1"/>
        <pt x="133" y="740" on="1"/>
        <pt x="530" y="152" on="1"/>
        <pt x="586" y="64" on="1"/>
        <pt x="590" y="65" on="1"/>
        <pt x="590" y="740" on="1"/>
        <pt x="628" y="740" on="1"/>
        <pt x="628" y="0" on="1"/>
        <pt x="587" y="0" on="1"/>
        <pt x="188" y="589" on="1"/>
        <pt x="134" y="674" on="1"/>
        <pt x="130" y="674" on="1"/>
        <pt x="130" y="0" on="1"/>
        <pt x="93" y="0" on="1"/>
      </contour>
    </TTGlyph>
    <TTGlyph name="Ncaron.sc" xMin="88" yMin="0" xMax="551" yMax="725">
      <contour>
        <pt x="88" y="577" on="1"/>
        <pt x="126" y="577" on="1"/>
        <pt x="462" y="131" on="1"/>
        <pt x="511" y="62" on="1"/>
        <pt x="515" y="62" on="1"/>
        <pt x="515" y="577" on="1"/>
        <pt x="551" y="577" on="1"/>
        <pt x="551" y="0" on="1"/>
        <pt x="513" y="0" on="1"/>
        <pt x="174" y="447" on="1"/>
        <pt x="129" y="514" on="1"/>
        <pt x="124" y="514" on="1"/>
        <pt x="124" y="0" on="1"/>
        <pt x="88" y="0" on="1"/>
      </contour>
      <contour>
        <pt x="203" y="687" on="1"/>
        <pt x="203" y="725" on="1"/>
        <pt x="323" y="669" on="1"/>
        <pt x="443" y="725" on="1"/>
        <pt x="443" y="687" on="1"/>
        <pt x="323" y="631" on="1"/>
      </contour>
    </TTGlyph>
    <TTGlyph name="Ncommaaccent" xMin="93" yMin="-220" xMax="628" yMax="740">
      <contour>
        <pt x="365" y="-68" on="1"/>
        <pt x="406" y="-68" on="1"/>
        <pt x="352" y="-220" on="1"/>
        <pt x="314" y="-220" on="1"/>
      </contour>
      <contour>
        <pt x="93" y="740" on="1"/>
        <pt x="133" y="740" on="1"/>
        <pt x="530" y="152" on="1"/>
        <pt x="586" y="64" on="1"/>
        <pt x="590" y="65" on="1"/>
        <pt x="590" y="740" on="1"/>
        <pt x="628" y="740" on="1"/>
        <pt x="628" y="0" on="1"/>
        <pt x="587" y="0" on="1"/>
        <pt x="188" y="589" on="1"/>
        <pt x="134" y="674" on="1"/>
        <pt x="130" y="674" on="1"/>
        <pt x="130" y="0" on="1"/>
        <pt x="93" y="0" on="1"/>
      </contour>
    </TTGlyph>
    <TTGlyph name="Ncommaaccent.sc" xMin="88" yMin="-172" xMax="551" yMax="577">
      <contour>
        <pt x="88" y="577" on="1"/>
        <pt x="126" y="577" on="1"/>
        <pt x="462" y="131" on="1"/>
        <pt x="511" y="62" on="1"/>
        <pt x="515" y="62" on="1"/>
        <pt x="515" y="577" on="1"/>
        <pt x="551" y="577" on="1"/>
        <pt x="551" y="0" on="1"/>
        <pt x="513" y="0" on="1"/>
        <pt x="174" y="447" on="1"/>
        <pt x="129" y="514" on="1"/>
        <pt x="124" y="514" on="1"/>
        <pt x="124" y="0" on="1"/>
        <pt x="88" y="0" on="1"/>
      </contour>
      <contour>
        <pt x="320" y="-54" on="1"/>
        <pt x="360" y="-54" on="1"/>
        <pt x="312" y="-172" on="1"/>
        <pt x="276" y="-172" on="1"/>
      </contour>
    </TTGlyph>
    <TTGlyph name="Ndotaccent" xMin="93" yMin="0" xMax="628" yMax="879">
      <contour>
        <pt x="363" y="813" on="1"/>
        <pt x="349" y="813" on="0"/>
        <pt x="330" y="829" on="0"/>
        <pt x="330" y="846" on="1"/>
        <pt x="330" y="863" on="0"/>
        <pt x="349" y="879" on="0"/>
        <pt x="363" y="879" on="1"/>
        <pt x="377" y="879" on="0"/>
        <pt x="397" y="863" on="0"/>
        <pt x="397" y="846" on="1"/>
        <pt x="397" y="829" on="0"/>
        <pt x="377" y="813" on="0"/>
      </contour>
      <contour>
        <pt x="93" y="740" on="1"/>
        <pt x="133" y="740" on="1"/>
        <pt x="530" y="152" on="1"/>
        <pt x="586" y="64" on="1"/>
        <pt x="590" y="65" on="1"/>
        <pt x="590" y="740" on="1"/>
        <pt x="628" y="740" on="1"/>
        <pt x="628" y="0" on="1"/>
        <pt x="587" y="0" on="1"/>
        <pt x="188" y="589" on="1"/>
        <pt x="134" y="674" on="1"/>
        <pt x="130" y="674" on="1"/>
        <pt x="130" y="0" on="1"/>
        <pt x="93" y="0" on="1"/>
      </contour>
    </TTGlyph>
    <TTGlyph name="Ndotaccent.sc" xMin="88" yMin="0" xMax="551" yMax="693">
      <contour>
        <pt x="88" y="577" on="1"/>
        <pt x="126" y="577" on="1"/>
        <pt x="462" y="131" on="1"/>
        <pt x="511" y="62" on="1"/>
        <pt x="515" y="62" on="1"/>
        <pt x="515" y="577" on="1"/>
        <pt x="551" y="577" on="1"/>
        <pt x="551" y="0" on="1"/>
        <pt x="513" y="0" on="1"/>
        <pt x="174" y="447" on="1"/>
        <pt x="129" y="514" on="1"/>
        <pt x="124" y="514" on="1"/>
        <pt x="124" y="0" on="1"/>
        <pt x="88" y="0" on="1"/>
      </contour>
      <contour>
        <pt x="321" y="635" on="1"/>
        <pt x="307" y="635" on="0"/>
        <pt x="291" y="648" on="0"/>
        <pt x="291" y="664" on="1"/>
        <pt x="291" y="679" on="0"/>
        <pt x="307" y="693" on="0"/>
        <pt x="321" y="693" on="1"/>
        <pt x="335" y="693" on="0"/>
        <pt x="353" y="680" on="0"/>
        <pt x="353" y="664" on="1"/>
        <pt x="353" y="648" on="0"/>
        <pt x="335" y="635" on="0"/>
      </contour>
    </TTGlyph>
    <TTGlyph name="Ntilde" xMin="93" yMin="0" xMax="628" yMax="908">
      <contour>
        <pt x="199" y="859" on="1"/>
        <pt x="220" y="881" on="0"/>
        <pt x="273" y="908" on="0"/>
        <pt x="299" y="908" on="1"/>
        <pt x="321" y="908" on="0"/>
        <pt x="356" y="895" on="0"/>
        <pt x="389" y="878" on="0"/>
        <pt x="422" y="865" on="0"/>
        <pt x="441" y="865" on="1"/>
        <pt x="461" y="865" on="0"/>
        <pt x="499" y="886" on="0"/>
        <pt x="515" y="904" on="1"/>
        <pt x="541" y="882" on="1"/>
        <pt x="523" y="859" on="0"/>
        <pt x="468" y="830" on="0"/>
        <pt x="439" y="830" on="1"/>
        <pt x="419" y="830" on="0"/>
        <pt x="384" y="843" on="0"/>
        <pt x="351" y="860" on="0"/>
        <pt x="318" y="873" on="0"/>
        <pt x="300" y="873" on="1"/>
        <pt x="280" y="873" on="0"/>
        <pt x="240" y="852" on="0"/>
        <pt x="223" y="835" on="1"/>
      </contour>
      <contour>
        <pt x="93" y="740" on="1"/>
        <pt x="133" y="740" on="1"/>
        <pt x="530" y="152" on="1"/>
        <pt x="586" y="64" on="1"/>
        <pt x="590" y="65" on="1"/>
        <pt x="590" y="740" on="1"/>
        <pt x="628" y="740" on="1"/>
        <pt x="628" y="0" on="1"/>
        <pt x="587" y="0" on="1"/>
        <pt x="188" y="589" on="1"/>
        <pt x="134" y="674" on="1"/>
        <pt x="130" y="674" on="1"/>
        <pt x="130" y="0" on="1"/>
        <pt x="93" y="0" on="1"/>
      </contour>
    </TTGlyph>
    <TTGlyph name="Ntilde.sc" xMin="88" yMin="0" xMax="551" yMax="713">
      <contour>
        <pt x="178" y="670" on="1"/>
        <pt x="197" y="690" on="0"/>
        <pt x="243" y="713" on="0"/>
        <pt x="267" y="713" on="1"/>
        <pt x="285" y="713" on="0"/>
        <pt x="316" y="703" on="0"/>
        <pt x="345" y="690" on="0"/>
        <pt x="373" y="680" on="0"/>
        <pt x="390" y="680" on="1"/>
        <pt x="426" y="680" on="0"/>
        <pt x="456" y="710" on="1"/>
        <pt x="477" y="692" on="1"/>
        <pt x="460" y="672" on="0"/>
        <pt x="413" y="647" on="0"/>
        <pt x="387" y="647" on="1"/>
        <pt x="370" y="647" on="0"/>
        <pt x="339" y="658" on="0"/>
        <pt x="310" y="670" on="0"/>
        <pt x="280" y="681" on="0"/>
        <pt x="265" y="681" on="1"/>
        <pt x="230" y="681" on="0"/>
        <pt x="198" y="651" on="1"/>
      </contour>
      <contour>
        <pt x="88" y="577" on="1"/>
        <pt x="126" y="577" on="1"/>
        <pt x="462" y="131" on="1"/>
        <pt x="511" y="62" on="1"/>
        <pt x="515" y="62" on="1"/>
        <pt x="515" y="577" on="1"/>
        <pt x="551" y="577" on="1"/>
        <pt x="551" y="0" on="1"/>
        <pt x="513" y="0" on="1"/>
        <pt x="174" y="447" on="1"/>
        <pt x="129" y="514" on="1"/>
        <pt x="124" y="514" on="1"/>
        <pt x="124" y="0" on="1"/>
        <pt x="88" y="0" on="1"/>
      </contour>
    </TTGlyph>
    <TTGlyph name="O" xMin="55" yMin="-10" xMax="620" yMax="750">
      <contour>
        <pt x="338" y="-10" on="1"/>
        <pt x="200" y="-10" on="0"/>
        <pt x="55" y="180" on="0"/>
        <pt x="55" y="369" on="1"/>
        <pt x="55" y="559" on="0"/>
        <pt x="200" y="750" on="0"/>
        <pt x="338" y="750" on="1"/>
        <pt x="475" y="750" on="0"/>
        <pt x="620" y="558" on="0"/>
        <pt x="620" y="369" on="1"/>
        <pt x="620" y="180" on="0"/>
        <pt x="475" y="-10" on="0"/>
      </contour>
      <contour>
        <pt x="338" y="27" on="1"/>
        <pt x="459" y="27" on="0"/>
        <pt x="582" y="199" on="0"/>
        <pt x="582" y="369" on="1"/>
        <pt x="582" y="540" on="0"/>
        <pt x="458" y="713" on="0"/>
        <pt x="338" y="713" on="1"/>
        <pt x="94" y="713" on="0"/>
        <pt x="94" y="369" on="1"/>
        <pt x="94" y="27" on="0"/>
      </contour>
    </TTGlyph>
    <TTGlyph name="O.sc" xMin="55" yMin="-8" xMax="546" yMax="585">
      <contour>
        <pt x="301" y="-8" on="1"/>
        <pt x="181" y="-8" on="0"/>
        <pt x="55" y="141" on="0"/>
        <pt x="55" y="288" on="1"/>
        <pt x="55" y="436" on="0"/>
        <pt x="181" y="585" on="0"/>
        <pt x="301" y="585" on="1"/>
        <pt x="419" y="585" on="0"/>
        <pt x="546" y="436" on="0"/>
        <pt x="546" y="288" on="1"/>
        <pt x="546" y="141" on="0"/>
        <pt x="419" y="-8" on="0"/>
      </contour>
      <contour>
        <pt x="301" y="27" on="1"/>
        <pt x="403" y="27" on="0"/>
        <pt x="508" y="158" on="0"/>
        <pt x="508" y="288" on="1"/>
        <pt x="508" y="418" on="0"/>
        <pt x="403" y="550" on="0"/>
        <pt x="301" y="550" on="1"/>
        <pt x="93" y="550" on="0"/>
        <pt x="93" y="288" on="1"/>
        <pt x="93" y="27" on="0"/>
      </contour>
    </TTGlyph>
    <TTGlyph name="OE" xMin="55" yMin="-6" xMax="809" yMax="746">
      <contour>
        <pt x="340" y="-6" on="1"/>
        <pt x="202" y="-6" on="0"/>
        <pt x="55" y="182" on="0"/>
        <pt x="55" y="369" on="1"/>
        <pt x="55" y="557" on="0"/>
        <pt x="202" y="746" on="0"/>
        <pt x="340" y="746" on="1"/>
        <pt x="363" y="746" on="0"/>
        <pt x="411" y="744" on="0"/>
        <pt x="431" y="740" on="1"/>
        <pt x="800" y="740" on="1"/>
        <pt x="800" y="703" on="1"/>
        <pt x="467" y="703" on="1"/>
        <pt x="467" y="395" on="1"/>
        <pt x="775" y="395" on="1"/>
        <pt x="775" y="358" on="1"/>
        <pt x="467" y="358" on="1"/>
        <pt x="467" y="37" on="1"/>
        <pt x="809" y="37" on="1"/>
        <pt x="809" y="0" on="1"/>
        <pt x="431" y="0" on="1"/>
        <pt x="413" y="-3" on="0"/>
        <pt x="363" y="-6" on="0"/>
      </contour>
      <contour>
        <pt x="341" y="31" on="1"/>
        <pt x="362" y="31" on="0"/>
        <pt x="410" y="34" on="0"/>
        <pt x="429" y="39" on="1"/>
        <pt x="429" y="701" on="1"/>
        <pt x="409" y="706" on="0"/>
        <pt x="363" y="709" on="0"/>
        <pt x="341" y="709" on="1"/>
        <pt x="94" y="709" on="0"/>
        <pt x="94" y="369" on="1"/>
        <pt x="94" y="31" on="0"/>
      </contour>
    </TTGlyph>
    <TTGlyph name="OE.sc" xMin="55" yMin="-5" xMax="713" yMax="582">
      <contour>
        <pt x="303" y="-5" on="1"/>
        <pt x="183" y="-5" on="0"/>
        <pt x="55" y="142" on="0"/>
        <pt x="55" y="288" on="1"/>
        <pt x="55" y="434" on="0"/>
        <pt x="183" y="582" on="0"/>
        <pt x="303" y="582" on="1"/>
        <pt x="323" y="582" on="0"/>
        <pt x="365" y="580" on="0"/>
        <pt x="382" y="577" on="1"/>
        <pt x="706" y="577" on="1"/>
        <pt x="706" y="542" on="1"/>
        <pt x="418" y="542" on="1"/>
        <pt x="418" y="312" on="1"/>
        <pt x="685" y="312" on="1"/>
        <pt x="685" y="277" on="1"/>
        <pt x="418" y="277" on="1"/>
        <pt x="418" y="35" on="1"/>
        <pt x="713" y="35" on="1"/>
        <pt x="713" y="0" on="1"/>
        <pt x="382" y="0" on="1"/>
        <pt x="365" y="-2" on="0"/>
        <pt x="323" y="-5" on="0"/>
      </contour>
      <contour>
        <pt x="304" y="30" on="1"/>
        <pt x="323" y="30" on="0"/>
        <pt x="364" y="32" on="0"/>
        <pt x="380" y="36" on="1"/>
        <pt x="380" y="541" on="1"/>
        <pt x="363" y="545" on="0"/>
        <pt x="324" y="547" on="0"/>
        <pt x="304" y="547" on="1"/>
        <pt x="93" y="547" on="0"/>
        <pt x="93" y="288" on="1"/>
        <pt x="93" y="30" on="0"/>
      </contour>
    </TTGlyph>
    <TTGlyph name="Oacute" xMin="55" yMin="-10" xMax="620" yMax="922">
      <contour>
        <pt x="315" y="799" on="1"/>
        <pt x="394" y="922" on="1"/>
        <pt x="436" y="922" on="1"/>
        <pt x="350" y="794" on="1"/>
      </contour>
      <contour>
        <pt x="338" y="-10" on="1"/>
        <pt x="200" y="-10" on="0"/>
        <pt x="55" y="180" on="0"/>
        <pt x="55" y="369" on="1"/>
        <pt x="55" y="559" on="0"/>
        <pt x="200" y="750" on="0"/>
        <pt x="338" y="750" on="1"/>
        <pt x="475" y="750" on="0"/>
        <pt x="620" y="558" on="0"/>
        <pt x="620" y="369" on="1"/>
        <pt x="620" y="180" on="0"/>
        <pt x="475" y="-10" on="0"/>
      </contour>
      <contour>
        <pt x="338" y="27" on="1"/>
        <pt x="459" y="27" on="0"/>
        <pt x="582" y="199" on="0"/>
        <pt x="582" y="369" on="1"/>
        <pt x="582" y="540" on="0"/>
        <pt x="458" y="713" on="0"/>
        <pt x="338" y="713" on="1"/>
        <pt x="94" y="713" on="0"/>
        <pt x="94" y="369" on="1"/>
        <pt x="94" y="27" on="0"/>
      </contour>
    </TTGlyph>
</ttFont>
